<?xml version="1.0" standalone="no"?>
<!DOCTYPE svg PUBLIC "-//W3C//DTD SVG 1.1//EN" "http://www.w3.org/Graphics/SVG/1.1/DTD/svg11.dtd" >
<svg xmlns="http://www.w3.org/2000/svg">
<metadata></metadata>
<defs>
<font id="falkmanbold" horiz-adv-x="1423" >
<font-face units-per-em="2048" ascent="1536" descent="-512" />
<missing-glyph horiz-adv-x="681" />
<glyph horiz-adv-x="0" />
<glyph unicode="&#xd;" horiz-adv-x="681" />
<glyph horiz-adv-x="0" />
<glyph horiz-adv-x="0" />
<glyph unicode=" "  horiz-adv-x="681" />
<glyph unicode="&#x09;" horiz-adv-x="681" />
<glyph unicode="&#xa0;" horiz-adv-x="681" />
<glyph unicode="!" horiz-adv-x="542" d="M123 137q0 -63 46 -109t112 -46q68 0 114.5 46t46.5 109q0 68 -47 115t-114 47q-66 0 -112 -47t-46 -115zM143 602v832h254v-832h-254z" />
<glyph unicode="'" horiz-adv-x="368" d="M20 1137v155q0 68 46.5 115t111.5 47q68 0 115 -47t47 -115z" />
<glyph unicode="(" horiz-adv-x="755" d="M61 702q0 170 45.5 332t125 297t191.5 231.5t245 135.5v-248q-94 -47 -161 -128t-109 -181.5t-61.5 -214t-19.5 -224.5q0 -104 19.5 -218.5t61.5 -219t108.5 -190.5t161.5 -131v-248q-133 39 -245 136t-191.5 233.5t-125 301t-45.5 336.5z" />
<glyph unicode=")" horiz-adv-x="741" d="M61 -57q94 45 161 131t109 190.5t61.5 219t19.5 218.5q0 111 -19.5 224.5t-61.5 214t-108.5 181.5t-161.5 128v248q133 -39 245 -135.5t192 -231.5t125 -297t45 -332q0 -172 -45 -336.5t-125 -301t-191.5 -233.5t-245.5 -136v248z" />
<glyph unicode="+" horiz-adv-x="755" d="M4 606v256h242v244h256v-244h246v-256h-246v-244h-256v244h-242z" />
<glyph unicode="," horiz-adv-x="442" d="M61 2q0 68 46.5 115t111.5 47q68 0 115 -47t47 -115l-320 -156v156z" />
<glyph unicode="-" horiz-adv-x="587" d="M4 606v256h580v-256h-580z" />
<glyph unicode="." horiz-adv-x="542" d="M102 137q0 68 46.5 115t111.5 47q68 0 115 -47t47 -115q0 -63 -47 -109t-115 -46q-66 0 -112 46t-46 109z" />
<glyph unicode="/" horiz-adv-x="1130" d="M8 0l932 1434h223l-932 -1434h-223z" />
<glyph unicode="0" horiz-adv-x="1228" d="M113 717q0 154 26.5 288t87 233t155.5 157.5t232 58.5t232.5 -58.5t156 -157.5t87 -233.5t26.5 -287.5q0 -154 -26.5 -288t-87 -233.5t-155.5 -157.5t-233 -58q-137 0 -232 58t-155.5 157.5t-87 233.5t-26.5 288zM369 717q0 -102 15 -191.5t46 -156t77 -105.5t107 -39 t107.5 39t77 105.5t46 156t15.5 191.5q0 100 -15.5 190t-46 156.5t-76.5 105.5t-108 39q-61 0 -107 -39t-77 -105.5t-46 -156.5t-15 -190z" />
<glyph unicode="1" horiz-adv-x="743" d="M113 1184v250h415v-1434h-256v1184h-159z" />
<glyph unicode="2" horiz-adv-x="1116" d="M82 0v164l504 571q84 94 117.5 160t33.5 121q0 37 -15 71.5t-42 61.5t-62.5 43t-76.5 16q-72 0 -129.5 -43t-79.5 -114l-240 71q23 74 67 135.5t103.5 104.5t131 67.5t151.5 24.5q92 0 175 -32.5t146.5 -91t100.5 -140.5t37 -178q0 -66 -15.5 -119t-42 -99t-59.5 -88 t-70 -83l-332 -377h529v-246h-932z" />
<glyph unicode="3" horiz-adv-x="1173" d="M51 203l199 166q45 -63 114.5 -103.5t151.5 -40.5q51 0 101.5 19.5t90.5 53.5t64.5 82t24.5 105q0 55 -21.5 106.5t-59.5 90.5t-92.5 61.5t-121.5 22.5q-90 0 -172 -41v145l278 328h-489v236h870v-164l-274 -320q74 -29 137 -74t109.5 -105t73 -132t26.5 -154 q0 -115 -42 -208t-113.5 -158.5t-170 -102t-209.5 -36.5q-135 0 -257 57t-218 166z" />
<glyph unicode="4" horiz-adv-x="1259" d="M41 328v164l747 942h195v-881h236v-225h-236v-328h-256v328h-686zM397 553h330v397z" />
<glyph unicode="5" horiz-adv-x="1157" d="M82 164l188 176q47 -49 110.5 -82t135.5 -33q49 0 98.5 16.5t88 47t62 78t23.5 108.5t-23.5 112.5t-62 86.5t-90 54.5t-106.5 19.5q-53 0 -108.5 -19.5t-102.5 -58.5l-172 24l92 740h758v-246h-553l-23 -225q23 4 63 7t68 3q84 0 171 -23.5t163 -85.5q86 -68 134 -170 t48 -219q0 -106 -41.5 -196.5t-113.5 -157t-168 -104t-205 -37.5q-250 0 -434 184z" />
<glyph unicode="6" horiz-adv-x="1208" d="M92 469q0 106 42 202.5t99 192.5l338 570h306l-271 -457h19q102 0 193 -37t160 -102.5t108.5 -156.5t39.5 -198q0 -104 -41 -196t-109.5 -160t-161.5 -107.5t-198 -39.5q-100 0 -194 34.5t-168 98t-118 153.5t-44 203zM344 469q0 -53 22.5 -98t59.5 -79t85 -53.5 t101 -19.5t99.5 19.5t81 54.5t55 82t20.5 100q0 55 -20.5 103.5t-57 85t-86 57t-106.5 20.5q-78 1 -154 -34q-14 -20 -31.5 -46t-32.5 -57t-25.5 -64.5t-10.5 -70.5z" />
<glyph unicode="7" horiz-adv-x="1095" d="M92 1188v246h942v-164l-616 -1270h-293l580 1188h-613z" />
<glyph unicode="8" horiz-adv-x="1228" d="M102 444q0 127 58.5 215.5t148.5 147.5q-47 41 -80.5 102.5t-33.5 149.5q0 82 31.5 153.5t88 126t133 85t166.5 30.5t167 -30.5t133.5 -85t88 -126t31.5 -153.5q0 -88 -33.5 -149.5t-80.5 -102.5q90 -59 148 -147.5t58 -215.5q0 -98 -39.5 -182t-108.5 -147.5t-163.5 -99 t-200.5 -35.5q-109 0 -202 35.5t-161.5 99t-108.5 147.5t-40 182zM358 444q0 -92 69.5 -155.5t186.5 -63.5t186.5 63.5t69.5 155.5q0 45 -18 89.5t-51 78t-81 54t-106 20.5q-59 0 -106 -20.5t-80 -54t-51.5 -78t-18.5 -89.5zM451 1059q0 -61 41.5 -114.5t121.5 -53.5t122 53 t42 115q0 61 -42 105t-122 44t-121.5 -44t-41.5 -105z" />
<glyph unicode="9" horiz-adv-x="1208" d="M82 950q0 104 41 196.5t109.5 160t161.5 107.5t198 40q100 0 194.5 -35t168 -98.5t117.5 -153.5t44 -202q0 -106 -42 -202.5t-99 -193.5l-338 -569h-305l270 457h-18q-102 0 -193.5 36.5t-160 102.5t-108.5 156t-40 198zM340 958q0 -55 20.5 -103t57.5 -85t86 -57.5 t106 -20.5q78 0 154 35q14 20 31.5 46t33 56.5t25.5 64.5t10 71q0 53 -22.5 98t-59.5 79t-86 53t-100 19q-53 0 -99 -19t-81 -54t-55.5 -82t-20.5 -101z" />
<glyph unicode="&#x3c;" horiz-adv-x="1239" d="M92 618v142l862 387v-234l-491 -223q55 -25 119.5 -55.5t130 -62t128 -61.5t113.5 -52v-228z" />
<glyph unicode="=" horiz-adv-x="589" d="M4 340v256h580v-256h-580zM4 791v256h580v-256h-580z" />
<glyph unicode="&#x3e;" horiz-adv-x="1161" d="M193 231v228l491 231l-491 223v234l862 -387v-142z" />
<glyph unicode="?" horiz-adv-x="1032" d="M123 1151q14 61 48 115.5t85 96.5t119.5 66.5t152.5 24.5q86 0 162 -27.5t132.5 -77t88 -117t31.5 -147.5q0 -113 -51 -185.5t-112.5 -122.5t-113 -90t-51.5 -85h-266q0 66 24.5 116t60.5 90t79 72.5t79 63.5t60.5 63.5t24.5 73.5q0 57 -41 92t-107 35q-68 0 -105.5 -40 t-41.5 -85zM330 154q0 76 51 126t127 50t128 -50.5t52 -125.5q0 -76 -52 -125t-128 -49t-127 49t-51 125z" />
<glyph unicode="A" d="M0 0l506 1184h-164v250h467l614 -1434h-268l-135 313h-617l-135 -313h-268zM508 563h405l-202 498z" />
<glyph unicode="B" horiz-adv-x="1320" d="M164 0v1434h559q90 0 173 -29t145.5 -84t100.5 -134t38 -179q0 -152 -82 -246q78 -55 125 -139t47 -199q0 -98 -38 -177t-100.5 -134.5t-143.5 -84t-167 -28.5h-657zM422 250h330q47 0 94 7t84 26.5t60.5 53.5t23.5 87q0 80 -60.5 127t-142.5 51h-389v-352zM422 850h330 q90 2 131 51t41 107q0 39 -16.5 70.5t-44 55t-63.5 36t-77 12.5h-301v-332z" />
<glyph unicode="C" horiz-adv-x="1505" d="M61 707q0 170 62.5 307t165 234.5t235.5 150.5t273 53q86 0 174 -27.5t170 -80t155.5 -129t130.5 -175.5l-239 -96q-76 127 -181.5 193.5t-209.5 66.5q-94 0 -181.5 -35.5t-154 -101.5t-106.5 -157t-40 -203q0 -104 41 -192.5t108.5 -151t154 -98.5t178.5 -36 q117 0 230.5 62.5t189.5 181.5l247 -90q-57 -100 -133 -175t-163 -125t-182 -75.5t-189 -25.5q-133 0 -264.5 49t-235.5 141t-170 227.5t-66 307.5z" />
<glyph unicode="D" horiz-adv-x="1517" d="M164 0v1434h571q137 0 267.5 -47.5t231.5 -138.5t161.5 -227t60.5 -314q0 -180 -60.5 -313.5t-161.5 -220.5t-231.5 -130t-267.5 -43h-571zM418 250q82 0 158.5 -1t158.5 -1q90 0 174 30.5t148.5 89t103.5 143.5t39 196q0 117 -39 207t-103.5 149t-148.5 90t-174 31h-317 v-934z" />
<glyph unicode="E" horiz-adv-x="1167" d="M164 0v1434h903v-250h-647v-328h416v-248h-416v-358h665v-250h-921z" />
<glyph unicode="F" horiz-adv-x="1103" d="M164 0v1434h899v-250h-643v-328h414v-248h-414v-608h-256z" />
<glyph unicode="G" horiz-adv-x="1556" d="M61 707q0 170 62.5 307t166 234.5t235.5 150.5t274 53q86 0 174 -27.5t171 -80t157.5 -129t132.5 -175.5l-240 -96q-76 127 -183.5 193.5t-211.5 66.5q-94 0 -180.5 -35.5t-153 -101.5t-106.5 -157t-40 -203q0 -104 40 -192.5t106.5 -152t153 -99.5t180.5 -36 q111 0 212 51.5t167 145.5v123h-172v250h421v-453q-49 -90 -118.5 -157.5t-151.5 -112.5t-173 -68.5t-185 -23.5q-133 0 -265.5 49t-236.5 141t-170 227.5t-66 307.5z" />
<glyph unicode="H" horiz-adv-x="1611" d="M164 0v1434h256v-588h772v588h256v-1434h-256v596h-772v-596h-256z" />
<glyph unicode="I" horiz-adv-x="581" d="M164 0v1434h254v-1434h-254z" />
<glyph unicode="J" horiz-adv-x="1218" d="M31 545h248q0 -61 20 -117.5t55 -100.5t82 -71t105 -27q121 0 194.5 85t73.5 249v621h-174v250h430v-869q0 -141 -38 -249.5t-106.5 -182.5t-165 -112.5t-214.5 -38.5q-80 0 -170 33.5t-166 102t-125 175t-49 252.5z" />
<glyph unicode="K" horiz-adv-x="1370" d="M164 0v1434h256v-1434h-256zM422 772l471 662h313l-477 -641l641 -793h-319z" />
<glyph unicode="L" horiz-adv-x="1087" d="M164 0v1434h256v-1184h616v-250h-872z" />
<glyph unicode="M" horiz-adv-x="1775" d="M164 0v1434h223l500 -1026q70 127 131 256t121.5 258t122 258t129.5 254h221v-1434h-246v860l-418 -860h-121l-419 858v-858h-244z" />
<glyph unicode="N" horiz-adv-x="1607" d="M164 0v1434l164 -2l870 -971v973h246v-1434h-160l-874 967v-967h-246z" />
<glyph unicode="O" horiz-adv-x="1579" d="M61 723q0 170 64.5 305t168 229.5t233.5 144.5t264 50q137 0 268 -50t233.5 -144.5t164 -229.5t61.5 -305q0 -172 -61.5 -310.5t-164 -233.5t-233.5 -146t-268 -51q-133 0 -263.5 51t-234 146t-168 233.5t-64.5 310.5zM317 723q0 -104 39 -195.5t104.5 -157t150.5 -103.5 t180 -38q90 0 175 38t150.5 103.5t105.5 156.5t40 196q0 111 -40 200t-105.5 151.5t-150.5 96t-175 33.5q-94 0 -179.5 -33.5t-151 -96t-104.5 -151.5t-39 -200z" />
<glyph unicode="P" horiz-adv-x="1378" d="M164 0v1434h661q119 0 214.5 -39t162 -106.5t101 -159t34.5 -197.5q0 -104 -34.5 -196.5t-100.5 -159.5q-64 -68 -158 -107q-89 -37 -199 -37h-11h-414v-432h-256zM420 680h401q53 0 101.5 12.5t84 41t56 77.5t20.5 121q0 49 -17 94t-51 81t-82 56.5t-108 20.5h-405v-504 z" />
<glyph unicode="Q" horiz-adv-x="1558" d="M61 723q0 170 64.5 305t168 229.5t233.5 144.5t264 50q137 0 268 -50t233.5 -144.5t164 -229.5t61.5 -305q0 -147 -44 -268t-122 -213q45 0 88 1t76 1v-244h-560q-41 -10 -82.5 -14t-82.5 -4q-133 0 -263.5 51t-234 146t-168 233.5t-64.5 310.5zM317 723 q0 -104 39 -195.5t104.5 -157t150.5 -103.5t180 -38q90 0 175 38t150.5 103.5t105.5 156.5t40 196q0 111 -40 200t-105.5 151.5t-150.5 96t-175 33.5q-94 0 -179.5 -33.5t-151 -96t-104.5 -151.5t-39 -200z" />
<glyph unicode="R" horiz-adv-x="1449" d="M164 0v1434h661q119 0 214.5 -39t162 -106.5t101 -159t34.5 -197.5q0 -98 -28.5 -179t-79.5 -140.5t-120 -95.5t-148 -44l509 -473h-333l-510 471h-207v-471h-256zM420 700h401q53 0 101.5 9.5t84 36t56 70.5t20.5 116q0 49 -17 94t-51 81t-82 56.5t-108 20.5h-405v-484z " />
<glyph unicode="S" horiz-adv-x="1333" d="M29 225l172 181q57 -49 119.5 -83t124 -55.5t115.5 -31t95 -9.5q86 0 150.5 17.5t106.5 45t63.5 60.5t21.5 64q0 49 -36.5 81.5t-92 57.5t-119 43t-116.5 37q-96 31 -188.5 67.5t-164 88t-114.5 119t-43 159.5q0 68 31.5 136.5t96 123.5t165 90t237.5 35q80 0 161 -19.5 t153.5 -50t130 -66.5t92.5 -67l-158 -170q-29 20 -69.5 44t-90 45.5t-105.5 36t-114 14.5q-82 0 -135 -14.5t-84 -37t-43 -48t-12 -50.5q0 -37 35 -66.5t86 -53t109.5 -43t107.5 -36.5q104 -35 200.5 -71.5t171 -88t119.5 -122t45 -174.5q0 -90 -42 -168t-119.5 -136.5 t-188.5 -92t-248 -33.5q-143 0 -309 55t-317 186z" />
<glyph unicode="T" horiz-adv-x="1341" d="M51 1184v250h1239v-250h-489v-1184h-256v1184h-494z" />
<glyph unicode="U" horiz-adv-x="1564" d="M154 623v811h258v-816q0 -94 30.5 -166.5t81.5 -121.5t118 -75t140 -26q80 0 148.5 31t119 84t78 125t27.5 152v813h256v-813q0 -147 -51 -266t-138 -202t-202 -127t-240 -44t-238.5 45t-199.5 128t-137 201.5t-51 266.5z" />
<glyph unicode="V" horiz-adv-x="1466" d="M20 1434h269l444 -990l441 990h272l-643 -1434h-141z" />
<glyph unicode="W" horiz-adv-x="1972" d="M20 1434h265l288 -932l304 932h208l297 -932l301 932h269l-477 -1434h-195l-301 952l-320 -952h-194z" />
<glyph unicode="X" horiz-adv-x="1376" d="M31 0l495 801q-43 72 -94 153.5t-102 165.5t-101.5 165t-91.5 149h293l256 -408l234 408h294l-374 -633q57 -90 122.5 -193.5t132 -209t131 -208t120.5 -190.5h-299l-363 567q-92 -145 -182 -285.5t-180 -281.5h-291z" />
<glyph unicode="Y" horiz-adv-x="1316" d="M10 1434h301l346 -521l351 521h299l-521 -768v-666h-258v674z" />
<glyph unicode="Z" horiz-adv-x="1361" d="M82 0v174l792 1010h-677v250h1054v-174l-788 -1010h827v-250h-1208z" />
<glyph unicode="a" d="M0 0l506 1184h-164v250h467l614 -1434h-268l-135 313h-617l-135 -313h-268zM508 563h405l-202 498z" />
<glyph unicode="b" horiz-adv-x="1320" d="M164 0v1434h559q90 0 173 -29t145.5 -84t100.5 -134t38 -179q0 -152 -82 -246q78 -55 125 -139t47 -199q0 -98 -38 -177t-100.5 -134.5t-143.5 -84t-167 -28.5h-657zM422 250h330q47 0 94 7t84 26.5t60.5 53.5t23.5 87q0 80 -60.5 127t-142.5 51h-389v-352zM422 850h330 q90 2 131 51t41 107q0 39 -16.5 70.5t-44 55t-63.5 36t-77 12.5h-301v-332z" />
<glyph unicode="c" horiz-adv-x="1505" d="M61 707q0 170 62.5 307t165 234.5t235.5 150.5t273 53q86 0 174 -27.5t170 -80t155.5 -129t130.5 -175.5l-239 -96q-76 127 -181.5 193.5t-209.5 66.5q-94 0 -181.5 -35.5t-154 -101.5t-106.5 -157t-40 -203q0 -104 41 -192.5t108.5 -151t154 -98.5t178.5 -36 q117 0 230.5 62.5t189.5 181.5l247 -90q-57 -100 -133 -175t-163 -125t-182 -75.5t-189 -25.5q-133 0 -264.5 49t-235.5 141t-170 227.5t-66 307.5z" />
<glyph unicode="d" horiz-adv-x="1517" d="M164 0v1434h571q137 0 267.5 -47.5t231.5 -138.5t161.5 -227t60.5 -314q0 -180 -60.5 -313.5t-161.5 -220.5t-231.5 -130t-267.5 -43h-571zM418 250q82 0 158.5 -1t158.5 -1q90 0 174 30.5t148.5 89t103.5 143.5t39 196q0 117 -39 207t-103.5 149t-148.5 90t-174 31h-317 v-934z" />
<glyph unicode="e" horiz-adv-x="1167" d="M164 0v1434h903v-250h-647v-328h416v-248h-416v-358h665v-250h-921z" />
<glyph unicode="f" horiz-adv-x="1103" d="M164 0v1434h899v-250h-643v-328h414v-248h-414v-608h-256z" />
<glyph unicode="g" horiz-adv-x="1556" d="M61 707q0 170 62.5 307t166 234.5t235.5 150.5t274 53q86 0 174 -27.5t171 -80t157.5 -129t132.5 -175.5l-240 -96q-76 127 -183.5 193.5t-211.5 66.5q-94 0 -180.5 -35.5t-153 -101.5t-106.5 -157t-40 -203q0 -104 40 -192.5t106.5 -152t153 -99.5t180.5 -36 q111 0 212 51.5t167 145.5v123h-172v250h421v-453q-49 -90 -118.5 -157.5t-151.5 -112.5t-173 -68.5t-185 -23.5q-133 0 -265.5 49t-236.5 141t-170 227.5t-66 307.5z" />
<glyph unicode="h" horiz-adv-x="1611" d="M164 0v1434h256v-588h772v588h256v-1434h-256v596h-772v-596h-256z" />
<glyph unicode="i" horiz-adv-x="581" d="M164 0v1434h254v-1434h-254z" />
<glyph unicode="j" horiz-adv-x="1218" d="M31 545h248q0 -61 20 -117.5t55 -100.5t82 -71t105 -27q121 0 194.5 85t73.5 249v621h-174v250h430v-869q0 -141 -38 -249.5t-106.5 -182.5t-165 -112.5t-214.5 -38.5q-80 0 -170 33.5t-166 102t-125 175t-49 252.5z" />
<glyph unicode="k" horiz-adv-x="1370" d="M164 0v1434h256v-1434h-256zM422 772l471 662h313l-477 -641l641 -793h-319z" />
<glyph unicode="l" horiz-adv-x="1087" d="M164 0v1434h256v-1184h616v-250h-872z" />
<glyph unicode="m" horiz-adv-x="1775" d="M164 0v1434h223l500 -1026q70 127 131 256t121.5 258t122 258t129.5 254h221v-1434h-246v860l-418 -860h-121l-419 858v-858h-244z" />
<glyph unicode="n" horiz-adv-x="1607" d="M164 0v1434l164 -2l870 -971v973h246v-1434h-160l-874 967v-967h-246z" />
<glyph unicode="o" horiz-adv-x="1579" d="M61 723q0 170 64.5 305t168 229.5t233.5 144.5t264 50q137 0 268 -50t233.5 -144.5t164 -229.5t61.5 -305q0 -172 -61.5 -310.5t-164 -233.5t-233.5 -146t-268 -51q-133 0 -263.5 51t-234 146t-168 233.5t-64.5 310.5zM317 723q0 -104 39 -195.5t104.5 -157t150.5 -103.5 t180 -38q90 0 175 38t150.5 103.5t105.5 156.5t40 196q0 111 -40 200t-105.5 151.5t-150.5 96t-175 33.5q-94 0 -179.5 -33.5t-151 -96t-104.5 -151.5t-39 -200z" />
<glyph unicode="p" horiz-adv-x="1378" d="M164 0v1434h661q119 0 214.5 -39t162 -106.5t101 -159t34.5 -197.5q0 -104 -34.5 -196.5t-100 -160t-158.5 -106.5q-89 -37 -199 -37h-11h-414v-432h-256zM420 680h401q53 0 101.5 12.5t84 41t56 77.5t20.5 121q0 49 -17 94t-51 81t-82 56.5t-108 20.5h-405v-504z" />
<glyph unicode="q" horiz-adv-x="1558" d="M61 723q0 170 64.5 305t168 229.5t233.5 144.5t264 50q137 0 268 -50t233.5 -144.5t164 -229.5t61.5 -305q0 -147 -44 -268t-122 -213q45 0 88 1t76 1v-244h-560q-41 -10 -82.5 -14t-82.5 -4q-133 0 -263.5 51t-234 146t-168 233.5t-64.5 310.5zM317 723 q0 -104 39 -195.5t104.5 -157t150.5 -103.5t180 -38q90 0 175 38t150.5 103.5t105.5 156.5t40 196q0 111 -40 200t-105.5 151.5t-150.5 96t-175 33.5q-94 0 -179.5 -33.5t-151 -96t-104.5 -151.5t-39 -200z" />
<glyph unicode="r" horiz-adv-x="1449" d="M164 0v1434h661q119 0 214.5 -39t162 -106.5t101 -159t34.5 -197.5q0 -98 -28.5 -179t-79.5 -140.5t-120 -95.5t-148 -44l509 -473h-333l-510 471h-207v-471h-256zM420 700h401q53 0 101.5 9.5t84 36t56 70.5t20.5 116q0 49 -17 94t-51 81t-82 56.5t-108 20.5h-405v-484z " />
<glyph unicode="s" horiz-adv-x="1333" d="M29 225l172 181q57 -49 119.5 -83t124 -55.5t115.5 -31t95 -9.5q86 0 150.5 17.5t106.5 45t63.5 60.5t21.5 64q0 49 -36.5 81.5t-92 57.5t-119 43t-116.5 37q-96 31 -188.5 67.5t-164 88t-114.5 119t-43 159.5q0 68 31.5 136.5t96 123.5t165 90t237.5 35q80 0 161 -19.5 t153.5 -50t130 -66.5t92.5 -67l-158 -170q-29 20 -69.5 44t-90 45.5t-105.5 36t-114 14.5q-82 0 -135 -14.5t-84 -37t-43 -48t-12 -50.5q0 -37 35 -66.5t86 -53t109.5 -43t107.5 -36.5q104 -35 200.5 -71.5t171 -88t119.5 -122t45 -174.5q0 -90 -42 -168t-119.5 -136.5 t-188.5 -92t-248 -33.5q-143 0 -309 55t-317 186z" />
<glyph unicode="t" horiz-adv-x="1341" d="M51 1184v250h1239v-250h-489v-1184h-256v1184h-494z" />
<glyph unicode="u" horiz-adv-x="1564" d="M154 623v811h258v-816q0 -94 30.5 -166.5t81.5 -121.5t118 -75t140 -26q80 0 148.5 31t119 84t78 125t27.5 152v813h256v-813q0 -147 -51 -266t-138 -202t-202 -127t-240 -44t-238.5 45t-199.5 128t-137 201.5t-51 266.5z" />
<glyph unicode="v" horiz-adv-x="1466" d="M20 1434h269l444 -990l441 990h272l-643 -1434h-141z" />
<glyph unicode="w" horiz-adv-x="1972" d="M20 1434h265l288 -932l304 932h208l297 -932l301 932h269l-477 -1434h-195l-301 952l-320 -952h-194z" />
<glyph unicode="x" horiz-adv-x="1376" d="M31 0l495 801q-43 72 -94 153.5t-102 165.5t-101.5 165t-91.5 149h293l256 -408l234 408h294l-374 -633q57 -90 122.5 -193.5t132 -209t131 -208t120.5 -190.5h-299l-363 567q-92 -145 -182 -285.5t-180 -281.5h-291z" />
<glyph unicode="y" horiz-adv-x="1316" d="M10 1434h301l346 -521l351 521h299l-521 -768v-666h-258v674z" />
<glyph unicode="z" horiz-adv-x="1361" d="M82 0v174l792 1010h-677v250h1054v-174l-788 -1010h827v-250h-1208z" />
<glyph unicode="&#xa8;" horiz-adv-x="1705" />
<glyph unicode="&#xad;" horiz-adv-x="587" d="M4 606v256h580v-256h-580z" />
<glyph unicode="&#xbc;" horiz-adv-x="1525" d="M57 1182v114l267 138h122v-717h-204v465h-185zM143 0l932 1434h223l-931 -1434h-224zM741 143v82l377 512h123v-461h135v-133h-135v-143h-174v143h-326zM954 276h113v160z" />
<glyph unicode="&#xbd;" horiz-adv-x="1628" d="M57 1182v114l267 138h122v-717h-204v465h-185zM117 -2l932 1434h223l-932 -1434h-223zM866 664q66 53 137.5 82.5t124.5 29.5q66 0 116 -22.5t84 -60.5t51.5 -88t17.5 -105q0 -49 -22.5 -95.5t-55.5 -86t-70 -73.5t-63 -61h248v-184h-553v125q18 18 42.5 45t45.5 43 q41 39 81 76t70.5 71.5t50 69.5t19.5 70q0 27 -20.5 50t-59.5 23q-68 0 -156 -81z" />
<glyph unicode="&#xbe;" horiz-adv-x="1380" d="M25 778l120 123q12 -16 42 -35.5t81 -19.5q39 0 70 24.5t31 67.5q0 41 -31 68.5t-74 27.5q-23 0 -43 -5t-37 -11v102l119 152h-233v164h471v-103l-123 -174q72 -29 111.5 -89t39.5 -132q0 -59 -24.5 -106.5t-64.5 -82t-94 -53t-112 -18.5q-72 0 -135 24.5t-114 75.5z M131 0l932 1434h203l-932 -1434h-203zM680 143v82l377 512h123v-461h135v-133h-135v-143h-174v143h-326zM893 276h113v160z" />
<glyph unicode="&#xc4;" horiz-adv-x="1427" d="M4 0l506 1184h-164v250h467l614 -1434h-268l-135 313h-616l-136 -313h-268zM281 1708q0 68 46 115t111 47q68 0 115 -47t47 -115q0 -66 -47 -112t-115 -46q-66 0 -111.5 46t-45.5 112zM512 563h406l-203 498zM727 1708q0 68 46 115t112 47q68 0 115 -47t47 -115 q0 -66 -47.5 -112t-114.5 -46q-66 0 -112 46t-46 112z" />
<glyph unicode="&#xc5;" d="M4 0l506 1184h-164v250h467l614 -1434h-268l-135 313h-616l-136 -313h-268zM449 1597q0 51 18 95.5t51 77t77 52t95 19.5t95 -19.5t77 -52t52.5 -76.5t19.5 -96q0 -51 -19.5 -95t-52.5 -76.5t-77 -51t-95 -18.5t-95 18.5t-77 51t-51 76.5t-18 95zM512 563h406l-203 498z M633 1595q0 -25 16.5 -41t40.5 -16q23 0 40.5 16.5t17.5 40.5q0 23 -17.5 40.5t-40.5 17.5q-25 0 -41 -17.5t-16 -40.5z" />
<glyph unicode="&#xd6;" horiz-adv-x="1579" d="M61 721q0 170 64.5 305t168 229.5t233.5 144.5t264 50q137 0 268 -50t233.5 -144.5t164 -229.5t61.5 -305q0 -172 -61.5 -310.5t-164 -233.5t-233.5 -146t-268 -51q-133 0 -263.5 51t-234 146t-168 233.5t-64.5 310.5zM317 721q0 -104 39 -195.5t104.5 -157t150.5 -103.5 t180 -38q90 0 175 38t150.5 103.5t105.5 156.5t40 196q0 111 -40 200t-105.5 151.5t-150.5 96t-175 33.5q-94 0 -179.5 -33.5t-151 -96t-104.5 -152t-39 -199.5zM408 1708q0 68 46 115t111 47q68 0 115 -47t47 -115q0 -66 -47 -112t-115 -46q-66 0 -111.5 46t-45.5 112z M854 1708q0 68 46 115t112 47q68 0 115 -47t47 -115q0 -66 -47.5 -112t-114.5 -46q-66 0 -112 46t-46 112z" />
<glyph unicode="&#xe4;" d="M0 0l506 1184h-164v250h467l614 -1434h-268l-135 313h-617l-135 -313h-268zM281 1708q0 68 46 115t111 47q68 0 115 -47t47 -115q0 -66 -47 -112t-115 -46q-66 0 -111.5 46t-45.5 112zM508 563h405l-202 498zM727 1708q0 68 46 115t112 47q68 0 115 -47t47 -115 q0 -66 -47.5 -112t-114.5 -46q-66 0 -112 46t-46 112z" />
<glyph unicode="&#xe5;" d="M0 0l506 1184h-164v250h467l614 -1434h-268l-135 313h-617l-135 -313h-268zM449 1597q0 51 18 95.5t51 77t77 52t95 19.5t95 -19.5t77 -52t52.5 -76.5t19.5 -96q0 -51 -19.5 -95t-52.5 -76.5t-77 -51t-95 -18.5t-95 18.5t-77 51t-51 76.5t-18 95zM508 563h405l-202 498z M633 1595q0 -25 16.5 -41t40.5 -16q23 0 40.5 16.5t17.5 40.5q0 23 -17.5 40.5t-40.5 17.5q-25 0 -41 -17.5t-16 -40.5z" />
<glyph unicode="&#xf6;" horiz-adv-x="1579" d="M61 723q0 170 64.5 305t168 229.5t233.5 144.5t264 50q137 0 268 -50t233.5 -144.5t164 -229.5t61.5 -305q0 -172 -61.5 -310.5t-164 -233.5t-233.5 -146t-268 -51q-133 0 -263.5 51t-234 146t-168 233.5t-64.5 310.5zM317 723q0 -104 39 -195.5t104.5 -157t150.5 -103.5 t180 -38q90 0 175 38t150.5 103.5t105.5 156.5t40 196q0 111 -40 200t-105.5 151.5t-150.5 96t-175 33.5q-94 0 -179.5 -33.5t-151 -96t-104.5 -151.5t-39 -200zM408 1708q0 68 46 115t111 47q68 0 115 -47t47 -115q0 -66 -47 -112t-115 -46q-66 0 -111.5 46t-45.5 112z M854 1708q0 68 46 115t112 47q68 0 115 -47t47 -115q0 -66 -47.5 -112t-114.5 -46q-66 0 -112 46t-46 112z" />
<glyph unicode="&#x2000;" horiz-adv-x="935" />
<glyph unicode="&#x2001;" horiz-adv-x="1870" />
<glyph unicode="&#x2002;" horiz-adv-x="935" />
<glyph unicode="&#x2003;" horiz-adv-x="1870" />
<glyph unicode="&#x2004;" horiz-adv-x="623" />
<glyph unicode="&#x2005;" horiz-adv-x="467" />
<glyph unicode="&#x2006;" horiz-adv-x="311" />
<glyph unicode="&#x2007;" horiz-adv-x="311" />
<glyph unicode="&#x2008;" horiz-adv-x="233" />
<glyph unicode="&#x2009;" horiz-adv-x="374" />
<glyph unicode="&#x200a;" horiz-adv-x="103" />
<glyph unicode="&#x2010;" horiz-adv-x="587" d="M4 606v256h580v-256h-580z" />
<glyph unicode="&#x2011;" horiz-adv-x="587" d="M4 606v256h580v-256h-580z" />
<glyph unicode="&#x2012;" horiz-adv-x="587" d="M4 606v256h580v-256h-580z" />
<glyph unicode="&#x2013;" horiz-adv-x="1003" d="M0 553v256h1004v-256h-1004z" />
<glyph unicode="&#x2014;" horiz-adv-x="1617" d="M0 553v256h1618v-256h-1618z" />
<glyph unicode="&#x202f;" horiz-adv-x="374" />
<glyph unicode="&#x205f;" horiz-adv-x="467" />
<glyph unicode="&#x25fc;" horiz-adv-x="1433" d="M0 0v1434h1434v-1434h-1434z" />
</font>
</defs>
</svg>
