<?xml version="1.0" standalone="no"?>
<!DOCTYPE svg PUBLIC "-//W3C//DTD SVG 1.1//EN" "http://www.w3.org/Graphics/SVG/1.1/DTD/svg11.dtd" >
<svg xmlns="http://www.w3.org/2000/svg">
<metadata></metadata>
<defs>
<font id="signeregular" horiz-adv-x="587" >
<font-face units-per-em="2048" ascent="1536" descent="-512" />
<missing-glyph horiz-adv-x="552" />
<glyph horiz-adv-x="0" />
<glyph unicode="&#xd;" horiz-adv-x="681" />
<glyph horiz-adv-x="0" />
<glyph horiz-adv-x="0" />
<glyph unicode=" "  horiz-adv-x="552" />
<glyph unicode="&#x09;" horiz-adv-x="552" />
<glyph unicode="&#xa0;" horiz-adv-x="552" />
<glyph unicode="!" horiz-adv-x="702" d="M137 500l37 172v590l-37 172h432l-37 -172v-590l37 -172h-432zM164 166q0 39 14.5 73.5t40 60.5t59 40t72.5 14t74 -14t60.5 -40t40 -60.5t14.5 -73.5t-14.5 -73t-40 -59.5t-60.5 -39.5t-74 -14q-78 0 -132 54t-54 132z" />
<glyph unicode="&#x22;" horiz-adv-x="770" d="M49 987v467h336zM430 987v467h336z" />
<glyph unicode="#" horiz-adv-x="1544" d="M72 379v256h354l53 194h-286v256h356l92 349h172l-92 -349h319l93 349h172l-93 -349h218v-256h-285l-55 -194h217l8 -256h-293l-100 -379h-172l100 379h-320l-100 -379h-172l100 379h-286zM598 635h320l53 194h-320z" />
<glyph unicode="'" horiz-adv-x="497" d="M49 987v467h336z" />
<glyph unicode="(" horiz-adv-x="749" d="M82 702q0 170 45 332t125 297t191.5 231.5t244.5 135.5v-248q-94 -47 -160.5 -128t-108.5 -181.5t-61.5 -214t-19.5 -224.5q0 -104 19.5 -218.5t61.5 -219t108.5 -190.5t160.5 -131v-248q-133 39 -244.5 136t-191.5 233.5t-125 301t-45 336.5z" />
<glyph unicode=")" horiz-adv-x="749" d="M61 -57q94 45 161 131t109 190.5t61.5 219t19.5 218.5q0 111 -19.5 224.5t-61.5 214t-108.5 181.5t-161.5 128v248q133 -39 245 -135.5t192 -231.5t125 -297t45 -332q0 -172 -45 -336.5t-125 -301t-191.5 -233.5t-245.5 -136v248z" />
<glyph unicode="+" horiz-adv-x="811" d="M41 553v123h299v293h123v-293h289v-123h-289v-295h-123v295h-299z" />
<glyph unicode="," horiz-adv-x="503" d="M152 -172v528h315l-240 -528h-75z" />
<glyph unicode="-" d="M41 553v123h506v-123h-506z" />
<glyph unicode="." horiz-adv-x="471" d="M49 166q0 39 14.5 73.5t40 60.5t59.5 40t73 14t73.5 -14t60 -40t40 -60.5t14.5 -73.5t-14.5 -73t-40 -59.5t-60.5 -39.5t-73 -14q-78 0 -132.5 54t-54.5 132z" />
<glyph unicode="/" horiz-adv-x="1216" d="M-2 -164l963 1761h253l-946 -1761h-270z" />
<glyph unicode="0" horiz-adv-x="1396" d="M82 719q0 135 30.5 267t103.5 236.5t190.5 168t291.5 63.5q190 0 310 -63.5t189 -168t93.5 -236.5t24.5 -267q0 -143 -27.5 -276.5t-97.5 -237t-190 -164.5t-302 -61q-166 0 -283.5 58t-191 159.5t-107.5 235.5t-34 286zM414 715q0 -78 15 -183.5t54 -200.5t106.5 -162 t170.5 -67q63 0 106 60.5t70 153t37 201t10 202.5q0 78 -15.5 183.5t-54.5 200.5t-106.5 161.5t-169.5 66.5q-66 0 -108 -60.5t-68.5 -152.5t-36.5 -200.5t-10 -202.5z" />
<glyph unicode="1" horiz-adv-x="884" d="M72 1163l549 271v-1262l141 -172h-641l141 172v866z" />
<glyph unicode="2" horiz-adv-x="1331" d="M84 115q-2 115 40 220t107.5 193t145.5 152.5t158 99.5q59 27 116.5 64t101.5 79t70.5 89t26.5 96q0 29 -12.5 69t-38 75.5t-65.5 62t-97 26.5t-92 -12t-70 -35l-260 -274l-4 270q76 66 182.5 111t253.5 51q121 2 216 -27.5t161 -86t100.5 -137.5t34.5 -179 q0 -80 -23.5 -141.5t-64.5 -110.5t-95 -91t-118 -85q-104 -72 -209.5 -138.5t-188.5 -128t-135.5 -114.5t-52.5 -96l680 143l277 207v-467h-1143z" />
<glyph unicode="3" horiz-adv-x="1286" d="M82 154v313l264 -297q18 -10 44 -19.5t56.5 -15.5t62.5 -9t60 -3q115 2 174.5 65.5t59.5 167.5q0 74 -41 132.5t-102.5 104.5t-132.5 81.5t-130 64.5q176 59 270.5 146.5t94.5 222.5q0 29 -8.5 69t-28.5 75.5t-53 62t-82 26.5q-57 2 -87 -19.5t-34 -27.5l-264 -274v270 q37 33 75.5 61.5t85 50t103.5 34t131 16.5q113 2 207 -27.5t161.5 -82t105.5 -124t38 -155.5q0 -53 -19.5 -102.5t-47 -90.5t-60.5 -73.5t-59 -51.5q43 -20 84 -51.5t72.5 -71.5t51 -87.5t19.5 -102.5q0 -98 -36 -180t-107.5 -140.5t-179 -90t-250.5 -29.5q-74 2 -147 15 t-138.5 34.5t-120.5 50.5t-92 62z" />
<glyph unicode="4" horiz-adv-x="1474" d="M31 387l444 846l21 201h254l-422 -811l137 -107h289v647l358 271v-918h311v-213l-311 59v-190l141 -172h-641l142 172v215h-723z" />
<glyph unicode="5" horiz-adv-x="1224" d="M102 154v313l265 -297q35 -23 90 -35t112 -12t97.5 23.5t66 62.5t37.5 88t12 100q0 74 -9 136.5t-34.5 108.5t-70.5 71.5t-115 25.5h-430l209 695l678 2v-318l-191 82h-409l-72 -225l137 -107h254q113 0 189.5 -41t125 -100t69 -128t20.5 -126q0 -98 -33 -186 t-100.5 -154.5t-172 -104.5t-247.5 -36q-147 6 -274.5 51t-203.5 111z" />
<glyph unicode="6" horiz-adv-x="1427" d="M113 719q0 135 36.5 267t116.5 236.5t204 169t298 64.5q147 -6 253.5 -51t182.5 -111v-270l-262 281q-2 2 -17.5 9t-38 14t-50 12.5t-56.5 5.5q-72 0 -125 -30t-90 -78t-60.5 -112.5t-36.5 -134t-18.5 -140.5t-5.5 -132q0 -111 20.5 -220.5t63.5 -196.5t107.5 -142.5 t155.5 -55.5q61 0 105 33t73.5 82t43 105.5t13.5 103.5q0 39 -12.5 91t-42 100.5t-80.5 81t-129 32.5q-61 0 -125 -18.5t-116 -42t-86 -45t-36 -27.5q14 29 25 59q10 25 15 53.5t1 51.5q18 12 56.5 27.5t88.5 30t106.5 24.5t111.5 10q152 0 250 -40t156.5 -102.5t82 -137 t23.5 -144.5q0 -49 -30 -126t-99.5 -149.5t-186 -124.5t-290.5 -52q-166 0 -281 58t-184.5 159.5t-100 235.5t-30.5 286z" />
<glyph unicode="7" horiz-adv-x="1175" d="M102 0l183 172l555 836l-70 192h-451l-190 -82v318l1047 -2l-533 -1262l141 -172h-682z" />
<glyph unicode="8" horiz-adv-x="1351" d="M113 412q0 57 19.5 109t51 96.5t72.5 77t84 50.5q-86 37 -126 120t-40 177q0 92 33 168t97.5 131.5t157.5 85t214 27.5q121 2 214 -27.5t157.5 -85t97.5 -131t33 -168.5q0 -94 -40 -177t-126 -120q43 -18 84 -50.5t72.5 -77t51 -96.5t19.5 -109q0 -98 -34 -179 t-103.5 -137.5t-176 -87.5t-249.5 -28q-143 -2 -250 28.5t-176.5 87t-103 137t-33.5 179.5zM442 379q0 -51 15.5 -102.5t45 -92.5t72.5 -67.5t101 -26.5q57 0 100 26.5t73 67.5t45 92.5t15 102.5q0 49 -11 104.5t-37.5 102.5t-72 79.5t-112.5 36.5q-70 -4 -115 -36.5 t-71.5 -79.5t-37 -102.5t-10.5 -104.5zM483 1090q0 -41 9.5 -87.5t32 -85t59.5 -64.5t92 -26t92 26t59.5 64.5t31.5 85t9 87.5q0 37 -11 79.5t-35.5 81.5t-60.5 65.5t-85 26.5q-57 0 -94 -26.5t-58.5 -65.5t-31 -82t-9.5 -79z" />
<glyph unicode="9" horiz-adv-x="1406" d="M113 1004q0 49 26.5 125.5t92 149.5t179 125t287.5 52q166 0 281 -58.5t184.5 -159.5t100 -235.5t30.5 -285.5q0 -135 -36.5 -267.5t-116.5 -236.5t-204 -168.5t-298 -64.5q-147 6 -253.5 51t-182.5 110v271l262 -281q2 -4 17.5 -10t38 -13.5t50 -12.5t56.5 -5 q72 0 125 30t90 78t60.5 112.5t36.5 134t18.5 140t5.5 132.5q0 111 -20.5 220.5t-63.5 196.5t-108.5 142t-154.5 55q-61 0 -102 -32.5t-66.5 -82t-36 -105.5t-10.5 -103q0 -39 12.5 -91.5t42 -100.5t81 -81t129.5 -33q61 0 124.5 18.5t115.5 42t86 45t36 28.5 q-14 -33 -24 -62q-10 -27 -15.5 -53.5t-1.5 -48.5q-18 -12 -56 -27.5t-88 -30t-106.5 -24.5t-111.5 -10q-152 0 -250.5 39.5t-156.5 102t-81.5 137.5t-23.5 145z" />
<glyph unicode=":" horiz-adv-x="481" d="M49 166q0 39 14.5 73.5t40 60.5t59.5 40t73 14t73.5 -14t60 -40t40 -60.5t14.5 -73.5t-14.5 -73t-40 -59.5t-60.5 -39.5t-73 -14q-78 0 -132.5 54t-54.5 132zM49 913q0 39 14.5 74t40 60.5t59.5 40t73 14.5t73.5 -14.5t60 -40t40 -60.5t14.5 -74t-14.5 -72.5t-40 -59 t-60.5 -40t-73 -14.5q-78 0 -132.5 54t-54.5 132z" />
<glyph unicode=";" horiz-adv-x="526" d="M111 913q0 39 14 74t39.5 60.5t59.5 40t73 14.5t74 -14.5t60.5 -40t39.5 -60.5t14 -74t-14 -72.5t-39.5 -59t-60.5 -40t-74 -14.5q-78 0 -132 54t-54 132zM152 -172v528h315l-240 -528h-75z" />
<glyph unicode="=" d="M41 430v123h506v-125zM41 655v123h506v-125z" />
<glyph unicode="?" horiz-adv-x="1052" d="M121 1290q76 66 182.5 111t253.5 51q242 2 356.5 -114.5t114.5 -315.5q0 -78 -35 -136.5t-88 -103.5t-116.5 -80.5t-122 -67.5t-102.5 -63.5t-60 -70.5h-299q14 76 57 135t100.5 110.5t120 94.5t115.5 86t87 87t34 95q0 29 -5 69t-23.5 75.5t-52.5 62t-91 26.5t-92 -12 t-70 -35l-260 -274zM176 166q0 -78 54.5 -132t131.5 -54q39 0 74 14t60.5 39.5t40 59.5t14.5 73t-14.5 73.5t-40 60.5t-60.5 40t-74 14t-72.5 -14t-59 -40t-40 -60.5t-14.5 -73.5z" />
<glyph unicode="A" horiz-adv-x="1425" d="M2 0v4q0 4 2 6l137 226l398 1026l51 163q0 4 2 7q2 2 4 2h229l2 -2q4 -4 4 -7l58 -163l536 -1262h-395l-176 436l-487 2l-99 -241l-22 -197h-244zM422 571h377l-187 465z" />
<glyph unicode="B" horiz-adv-x="1277" d="M123 0l39 172v1090l-37 172h620q84 0 157 -33t127 -88.5t85 -126t31 -146.5q0 -78 -40 -137t-87 -88q68 -27 112 -71t70.5 -95t36.5 -105.5t10 -101.5q0 -84 -30.5 -162.5t-85 -141t-127 -100.5t-156.5 -38h-725zM512 125h233q47 0 80 34t54.5 83t31 104t9.5 96 q0 18 -2.5 57.5t-18.5 80.5t-51 71.5t-103 30.5h-233v-557zM512 803h131q68 0 102.5 27.5t51 64.5t18.5 73t2 54q0 41 -12 91t-36 93t-55.5 73t-70.5 30h-131v-506z" />
<glyph unicode="C" horiz-adv-x="1492" d="M61 719q0 135 47.5 267t138.5 236.5t225 168t308 63.5q121 0 221.5 -27.5t180.5 -77t140 -116t101 -141.5l-372 -142l16 166q-53 92 -143 153.5t-205 61.5q-100 0 -160.5 -60.5t-92.5 -152.5t-41 -199.5t-9 -199.5q0 -111 34.5 -220.5t93 -197.5t135.5 -143.5t163 -55.5 q57 0 97 20.5t68.5 55.5t47 82t35.5 102l-29 99l391 -58q-37 -90 -99.5 -166.5t-146.5 -134t-190.5 -90t-235.5 -32.5q-166 0 -299 58t-226 159.5t-143.5 235.5t-50.5 286z" />
<glyph unicode="D" horiz-adv-x="1486" d="M123 0l39 172v1090l-37 172h582q190 0 326 -60.5t223 -161t128 -229.5t41 -264q0 -143 -44 -273.5t-133 -229.5t-224 -157.5t-317 -58.5h-584zM518 102h250q102 0 162.5 60.5t92.5 153t41 201t9 202.5q0 51 -10 116.5t-30.5 133t-54.5 132t-82 116t-110.5 82t-140.5 30.5 h-127v-1227z" />
<glyph unicode="E" horiz-adv-x="1126" d="M123 0l39 172v1090l-37 172h899v-211l-506 82v-502h277v-213l-277 82v-543l526 82v-211h-921z" />
<glyph unicode="F" horiz-adv-x="1064" d="M123 0l39 172v1090l-37 172h899v-211l-506 82v-502h277v-213l-277 82v-672h-395z" />
<glyph unicode="G" horiz-adv-x="1593" d="M61 719q0 135 47.5 267t138.5 236.5t225 168t308 63.5q121 0 221.5 -27.5t180.5 -77t140 -116t101 -141.5l-372 -142l16 166q-53 92 -143 153.5t-205 61.5q-100 0 -160.5 -60.5t-92.5 -152.5t-41 -199.5t-9 -199.5q0 -111 34.5 -220.5t93 -197.5t135.5 -143.5t163 -55.5 q70 0 113.5 29t73.5 77t48.5 111.5t36.5 133.5v116l-424 -82v213h780v-247q-33 -98 -93 -184.5t-147 -151t-199.5 -101t-250.5 -36.5q-166 0 -299 58t-226 159.5t-143.5 235.5t-50.5 286z" />
<glyph unicode="H" horiz-adv-x="1593" d="M123 0l39 172v1090l-37 172h393v-652h557v652h393l-36 -172v-1090l38 -172h-397v653h-553v-653h-397z" />
<glyph unicode="I" horiz-adv-x="681" d="M123 0l39 172v1090l-37 172h432l-37 -172v-1090l39 -172h-436z" />
<glyph unicode="J" horiz-adv-x="1175" d="M31 365q0 74 20.5 139t56 112.5t80.5 75t95 27.5q35 0 72.5 -9.5t68.5 -30t50.5 -52t19.5 -74.5q0 -8 -2 -14q-4 -14 -15 -15q-51 -10 -90 -32q-35 -18 -62.5 -50t-27.5 -80q0 -45 10 -91t34 -83.5t60.5 -61.5t92.5 -24q59 0 94 40t52 106.5t22.5 150.5t5.5 172v691 l-37 172h432l-37 -168v-693q0 -123 -31.5 -231.5t-98.5 -188t-166 -126.5t-234 -47q-123 0 -211 31.5t-144.5 86t-83 124t-26.5 143.5z" />
<glyph unicode="K" horiz-adv-x="1370" d="M123 0l39 172v1090l-37 172h383v-623l450 477l19 146h266l-581 -617l434 -178l274 -639h-375l-276 655l-211 97v-752h-385z" />
<glyph unicode="L" horiz-adv-x="1095" d="M123 0l39 172v1090l-37 172h430l-37 -172v-1133l526 82v-211h-921z" />
<glyph unicode="M" horiz-adv-x="1691" d="M123 0l39 172v1090l-37 172h385l342 -985l330 985h385l-37 -172v-1090l39 -172h-387v1010l-328 -910l111 -100h-443l109 100l-346 910v-1010h-162z" />
<glyph unicode="N" horiz-adv-x="1609" d="M123 0l45 172v1090l-43 172h154v-2l1042 -977v979h164l-43 -172v-1090l45 -172h-152l-1042 946v-946h-170z" />
<glyph unicode="O" horiz-adv-x="1560" d="M61 719q0 135 47.5 267t138.5 236.5t225 168t308 63.5q190 0 326.5 -63.5t223.5 -168t128 -236.5t41 -267q0 -143 -44 -276.5t-133 -237t-224.5 -164.5t-317.5 -61q-166 0 -299 58t-226 159.5t-143.5 235.5t-50.5 286zM416 719q0 -111 34.5 -220.5t93 -197.5 t135.5 -143.5t163 -55.5q102 0 162.5 60.5t92 153t41 201t9.5 202.5q0 78 -22.5 183.5t-74 200.5t-132 161.5t-199.5 66.5q-100 0 -160.5 -60.5t-92.5 -152.5t-41 -199.5t-9 -199.5z" />
<glyph unicode="P" horiz-adv-x="1339" d="M123 0l39 172v1090l-37 172h342h432q84 0 156.5 -32t127 -86t85 -128t30.5 -156t-30.5 -153.5t-81.5 -124t-119 -80.5q-56 -24 -114 -24q-12 0 -25 1l-416 -2v-649h-389zM512 772h264q68 0 102.5 33t51 75t18.5 83t2 59q0 41 -12 91t-35.5 93t-55.5 73t-71 30h-264v-537z " />
<glyph unicode="Q" horiz-adv-x="1499" d="M61 719q0 135 47.5 267t138.5 236.5t225 168t308 63.5q190 0 326.5 -63.5t223.5 -168t128 -236.5t41 -267t-39 -261t-117.5 -226.5t-197.5 -167t-281 -80.5l465 -336h-549v332q-166 0 -299 58t-226 159.5t-143.5 235.5t-50.5 286zM416 719q0 -111 34.5 -220.5t93 -197.5 t135.5 -143.5t163 -55.5q102 0 162.5 60.5t92 153t41 201t9.5 202.5q0 78 -22.5 183.5t-74 200.5t-132 161.5t-199.5 66.5q-100 0 -160.5 -60.5t-92.5 -152.5t-41 -199.5t-9 -199.5z" />
<glyph unicode="R" horiz-adv-x="1353" d="M123 0l39 172v1090l-37 172h342h432q84 0 156.5 -32t127 -86t85 -128t30.5 -156t-30.5 -151.5t-81.5 -120.5t-119 -80t-139 -29h-168l379 -104l235 -547h-375l-256 551l-231 98v-649h-389zM512 772h264q68 0 102.5 33t51 75t18.5 83t2 59q0 41 -12 91t-35.5 93t-55.5 73 t-71 30h-264v-537z" />
<glyph unicode="S" horiz-adv-x="1261" d="M92 473l268 -289q49 -35 116 -56.5t157 -21.5q63 0 109 20.5t77 51.5t45.5 66t14.5 63q0 45 -39 84t-97.5 71t-125 59.5t-121.5 51.5q-68 31 -136.5 74t-123 100.5t-89 126t-34.5 148.5q0 98 34.5 179t100.5 137q64 56 160 86q89 28 202 28h15q74 -4 146.5 -16.5t138 -34 t120.5 -50t92 -61.5l-4 -270l-260 274q-18 10 -44 19.5t-56.5 15.5t-62 9t-60.5 3q-57 0 -97 -26.5t-66 -62t-38 -75.5t-12 -69q0 -49 40 -90t99.5 -76t129 -64.5t128.5 -56.5q76 -35 144.5 -79t118.5 -99q52 -55 80 -121q27 -61 26 -131v-10q-2 -86 -43 -158.5t-115 -126 t-176 -84t-227 -32.5q-115 0 -248 30.5t-275 120.5z" />
<glyph unicode="T" horiz-adv-x="1239" d="M0 1221v213h1239v-213l-440 71v-1120l39 -172h-437l39 172v1120z" />
<glyph unicode="U" horiz-adv-x="1529" d="M123 1434h422l-37 -172v-770q0 -86 17.5 -157t52 -123t87 -81t121.5 -29q121 0 194 90.5t73 296.5v773l-37 172h422l-37 -172v-770q0 -123 -45 -218.5t-127 -161t-194.5 -99t-248.5 -33.5q-123 0 -236.5 30.5t-200.5 93t-138 158.5t-51 227v773z" />
<glyph unicode="V" horiz-adv-x="1447" d="M20 1434h414l412 -1065l303 868l22 197h256l-149 -236l-440 -1198h-211z" />
<glyph unicode="W" horiz-adv-x="2107" d="M20 1434h414l371 -1065l158 452l-242 613h665l-149 -236l-10 -29l278 -800l303 868l23 197h256l-150 -236l-440 -1198h-211l-254 641l-235 -641h-211z" />
<glyph unicode="X" horiz-adv-x="1466" d="M31 0l536 694l-475 740h434l351 -586l239 385l21 201h254l-435 -697l480 -737h-424l-361 586l-278 -361l-31 -225h-311z" />
<glyph unicode="Y" horiz-adv-x="1286" d="M10 1434h393l353 -750l241 520l23 230h256l-150 -236l-307 -686v-340l39 -172h-436l39 172v340z" />
<glyph unicode="Z" horiz-adv-x="1261" d="M82 0l663 1296l-557 -67v203l983 2l-626 -1301l645 80v-213h-1108z" />
<glyph unicode="a" horiz-adv-x="1187" d="M43 328q0 125 54.5 204.5t147.5 120.5t220 45q18 1 37 0q111 0 235 -20q-6 63 -17 116.5t-32.5 92.5t-57.5 60.5t-91 21.5q-43 0 -84 -7.5t-73 -16.5t-52.5 -18t-22.5 -12l-166 -200v229q76 51 179.5 93t236.5 48q160 0 259 -42t156.5 -115.5t78 -174t20.5 -216.5v-314 l74 -223h-389v119q-53 -63 -123 -101t-180 -38q-129 0 -209 38.5t-124 94t-60.5 115t-16.5 100.5zM360 326q0 -39 10.5 -79t32 -72t54 -51.5t80.5 -19.5q31 0 69.5 18.5t72.5 63.5t56.5 118t22.5 183v48t-2 47q-39 3 -74 3q-144 -1 -224 -53q-98 -66 -98 -206z" />
<glyph unicode="b" horiz-adv-x="1263" d="M41 0l74 223v1059l-37 172h391l-37 -172v-344q14 16 43 38.5t67 42t87 33t104 13.5q129 0 225.5 -43t161 -117t96 -170t31.5 -200q0 -113 -34.5 -214.5t-103.5 -177t-168 -119.5t-228 -44q-80 0 -165 37.5t-138 101.5v-119h-369zM432 238q20 -39 51 -67t66 -46.5 t70.5 -27.5t66.5 -9q70 0 120 37t84 99.5t50 143.5t16 167q0 78 -20.5 151.5t-59 129.5t-96 91t-129.5 35q-39 0 -75.5 -15.5t-66.5 -39t-50.5 -49t-26.5 -43.5v-557z" />
<glyph unicode="c" horiz-adv-x="1300" d="M51 535q0 104 33 203.5t101.5 176t177 123.5t260.5 47q94 0 181 -27.5t159.5 -73.5t130 -108.5t94.5 -132.5l-332 -141l59 270q-39 35 -111.5 63t-156.5 28q-61 0 -113.5 -32t-90 -89.5t-58 -136t-20.5 -170.5q0 -111 24.5 -192t67.5 -134t102 -80t129 -27 q57 0 101.5 20.5t77 55.5t55 82t39.5 102l280 -24q-37 -66 -86 -130.5t-117.5 -115.5t-159 -81.5t-210.5 -30.5q-135 0 -249 41.5t-196 115.5t-127 175.5t-45 222.5z" />
<glyph unicode="d" horiz-adv-x="1290" d="M47 535q0 104 32 200t96.5 170t160.5 117t225 43q55 0 104.5 -13.5t87.5 -33t65.5 -42t43.5 -38.5v344l-37 172h392l-37 -172v-1059l73 -223h-368v119q-53 -63 -138 -101t-165 -38q-129 0 -228.5 44t-168 119.5t-103.5 177t-35 214.5zM338 535q0 -86 16.5 -167t50 -143.5 t83.5 -99.5t120 -37q31 0 67 9t70.5 27.5t65.5 46.5t51 67v557q-6 18 -26.5 43.5t-50 49t-66.5 39t-76 15.5q-72 0 -129 -35t-96 -91t-59.5 -130t-20.5 -151z" />
<glyph unicode="e" horiz-adv-x="1288" d="M49 535q0 104 33 203.5t103.5 176t179 123.5t260.5 47q113 0 206 -30.5t164.5 -81.5t125 -115.5t85.5 -134.5l-293 -203l-782 -57l231 102l273 101l276 82q-10 37 -35.5 75.5t-62.5 69.5t-84 50.5t-104 19.5q-61 0 -110.5 -32t-83.5 -89.5t-51.5 -136t-17.5 -170.5 q0 -111 25 -192t68 -134t102 -80t129 -27q57 0 101 20.5t77 55.5t55.5 82t38.5 102h295q-37 -74 -89 -142t-122.5 -122.5t-163 -86t-212.5 -31.5q-135 0 -249 41.5t-196 115.5t-127 175.5t-45 222.5z" />
<glyph unicode="f" horiz-adv-x="798" d="M61 854v211h144q0 106 25.5 178t84 114t151.5 59.5t228 17.5l2 -123q-59 0 -94 -5.5t-52.5 -29t-22.5 -72.5t-5 -137v-2h250v-211l-250 47v-729l39 -172h-395l39 172v705z" />
<glyph unicode="g" horiz-adv-x="1298" d="M41 530q0 113 35 214.5t100.5 177t161.5 119.5t217 44q80 0 167 -40.5t157 -118.5v139h368l-73 -223v-715q0 -123 -27 -224.5t-90.5 -175t-170 -113.5t-263.5 -40q-174 0 -308.5 60.5t-212.5 150.5l328 141l-39 -194q31 -16 80 -25.5t109 -9.5q70 0 121 35t85.5 93 t52 136t17.5 166q-16 -16 -44 -38.5t-65.5 -42t-87 -33t-104.5 -13.5q-129 0 -225.5 43t-161 116.5t-96 170t-31.5 200.5zM332 530q0 -78 20.5 -151.5t59.5 -129.5t96 -91t129 -35q39 0 76 15.5t66.5 39t50 49t26.5 43.5v557q-41 68 -106.5 106t-126.5 38q-70 0 -124.5 -36 t-91 -97.5t-56 -141.5t-19.5 -166z" />
<glyph unicode="h" horiz-adv-x="1259" d="M104 0l39 172v1110l-37 172h392l-37 -172v-381q29 29 75 60.5t101 59.5t112.5 46t106.5 18q176 0 243.5 -103t67.5 -308v-502l43 -172h-393l39 172v506q0 127 -27.5 178t-109.5 51q-37 0 -75 -14t-71.5 -35.5t-62.5 -46.5t-49 -43v-596l39 -172h-396z" />
<glyph unicode="i" horiz-adv-x="559" d="M82 0l39 172v721l-37 172h391l-37 -172v-721l39 -172h-395zM121 1280q0 66 44 110t109 44q66 0 110 -44t44 -110t-44 -110t-110 -44t-109.5 44t-43.5 110z" />
<glyph unicode="j" horiz-adv-x="555" d="M0 -365q59 0 94 14.5t52.5 50.5t22.5 94.5t5 146.5v2v950l-39 172h395l-38 -172v-950q0 -109 -26 -179.5t-84 -112.5t-151.5 -59.5t-228.5 -17.5zM170 1280q0 66 44 110t110 44t109.5 -44t43.5 -110t-44 -110t-109 -44q-66 0 -110 44t-44 110z" />
<glyph unicode="k" horiz-adv-x="1132" d="M82 0l39 172v1110l-37 172h391l-37 -172v-645l264 281l19 145h266l-405 -430l434 -178l98 -455h-321l-97 442l-258 119v-389l39 -172h-395z" />
<glyph unicode="l" horiz-adv-x="559" d="M82 0l39 172v1110l-37 172h391l-37 -172v-1110l39 -172h-395z" />
<glyph unicode="m" horiz-adv-x="1683" d="M72 0l39 172v721l-39 172h354v-164q12 29 41 60.5t67.5 59.5t86 46t96.5 18q102 0 160.5 -45t85.5 -135q20 27 54 58.5t76 59.5t89 45t96 17q80 0 132 -25.5t83 -77.5t43 -129t12 -179v-502l43 -172h-393l39 172v506q0 127 -33 178t-84 51q-35 0 -75.5 -30.5t-63.5 -69.5 q6 -59 6 -133v-502l43 -172h-393l39 172v506q0 127 -33 178t-84 51q-23 0 -44 -13t-39.5 -33.5t-32 -45t-17.5 -47.5v-596l39 -172h-393z" />
<glyph unicode="n" horiz-adv-x="1269" d="M68 0l38 172v721l-38 172h354v-164q29 29 75 60.5t101 59.5t112.5 46t106.5 18q176 0 243.5 -103t67.5 -308v-502l43 -172h-393l39 172v506q0 127 -27.5 178t-109.5 51q-37 0 -75 -14t-71.5 -35.5t-62.5 -46.5t-49 -43v-596l39 -172h-393z" />
<glyph unicode="o" horiz-adv-x="1335" d="M51 535q0 104 34 203.5t107.5 176t191.5 123.5t284 47q160 0 276.5 -47t191 -123.5t111.5 -176t37 -203.5q0 -113 -39 -214.5t-116.5 -177t-193 -119.5t-267.5 -44q-143 0 -258 41.5t-195 115.5t-122 175.5t-42 222.5zM365 535q0 -111 30.5 -192t81.5 -134t116.5 -80 t135.5 -27q57 0 102.5 32t77 89.5t48 137t16.5 174.5q0 78 -18.5 154.5t-61.5 137t-114 98.5t-173 38q-61 0 -107 -32t-76 -89.5t-44 -136t-14 -170.5z" />
<glyph unicode="p" horiz-adv-x="1339" d="M82 1065h369v-139q70 78 156.5 118.5t166.5 40.5q121 0 216 -44t162 -119.5t101.5 -177t34.5 -214.5q0 -104 -31.5 -200.5t-96 -170t-161 -116.5t-225.5 -43q-55 0 -104 13.5t-87 33t-67 42t-43 38.5v-383l37 -172h-391l37 172v1098zM473 270q6 -18 26.5 -43.5t50.5 -49 t66.5 -39t75.5 -15.5q72 0 129.5 35t96 91t59 130t20.5 151q0 86 -19.5 166t-56 141.5t-90.5 97.5t-124 36q-61 0 -127 -38t-107 -106v-557z" />
<glyph unicode="q" horiz-adv-x="1288" d="M41 530q0 113 35 214.5t100.5 177t161.5 119.5t217 44q80 0 167 -40.5t157 -118.5v139h368l-73 -223v-1098l36 -172h-391l37 172v383q-16 -16 -44 -38.5t-65.5 -42t-87 -33t-104.5 -13.5q-129 0 -225.5 43t-161 116.5t-96 170t-31.5 200.5zM332 530q0 -78 20.5 -151.5 t59.5 -129.5t96 -91t129 -35q39 0 76 15.5t66.5 39t50 49t26.5 43.5v557q-41 68 -106.5 106t-126.5 38q-70 0 -124.5 -36t-91 -97.5t-56 -141.5t-19.5 -166z" />
<glyph unicode="r" horiz-adv-x="868" d="M86 0l39 172v895h336v-166q39 37 86 70t99 58.5t105.5 40.5t104.5 15v-344l-207 154q-57 -20 -107 -59t-81 -68v-596l39 -172h-414z" />
<glyph unicode="s" horiz-adv-x="948" d="M86 741q0 74 29.5 137.5t83 109.5t127 71.5t163.5 25.5q111 -4 205 -38.5t152 -81.5l-2 -224l-217 187q-29 16 -57.5 25.5t-73.5 9.5q-41 0 -71 -12.5t-49.5 -31t-28.5 -41t-9 -42.5q0 -43 32.5 -77t81 -59.5t102.5 -46t99 -39.5q59 -25 111.5 -52t91.5 -64 q38 -37 60 -85q20 -44 20 -101v-11q-2 -72 -36 -131t-93 -101t-140 -65.5t-178 -23.5q-84 0 -184 23.5t-205 88.5l-8 297l221 -227q25 -16 71 -32.5t112 -16.5q96 0 143 34.5t47 75.5q0 31 -34 57.5t-82 50t-102 44t-93 39.5q-51 20 -102.5 50t-93.5 68.5t-67.5 90 t-25.5 118.5z" />
<glyph unicode="t" horiz-adv-x="802" d="M51 854v211h144l317 369v-369h291v-211l-291 47v-473q0 -88 5 -149.5t22.5 -100.5t52.5 -57.5t94 -18.5l-2 -122q-135 0 -228.5 24.5t-151.5 77.5t-83.5 139t-25.5 209v447z" />
<glyph unicode="u" horiz-adv-x="1241" d="M45 1065h393l-39 -172v-506q0 -113 27 -171t111 -58q51 0 94 14t74.5 35.5t54 46.5t35.5 43v596l-39 172h393l-39 -172v-721l39 -172h-354v164q-12 -37 -41 -70t-69 -58.5t-87 -40.5t-96 -15q-88 0 -164 25.5t-131 77.5t-87 129t-32 179v502z" />
<glyph unicode="v" horiz-adv-x="1056" d="M0 1065h352l250 -696l176 499l23 197h256l-150 -236l-313 -829h-150z" />
<glyph unicode="w" horiz-adv-x="1566" d="M18 1065h353l250 -696l81 231l-155 465h528l-137 -217l172 -479l176 499l23 197h256l-150 -236l-313 -829h-150l-178 428l-162 -428h-149z" />
<glyph unicode="x" horiz-adv-x="1042" d="M-2 0l397 516l-352 549h322l241 -393l156 243l16 150h230l-322 -518l356 -547h-315l-248 393l-184 -225l-25 -168h-272z" />
<glyph unicode="y" horiz-adv-x="1075" d="M59 1065h312l209 -696l217 499l22 197h256l-149 -236l-514 -1255l-260 158l210 104l72 205z" />
<glyph unicode="z" horiz-adv-x="888" d="M0 0l514 922l-393 -50v193h770l-506 -926l479 60v-199h-864z" />
<glyph horiz-adv-x="0" />
<glyph unicode="&#xa8;" horiz-adv-x="1705" />
<glyph unicode="&#xad;" d="M41 553v123h506v-123h-506z" />
<glyph unicode="&#xbc;" horiz-adv-x="1110" d="M117 141l233 279l21 201h254l-217 -273l81 -98h3v125l317 250v-375h127v-152l-127 60v-47l141 -111h-600l142 111v30h-375zM256 705v47h737v-47h-737zM309 836l142 131v149l-129 84l487 256v-489l141 -131h-641z" />
<glyph unicode="&#xbd;" horiz-adv-x="856" d="M72 705v47h737v-47h-737zM100 0q-2 45 3.5 88t21.5 85t47 80t84 75q31 20 63.5 34.5t59.5 25.5t43 21.5t16 24.5q0 31 -39 26t-88 -25.5t-95 -48.5t-62 -44l-2 176q43 39 130 68.5t203 34.5q123 2 199 -37t76 -138q0 -41 -25.5 -73.5t-64.5 -61t-84 -55.5t-84 -55.5 t-64.5 -61.5t-25.5 -71l188 122l160 119v-309h-660zM125 836l141 131v149l-129 84l488 256v-489l141 -131h-641z" />
<glyph unicode="&#xbe;" horiz-adv-x="1140" d="M147 141h375v-30l-141 -111h600l-141 111v47l127 -60v152h-127v375l-318 -250v-125h-2l-82 98l217 273h-254l-20 -201zM236 705v47h737v-47h-737zM287 911v205q106 -66 160.5 -82t82.5 -16q33 0 51.5 13t18.5 30q0 18 -18.5 43.5t-87.5 54.5q51 10 93 21.5t42 50.5 q0 33 -28 47t-69 14q-23 0 -50 -6t-55 -16t-52.5 -21.5t-42.5 -21.5v176q53 23 122 40t169 21q70 0 126 -14t96 -41t62.5 -61.5t22.5 -73.5q0 -49 -34 -85t-73 -52q51 -23 82 -59t31 -79q0 -35 -21.5 -67.5t-63.5 -58t-105.5 -41t-147.5 -15.5q-43 2 -88 9.5t-87 19.5 t-77 28.5t-59 36.5z" />
<glyph unicode="&#xc4;" horiz-adv-x="1425" d="M0 0v4q0 4 2 6l137 226l398 1026l51 163q0 4 2 7q2 2 4 2h229l2 -2q4 -4 4 -7l58 -163l536 -1262h-395l-176 436l-487 2l-99 -241l-22 -197h-244zM342 1673q0 66 44 110t110 44t109.5 -44t43.5 -110t-44 -109.5t-109 -43.5q-66 0 -110 43.5t-44 109.5zM420 571h377 l-187 465zM774 1673q0 66 44 110t110 44t109.5 -44t43.5 -110t-44 -109.5t-109 -43.5q-66 0 -110 43.5t-44 109.5z" />
<glyph unicode="&#xc5;" horiz-adv-x="1425" d="M0 0v4q0 4 2 6l137 226l398 1026l51 163q0 4 2 7q2 2 4 2h229l2 -2q4 -4 4 -7l58 -163l536 -1262h-395l-176 436l-487 2l-99 -241l-22 -197h-244zM420 571h377l-187 465zM461 1597q0 51 18.5 95.5t51 77t76.5 52t95 19.5t95.5 -19.5t77 -52t52 -76.5t19.5 -96 q0 -51 -19.5 -95t-52 -76.5t-76.5 -51t-96 -18.5q-51 0 -95 18.5t-76.5 51t-51 76.5t-18.5 95zM623 1595q0 -35 22.5 -57t56.5 -22q35 0 57.5 22.5t22.5 56.5q0 35 -22.5 57.5t-57.5 22.5t-57 -22.5t-22 -57.5z" />
<glyph unicode="&#xd6;" horiz-adv-x="1579" d="M80 719q0 135 47 267t138 236.5t225.5 168t308.5 63.5q190 0 326.5 -63.5t223.5 -168t128 -236.5t41 -267q0 -143 -44 -276.5t-133.5 -237t-224.5 -164.5t-317 -61q-166 0 -299 58t-226.5 159.5t-143.5 235.5t-50 286zM426 1673q0 66 44 110t110 44t109.5 -44t43.5 -110 t-44 -109.5t-109 -43.5q-66 0 -110 43.5t-44 109.5zM434 719q0 -111 35 -220.5t93.5 -197.5t135 -143.5t162.5 -55.5q102 0 162.5 60.5t92.5 153t41 201t9 202.5q0 78 -22.5 183.5t-73.5 200.5t-132 161.5t-200 66.5q-100 0 -160.5 -60.5t-92 -152.5t-41 -199.5t-9.5 -199.5 zM858 1673q0 66 44 110t110 44t109.5 -44t43.5 -110t-44 -109.5t-109 -43.5q-66 0 -110 43.5t-44 109.5z" />
<glyph unicode="&#xd7;" horiz-adv-x="815" d="M92 823l88 88l211 -213l207 207l86 -86l-207 -207l205 -204l-86 -86l-205 202l-209 -207l-86 86l207 209z" />
<glyph unicode="&#xe4;" horiz-adv-x="1179" d="M43 328q0 125 54.5 204.5t147.5 120.5t220 45t272 -20q-6 63 -17 116.5t-32.5 92.5t-57.5 60.5t-91 21.5q-43 0 -84 -7.5t-73 -16.5t-52.5 -18t-22.5 -12l-166 -200v229q76 51 179.5 93t236.5 48q160 0 259 -42t156.5 -115.5t78 -174t20.5 -216.5v-314l74 -223h-389v119 q-53 -63 -123 -101t-180 -38q-129 0 -209 38.5t-124 94t-60.5 115t-16.5 100.5zM205 1280q0 66 44 110t109 44q66 0 110 -44t44 -110t-44 -110t-110 -44t-109.5 44t-43.5 110zM360 326q0 -39 10.5 -79t32 -72t54 -51.5t80.5 -19.5q31 0 69.5 18.5t72.5 63.5t56.5 118 t22.5 183v48t-2 47q-199 16 -297.5 -49.5t-98.5 -206.5zM637 1280q0 66 44 110t110 44t109.5 -44t43.5 -110t-44 -110t-109 -44q-66 0 -110 44t-44 110z" />
<glyph unicode="&#xe5;" horiz-adv-x="1179" d="M43 328q0 125 54.5 204.5t147.5 120.5t220 45t272 -20q-6 63 -17 116.5t-32.5 92.5t-57.5 60.5t-91 21.5q-43 0 -84 -7.5t-73 -16.5t-52.5 -18t-22.5 -12l-166 -200v229q76 51 179.5 93t236.5 48q160 0 259 -42t156.5 -115.5t78 -174t20.5 -216.5v-314l74 -223h-389v119 q-53 -63 -123 -101t-180 -38q-129 0 -209 38.5t-124 94t-60.5 115t-16.5 100.5zM330 1190q0 51 18.5 95t51 77t76.5 52.5t95 19.5t95.5 -19.5t77 -52.5t52 -77t19.5 -95q0 -59 -26.5 -110.5t-71.5 -84.5q-16 -12 -32.5 -13t-35 1t-38 6t-40.5 4q-47 0 -89 -6t-74 23 q-78 67 -78 180zM360 326q0 -39 10.5 -79t32 -72t54 -51.5t80.5 -19.5q31 0 69.5 18.5t72.5 63.5t56.5 118t22.5 183v48t-2 47q-199 16 -297.5 -49.5t-98.5 -206.5zM492 1188q0 -35 22.5 -57.5t56.5 -22.5q35 0 57.5 22.5t22.5 57.5t-22.5 57.5t-57.5 22.5t-57 -22.5 t-22 -57.5z" />
<glyph unicode="&#xf5;" horiz-adv-x="1335" d="M51 535q0 104 34 203.5t107.5 176t191.5 123.5t284 47q160 0 276.5 -47t191 -123.5t111.5 -176t37 -203.5q0 -113 -39 -214.5t-116.5 -177t-193 -119.5t-267.5 -44q-143 0 -258 41.5t-195 115.5t-122 175.5t-42 222.5zM365 535q0 -111 30.5 -192t81.5 -134t116.5 -80 t135.5 -27q57 0 102.5 32t77 89.5t48 137t16.5 174.5q0 78 -18.5 154.5t-61.5 137t-114 98.5t-173 38q-61 0 -107 -32t-76 -89.5t-44 -136t-14 -170.5z" />
<glyph unicode="&#xf6;" horiz-adv-x="1355" d="M61 535q0 104 34 203.5t107.5 176t191.5 123.5t284 47q160 0 276.5 -47t191.5 -123.5t111.5 -176t36.5 -203.5q0 -113 -38.5 -214.5t-116.5 -177t-193.5 -119.5t-267.5 -44q-143 0 -258 41.5t-195 115.5t-122 175.5t-42 222.5zM287 1280q0 66 44 110t109 44q66 0 110 -44 t44 -110t-44 -110t-110 -44t-109.5 44t-43.5 110zM375 535q0 -111 30.5 -192t82 -134t117 -80t134.5 -27q57 0 102.5 32t77 89.5t48 137t16.5 174.5q0 78 -18.5 154.5t-61.5 137t-114 98.5t-173 38q-61 0 -107 -32t-76 -89.5t-44 -136t-14 -170.5zM719 1280q0 66 44 110 t109 44q66 0 110 -44t44 -110t-44 -110t-110 -44t-109.5 44t-43.5 110z" />
<glyph unicode="&#x2000;" horiz-adv-x="920" />
<glyph unicode="&#x2001;" horiz-adv-x="1841" />
<glyph unicode="&#x2002;" horiz-adv-x="920" />
<glyph unicode="&#x2003;" horiz-adv-x="1841" />
<glyph unicode="&#x2004;" horiz-adv-x="613" />
<glyph unicode="&#x2005;" horiz-adv-x="460" />
<glyph unicode="&#x2006;" horiz-adv-x="306" />
<glyph unicode="&#x2007;" horiz-adv-x="306" />
<glyph unicode="&#x2008;" horiz-adv-x="230" />
<glyph unicode="&#x2009;" horiz-adv-x="368" />
<glyph unicode="&#x200a;" horiz-adv-x="102" />
<glyph unicode="&#x2010;" d="M41 553v123h506v-123h-506z" />
<glyph unicode="&#x2011;" d="M41 553v123h506v-123h-506z" />
<glyph unicode="&#x2012;" d="M41 553v123h506v-123h-506z" />
<glyph unicode="&#x2013;" horiz-adv-x="1003" d="M0 553v123h1004v-123h-1004z" />
<glyph unicode="&#x2014;" horiz-adv-x="1617" d="M0 553v123h1618v-123h-1618z" />
<glyph unicode="&#x202f;" horiz-adv-x="368" />
<glyph unicode="&#x205f;" horiz-adv-x="460" />
<glyph unicode="&#x25fc;" horiz-adv-x="1064" d="M0 0v1065h1065v-1065h-1065z" />
</font>
</defs>
</svg>
