<?xml version="1.0" encoding="UTF-8"?>
<svg width="29px" height="23px" viewBox="0 0 29 23" version="1.1" xmlns="http://www.w3.org/2000/svg" xmlns:xlink="http://www.w3.org/1999/xlink">
    <title>Group 6</title>
    <defs>
        <filter id="filter-1">
            <feColorMatrix in="SourceGraphic" type="matrix" values="0 0 0 0 0.000000 0 0 0 0 0.000000 0 0 0 0 0.000000 0 0 0 1.000000 0"></feColorMatrix>
        </filter>
        <filter id="filter-2">
            <feColorMatrix in="SourceGraphic" type="matrix" values="0 0 0 0 0.576471 0 0 0 0 0.325490 0 0 0 0 0.474510 0 0 0 1.000000 0"></feColorMatrix>
        </filter>
    </defs>
    <g id="Symbols" stroke="none" stroke-width="1" fill="none" fill-rule="evenodd">
        <g id="Group-6" transform="translate(-1364.000000, -31.000000)" filter="url(#filter-1)">
            <g transform="translate(1364.000000, 31.000000)" filter="url(#filter-2)" id="Group-2">
                <g id="Group-4" transform="translate(0.000000, -0.000000)" fill="#000000" fill-rule="nonzero">
                    <g id="Group">
                        <path d="M3.12443253,1.8189894e-12 C4.54594414,1.8189894e-12 5.76456269,0.978661303 6.05808551,2.32911795 L7.89975617,13.197109 C19.0231109,13.197109 24.5847883,13.197109 24.5847883,13.197109 C24.5847883,13.197109 25.4729263,9.8175407 27.2492024,3.05840408 C27.2492024,3.05840408 27.6185341,2.46900964 28.4171958,2.75805538 C28.9774748,2.908644 29.0478066,3.45235391 28.9774748,3.69874003 L28.8457711,4.26244923 L26.1947374,14.3230831 C26.1316176,14.5738154 25.942258,14.7932061 25.7213385,14.9185723 C25.5950988,14.993792 25.4688591,15.0088359 25.3264608,14.9957978 L25.2163798,14.9812554 L8.17402047,14.9812554 C7.37597176,15.0070431 6.86217643,14.937031 6.63263448,14.7712189 C6.28832155,14.5225009 6.24762661,14.3113406 6.18574522,14.0723508 L4.29214974,2.75805538 C4.20475303,2.26623432 3.79466076,1.88123412 3.28527754,1.8249135 L3.15599246,1.81780923 L0.915237813,1.81780923 C0.41027902,1.81780923 0,1.41036923 0,0.908904615 C0,0.446014201 0.32269556,0.0632394355 0.794327533,0.00709000665 L0.915237813,1.8189894e-12 L3.12443253,1.8189894e-12 Z" id="Shape"></path>
                        <path d="M10.9826087,16 C9.33913043,16 8,17.3444444 8,18.9944444 C8,20.6444444 9.33913043,21.9888889 10.9826087,21.9888889 C12.626087,21.9888889 13.9652174,20.6444444 13.9652174,18.9944444 C13.9652174,17.3444444 12.626087,16 10.9826087,16 Z M10.9826087,17.8027778 C11.6521739,17.8027778 12.1391304,18.3222222 12.1391304,18.9944444 C12.1391304,19.6361111 11.5913043,20.1861111 10.9521739,20.1861111 C10.3130435,20.1861111 9.79565217,19.6361111 9.79565217,18.9944444 C9.79565217,18.3527778 10.3130435,17.8027778 10.9826087,17.8027778 Z" id="Shape"></path>
                        <path d="M20.8434783,16 C19.2,16 17.8608696,17.3444444 17.8608696,18.9944444 C17.8608696,20.6444444 19.1695652,22.0194444 20.8434783,22.0194444 C22.5173913,22.0194444 23.826087,20.675 23.826087,19.025 C23.826087,17.375 22.4869565,16 20.8434783,16 Z M20.8130435,17.8027778 C21.4826087,17.8027778 22,18.3222222 22,18.9944444 C22,19.6361111 21.4521739,20.1861111 20.8130435,20.1861111 C20.173913,20.1861111 19.626087,19.6361111 19.626087,18.9944444 C19.5956522,18.3527778 20.1434783,17.8027778 20.8130435,17.8027778 Z" id="Shape"></path>
                    </g>
                </g>
            </g>
        </g>
    </g>
</svg>