<?xml version="1.0" encoding="UTF-8"?>
<svg width="121px" height="39px" viewBox="0 0 121 39" version="1.1" xmlns="http://www.w3.org/2000/svg" xmlns:xlink="http://www.w3.org/1999/xlink">
    <title>Helsinkikuvia.fi</title>
    <g id="Symbols" stroke="none" stroke-width="1" fill="none" fill-rule="evenodd">
        <g id="FOoter" transform="translate(-133.000000, -119.000000)" fill="#00CA7E">
            <g id="Helsinkikuvia.fi" transform="translate(133.000000, 119.000000)">
                <path d="M56.7901673,25.4144609 L59.9897631,21 L57.8888029,21 L54.730304,25.5554285 L58.9461847,30.8730486 L61.0883987,30.8730486 L56.7901673,25.4144609 Z M53,30.8730486 L54.7165005,30.8730486 L54.7165005,21 L53,21 L53,30.8730486 Z M62.4761241,26.5852169 C62.4761241,27.2623447 62.5906307,27.8735803 62.8194869,28.4187624 C63.0481864,28.9641056 63.3550012,29.4271238 63.7396178,29.807978 C64.1240775,30.1889932 64.5703394,30.4828503 65.0785603,30.6895491 C65.5866244,30.8962478 66.1197857,31 66.6783582,31 C67.2366169,31 67.772288,30.8986644 68.2850578,30.6964766 C68.7976708,30.4944499 69.2484816,30.2030095 69.637647,29.8221553 C70.0266556,29.4413011 70.3356665,28.9782829 70.5646796,28.4327786 C70.793379,27.8877576 70.9078856,27.2763609 70.9078856,26.5992331 L70.9078856,21 L69.1913851,21 L69.1913851,26.5992331 C69.1913851,26.9660711 69.129583,27.3138986 69.0059786,27.6428767 C68.8823743,27.972177 68.7084184,28.2589454 68.484111,28.5035041 C68.2596468,28.7479016 67.9942425,28.9407453 67.6877414,29.0817129 C67.3807697,29.2228416 67.0491712,29.2930837 66.691848,29.2930837 C66.3624455,29.2930837 66.0487289,29.2347634 65.7513256,29.1168339 C65.4537654,28.9995489 65.1905571,28.8278101 64.9617009,28.6021008 C64.7328446,28.3765527 64.5497909,28.0967118 64.4125399,27.7629005 C64.275132,27.4294115 64.2064281,27.0461407 64.2064281,26.6134104 L64.2064281,21 L62.4761241,21 L62.4761241,26.5852169 Z M77.4033881,27.81236 L74.423394,21 L72.6243861,21 L76.9226174,30.8730486 L77.8701985,30.8730486 L82.1822334,21 L80.3557752,21 L77.4033881,27.81236 Z M84.2420967,30.8730486 L85.9447936,30.8730486 L85.9447936,21 L84.2420967,21 L84.2420967,30.8730486 Z M90.1606743,21 L90.1606743,22.7204492 L91.2591531,22.7204492 L87.867249,30.8730486 L89.6662569,30.8730486 L90.5725843,28.7148749 L94.7061144,28.7148749 L95.6124417,30.8730486 L97.4114496,30.8730486 L93.2915662,21 L90.1606743,21 Z M92.6322907,23.5667381 L93.9919385,26.9942646 L91.2727997,26.9942646 L92.6322907,23.5667381 Z M99.505508,30.6824604 C99.711463,30.8941535 99.9607109,31 100.253879,31 C100.555988,31 100.812138,30.8941535 101.022955,30.6824604 C101.233459,30.4710896 101.338711,30.2194423 101.338711,29.9280018 C101.338711,29.617712 101.233459,29.354465 101.022955,29.1379388 C100.812138,28.9218959 100.555988,28.8137939 100.253879,28.8137939 C99.9607109,28.8137939 99.711463,28.9218959 99.505508,29.1379388 C99.2995531,29.354465 99.1964972,29.617712 99.1964972,29.9280018 C99.1964972,30.2194423 99.2995531,30.4710896 99.505508,30.6824604 L99.505508,30.6824604 Z M103.796838,30.8730486 L105.513495,30.8730486 L105.513495,26.6839748 L108.287377,26.6839748 L108.287377,24.9772196 L105.513495,24.9772196 L105.513495,22.7204492 L109.825373,22.7204492 L109.825373,21 L103.796838,21 L103.796838,30.8730486 Z M112.297146,30.8730486 L114,30.8730486 L114,21 L112.297146,21 L112.297146,30.8730486 Z" id="Fill-1"></path>
                <path d="M58.8987599,16.8773319 L60.6165039,16.8773319 L60.6165039,6.13808925 L58.8987599,6.13808925 L58.8987599,10.5411735 L53.7179009,10.5411735 L53.7179009,6.13808925 L52,6.13808925 L52,16.8773319 L53.7179009,16.8773319 L53.7179009,12.4129136 L58.8987599,12.4129136 L58.8987599,16.8773319 Z M64.1894993,16.8773319 L70.3735659,16.8773319 L70.3735659,15.0055918 L65.9072432,15.0055918 L65.9072432,12.3207373 L68.6969486,12.3207373 L68.6969486,10.4644183 L65.9072432,10.4644183 L65.9072432,8.00982938 L70.249872,8.00982938 L70.249872,6.13808925 L64.1894993,6.13808925 L64.1894993,16.8773319 Z M79.2511142,16.8773319 L79.2511142,15.0055918 L75.1145895,15.0055918 L75.1145895,6.13808925 L73.3968455,6.13808925 L73.3968455,16.8773319 L79.2511142,16.8773319 Z M86.754373,16.7469532 C87.2489916,16.5781969 87.6703043,16.3481066 88.0186251,16.056507 C88.3666319,15.7650826 88.634583,15.4251167 88.8224784,15.0362588 C89.0102168,14.6477514 89.104243,14.2284017 89.104243,13.7782097 C89.104243,13.256695 89.0033101,12.8194708 88.8019151,12.4665371 C88.6003631,12.1137787 88.332255,11.8095617 87.9980617,11.5537111 C87.6633976,11.298211 87.2810139,11.0781093 86.8504399,10.8941072 C86.4197089,10.7099297 85.9709261,10.5311848 85.5037776,10.3569961 C85.2838599,10.2753342 85.0433789,10.1859617 84.7823345,10.0885281 C84.5211332,9.99144509 84.275943,9.88419812 84.0470779,9.76643673 C83.8178989,9.64902582 83.6256083,9.5158433 83.4698921,9.36759013 C83.314019,9.21933695 83.2361609,9.05303404 83.2361609,8.86885664 C83.2361609,8.74618853 83.2637879,8.62106705 83.3187281,8.4929665 C83.3736683,8.36521642 83.4698921,8.24517691 83.6072425,8.13249749 C83.74475,8.02016855 83.9324884,7.92799223 84.1707718,7.856319 C84.4088983,7.78499626 84.7112262,7.74889678 85.0777557,7.74889678 C85.3340909,7.74889678 85.5883854,7.78499626 85.8404824,7.856319 C86.0922654,7.92799223 86.3283512,8.01736471 86.5481119,8.12478692 C86.7680296,8.23220914 86.9694246,8.34488856 87.1527678,8.46229947 C87.3359541,8.58006086 87.4916702,8.69011168 87.6200733,8.79227669 L88.6782212,7.51880646 C88.522348,7.36547132 88.3162439,7.19934365 88.0599087,7.0202482 C87.8032596,6.841328 87.5122336,6.67502509 87.1871447,6.52168995 C86.8618988,6.36817957 86.5182872,6.2430581 86.1564669,6.14579981 C85.7944896,6.04871676 85.4350239,6 85.0777557,6 C84.4638384,6 83.9324884,6.08709436 83.4835487,6.26075736 C83.0346089,6.43477083 82.6658818,6.6597792 82.3773674,6.93578245 C82.088696,7.21196094 81.8733305,7.52143506 81.7314278,7.86402957 C81.5893682,8.20679932 81.5184169,8.54676523 81.5184169,8.88427777 C81.5184169,9.34445843 81.6146407,9.74348027 81.8070883,10.0809928 C81.9993789,10.4185054 82.2558711,10.7151869 82.5765648,10.9706871 C82.8972585,11.2265377 83.2637879,11.4462889 83.6759963,11.6304663 C84.0882046,11.8144685 84.5095173,11.9832247 84.9402483,12.1367351 C85.1783747,12.2287362 85.439576,12.3207373 85.7236953,12.4129136 C86.0075005,12.5049147 86.273254,12.6123369 86.5206418,12.735005 C86.7680296,12.8578484 86.9741338,13.0011948 87.1391113,13.1646939 C87.3039318,13.3283682 87.386499,13.5328735 87.386499,13.7782097 C87.386499,13.9317201 87.3383087,14.0903124 87.2419279,14.2538115 C87.146018,14.417661 87.0038015,14.5683676 86.816063,14.7064568 C86.6283246,14.844546 86.3901981,14.9572255 86.1015267,15.0439693 C85.8130123,15.1310637 85.4763075,15.174348 85.0914123,15.174348 C84.908069,15.174348 84.6950581,15.1513916 84.4523795,15.1053034 C84.2095439,15.0593905 83.9508541,14.9826353 83.6759963,14.8752131 C83.4011384,14.7677909 83.1239259,14.6297016 82.8445159,14.4609453 C82.5649488,14.2921891 82.2969977,14.0850552 82.0406626,13.839719 L80.8862909,15.1897692 C81.5640957,15.8444664 82.2742368,16.309729 83.0164002,16.5859075 C83.7584065,16.8619108 84.4500249,17 85.0914123,17 C85.7051726,17 86.2595975,16.9157095 86.754373,16.7469532 L86.754373,16.7469532 Z M92.1137091,16.8773319 L93.8177965,16.8773319 L93.8177965,6.13808925 L92.1137091,6.13808925 L92.1137091,16.8773319 Z M105.979669,16.8773319 L105.979669,6.13808925 L104.330678,6.13808925 L104.330678,13.4254512 L98.4900664,6.15351038 L97.3907919,6.13808925 L97.3907919,16.8773319 L99.0397822,16.8773319 L99.0397822,9.63605805 L104.907864,16.8773319 L105.979669,16.8773319 Z M113.345577,10.9400201 L116.547491,6.13808925 L114.445009,6.13808925 L111.284222,11.0935305 L115.503157,16.8773319 L117.646922,16.8773319 L113.345577,10.9400201 Z M109.552664,16.8773319 L111.270251,16.8773319 L111.270251,6.13808925 L109.552664,6.13808925 L109.552664,16.8773319 Z M119.295913,16.8773319 L121,16.8773319 L121,6.13808925 L119.295913,6.13808925 L119.295913,16.8773319 Z" id="Fill-3"></path>
                <path d="M39,39 L39,0 L24.7716006,0 L24.7716006,12.5772593 C22.6012246,11.9037105 20.5785113,12.8193208 19.5,13.6473605 C18.4214887,12.8193208 16.3986201,11.9037105 14.2283994,12.5772593 L14.2283994,0 L0,0 L0,39 L14.2283994,39 L14.2283994,25.5617844 L19.4998447,28.9031332 L19.5,28.9031332 L19.5001553,28.9031332 L24.7716006,25.5617844 L24.7716006,39 L39,39 Z M37.1572456,37.1568238 L26.614355,37.1568238 L26.614355,22.0688948 L19.5001553,26.6758261 L19.5,26.6758261 L19.4998447,26.6758261 L12.385645,22.0688948 L12.385645,37.1568238 L1.84275443,37.1568238 L1.84275443,1.84348674 L12.385645,1.84348674 L12.385645,15.5694124 C13.2078042,14.7269329 14.3509081,14.2001115 15.6171419,14.2001115 C17.2746582,14.2001115 18.7113794,15.1067163 19.5,16.4413926 C20.2884654,15.1067163 21.7251865,14.2001115 23.3827028,14.2001115 C24.6490919,14.2001115 25.7921958,14.7269329 26.614355,15.5694124 L26.614355,1.84348674 L37.1572456,1.84348674 L37.1572456,37.1568238 Z" id="Fill-5"></path>
            </g>
        </g>
    </g>
</svg>