<?xml version="1.0" encoding="UTF-8"?>
<svg width="210px" height="39px" viewBox="0 0 210 39" version="1.1" xmlns="http://www.w3.org/2000/svg" xmlns:xlink="http://www.w3.org/1999/xlink">
    <title>Kaupunginmusero</title>
    <defs>
        <polygon id="path-1" points="0 0 40 0 40 39 0 39"></polygon>
    </defs>
    <g id="Symbols" stroke="none" stroke-width="1" fill="none" fill-rule="evenodd">
        <g id="FOoter" transform="translate(-853.000000, -119.000000)">
            <g id="Kaupunginmusero" transform="translate(853.000000, 119.000000)">
                <path d="M53.075,17 L53.075,12.635 L58.73,12.635 L58.73,17 L60.605,17 L60.605,6.5 L58.73,6.5 L58.73,10.805 L53.075,10.805 L53.075,6.5 L51.2,6.5 L51.2,17 L53.075,17 Z M70.755,17 L70.755,15.17 L65.88,15.17 L65.88,12.545 L68.925,12.545 L68.925,10.73 L65.88,10.73 L65.88,8.33 L70.62,8.33 L70.62,6.5 L64.005,6.5 L64.005,17 L70.755,17 Z M79.945,17 L79.945,15.17 L75.43,15.17 L75.43,6.5 L73.555,6.5 L73.555,17 L79.945,17 Z M86.12,17.12 C86.79,17.12 87.395,17.0375 87.935,16.8725 C88.475,16.7075 88.935,16.4825 89.315,16.1975 C89.695,15.9125 89.9875,15.58 90.1925,15.2 C90.3975,14.82 90.5,14.41 90.5,13.97 C90.5,13.46 90.39,13.0325 90.17,12.6875 C89.95,12.3425 89.6575,12.045 89.2925,11.795 C88.9275,11.545 88.51,11.33 88.04,11.15 C87.57,10.97 87.08,10.795 86.57,10.625 C86.33,10.545 86.0675,10.4575 85.7825,10.3625 C85.4975,10.2675 85.23,10.1625 84.98,10.0475 C84.73,9.9325 84.52,9.8025 84.35,9.6575 C84.18,9.5125 84.095,9.35 84.095,9.17 C84.095,9.05 84.125,8.9275 84.185,8.8025 C84.245,8.6775 84.35,8.56 84.5,8.45 C84.65,8.34 84.855,8.25 85.115,8.18 C85.375,8.11 85.705,8.075 86.105,8.075 C86.385,8.075 86.6625,8.11 86.9375,8.18 C87.2125,8.25 87.47,8.3375 87.71,8.4425 C87.95,8.5475 88.17,8.6575 88.37,8.7725 C88.57,8.8875 88.74,8.995 88.88,9.095 L88.88,9.095 L90.035,7.85 C89.865,7.7 89.64,7.5375 89.36,7.3625 C89.08,7.1875 88.7625,7.025 88.4075,6.875 C88.0525,6.725 87.6775,6.6025 87.2825,6.5075 C86.8875,6.4125 86.495,6.365 86.105,6.365 C85.435,6.365 84.855,6.45 84.365,6.62 C83.875,6.79 83.4725,7.01 83.1575,7.28 C82.8425,7.55 82.6075,7.8525 82.4525,8.1875 C82.2975,8.5225 82.22,8.855 82.22,9.185 C82.22,9.635 82.325,10.025 82.535,10.355 C82.745,10.685 83.025,10.975 83.375,11.225 C83.725,11.475 84.125,11.69 84.575,11.87 C85.025,12.05 85.485,12.215 85.955,12.365 C86.215,12.455 86.5,12.545 86.81,12.635 C87.12,12.725 87.41,12.83 87.68,12.95 C87.95,13.07 88.175,13.21 88.355,13.37 C88.535,13.53 88.625,13.73 88.625,13.97 C88.625,14.12 88.5725,14.275 88.4675,14.435 C88.3625,14.595 88.2075,14.7425 88.0025,14.8775 C87.7975,15.0125 87.5375,15.1225 87.2225,15.2075 C86.9075,15.2925 86.54,15.335 86.12,15.335 C85.92,15.335 85.6875,15.3125 85.4225,15.2675 C85.1575,15.2225 84.875,15.1475 84.575,15.0425 C84.275,14.9375 83.9725,14.8025 83.6675,14.6375 C83.3625,14.4725 83.07,14.27 82.79,14.03 L82.79,14.03 L81.53,15.35 C82.27,15.99 83.045,16.445 83.855,16.715 C84.665,16.985 85.42,17.12 86.12,17.12 Z M95.145,17 L95.145,6.5 L93.285,6.5 L93.285,17 L95.145,17 Z M100.345,17 L100.345,9.92 L106.75,17 L107.92,17 L107.92,6.5 L106.12,6.5 L106.12,13.625 L99.745,6.515 L98.545,6.5 L98.545,17 L100.345,17 Z M115.97,17.135 C116.43,17.135 116.8825,17.0775 117.3275,16.9625 C117.7725,16.8475 118.195,16.68 118.595,16.46 C118.995,16.24 119.365,15.965 119.705,15.635 C120.045,15.305 120.335,14.92 120.575,14.48 L120.575,14.48 L120.575,11.165 L117.485,11.165 L117.485,12.995 L118.745,12.995 L118.745,13.895 C118.425,14.355 118.0175,14.71 117.5225,14.96 C117.0275,15.21 116.51,15.335 115.97,15.335 C115.51,15.335 115.07,15.2475 114.65,15.0725 C114.23,14.8975 113.8575,14.655 113.5325,14.345 C113.2075,14.035 112.9475,13.665 112.7525,13.235 C112.5575,12.805 112.46,12.335 112.46,11.825 C112.46,11.275 112.5575,10.7775 112.7525,10.3325 C112.9475,9.8875 113.2075,9.505 113.5325,9.185 C113.8575,8.865 114.23,8.6175 114.65,8.4425 C115.07,8.2675 115.51,8.18 115.97,8.18 C116.48,8.18 116.9975,8.3425 117.5225,8.6675 C118.0475,8.9925 118.495,9.465 118.865,10.085 L118.865,10.085 L120.62,9.38 C120.34,8.9 120.0175,8.4725 119.6525,8.0975 C119.2875,7.7225 118.9025,7.4075 118.4975,7.1525 C118.0925,6.8975 117.675,6.7025 117.245,6.5675 C116.815,6.4325 116.39,6.365 115.97,6.365 C115.28,6.365 114.6125,6.495 113.9675,6.755 C113.3225,7.015 112.7475,7.3825 112.2425,7.8575 C111.7375,8.3325 111.3325,8.905 111.0275,9.575 C110.7225,10.245 110.57,10.995 110.57,11.825 C110.57,12.665 110.73,13.415 111.05,14.075 C111.37,14.735 111.785,15.29 112.295,15.74 C112.805,16.19 113.3825,16.535 114.0275,16.775 C114.6725,17.015 115.32,17.135 115.97,17.135 Z M125.58,17 L125.58,6.5 L123.72,6.5 L123.72,17 L125.58,17 Z M130.78,17 L130.78,9.92 L137.185,17 L138.355,17 L138.355,6.5 L136.555,6.5 L136.555,13.625 L130.18,6.515 L128.98,6.5 L128.98,17 L130.78,17 Z M60.035,33 L55.34,27.195 L58.835,22.5 L56.54,22.5 L53.09,27.345 L57.695,33 L60.035,33 Z M53.075,33 L53.075,22.5 L51.2,22.5 L51.2,33 L53.075,33 Z M63,33 L63.99,30.705 L68.505,30.705 L69.495,33 L71.46,33 L66.96,22.5 L63.54,22.5 L63.54,24.33 L64.74,24.33 L61.035,33 L63,33 Z M67.725,28.875 L64.755,28.875 L66.24,25.23 L67.725,28.875 Z M78.175,33.135 C78.785,33.135 79.37,33.0275 79.93,32.8125 C80.49,32.5975 80.9825,32.2875 81.4075,31.8825 C81.8325,31.4775 82.17,30.985 82.42,30.405 C82.67,29.825 82.795,29.175 82.795,28.455 L82.795,28.455 L82.795,22.5 L80.92,22.5 L80.92,28.455 C80.92,28.845 80.8525,29.215 80.7175,29.565 C80.5825,29.915 80.3925,30.22 80.1475,30.48 C79.9025,30.74 79.6125,30.945 79.2775,31.095 C78.9425,31.245 78.58,31.32 78.19,31.32 C77.83,31.32 77.4875,31.2575 77.1625,31.1325 C76.8375,31.0075 76.55,30.825 76.3,30.585 C76.05,30.345 75.85,30.0475 75.7,29.6925 C75.55,29.3375 75.475,28.93 75.475,28.47 L75.475,28.47 L75.475,22.5 L73.585,22.5 L73.585,28.44 C73.585,29.16 73.71,29.81 73.96,30.39 C74.21,30.97 74.545,31.4625 74.965,31.8675 C75.385,32.2725 75.8725,32.585 76.4275,32.805 C76.9825,33.025 77.565,33.135 78.175,33.135 Z M87.995,33 L87.995,29.835 L91.025,29.835 C91.595,29.845 92.1075,29.755 92.5625,29.565 C93.0175,29.375 93.405,29.115 93.725,28.785 C94.045,28.455 94.29,28.065 94.46,27.615 C94.63,27.165 94.715,26.685 94.715,26.175 C94.715,25.655 94.63,25.1725 94.46,24.7275 C94.29,24.2825 94.0425,23.895 93.7175,23.565 C93.3925,23.235 92.9975,22.975 92.5325,22.785 C92.0675,22.595 91.545,22.5 90.965,22.5 L90.965,22.5 L86.12,22.5 L86.12,33 L87.995,33 Z M90.935,28.02 L87.995,28.02 L87.995,24.33 L90.965,24.33 C91.255,24.33 91.5175,24.38 91.7525,24.48 C91.9875,24.58 92.1875,24.7175 92.3525,24.8925 C92.5175,25.0675 92.6425,25.265 92.7275,25.485 C92.8125,25.705 92.855,25.935 92.855,26.175 C92.855,26.525 92.805,26.82 92.705,27.06 C92.605,27.3 92.4675,27.49 92.2925,27.63 C92.1175,27.77 91.9125,27.87 91.6775,27.93 C91.4425,27.99 91.195,28.02 90.935,28.02 L90.935,28.02 Z M101.73,33.135 C102.34,33.135 102.925,33.0275 103.485,32.8125 C104.045,32.5975 104.5375,32.2875 104.9625,31.8825 C105.3875,31.4775 105.725,30.985 105.975,30.405 C106.225,29.825 106.35,29.175 106.35,28.455 L106.35,28.455 L106.35,22.5 L104.475,22.5 L104.475,28.455 C104.475,28.845 104.4075,29.215 104.2725,29.565 C104.1375,29.915 103.9475,30.22 103.7025,30.48 C103.4575,30.74 103.1675,30.945 102.8325,31.095 C102.4975,31.245 102.135,31.32 101.745,31.32 C101.385,31.32 101.0425,31.2575 100.7175,31.1325 C100.3925,31.0075 100.105,30.825 99.855,30.585 C99.605,30.345 99.405,30.0475 99.255,29.6925 C99.105,29.3375 99.03,28.93 99.03,28.47 L99.03,28.47 L99.03,22.5 L97.14,22.5 L97.14,28.44 C97.14,29.16 97.265,29.81 97.515,30.39 C97.765,30.97 98.1,31.4625 98.52,31.8675 C98.94,32.2725 99.4275,32.585 99.9825,32.805 C100.5375,33.025 101.12,33.135 101.73,33.135 Z M111.475,33 L111.475,25.92 L117.88,33 L119.05,33 L119.05,22.5 L117.25,22.5 L117.25,29.625 L110.875,22.515 L109.675,22.5 L109.675,33 L111.475,33 Z M127.1,33.135 C127.56,33.135 128.0125,33.0775 128.4575,32.9625 C128.9025,32.8475 129.325,32.68 129.725,32.46 C130.125,32.24 130.495,31.965 130.835,31.635 C131.175,31.305 131.465,30.92 131.705,30.48 L131.705,30.48 L131.705,27.165 L128.615,27.165 L128.615,28.995 L129.875,28.995 L129.875,29.895 C129.555,30.355 129.1475,30.71 128.6525,30.96 C128.1575,31.21 127.64,31.335 127.1,31.335 C126.64,31.335 126.2,31.2475 125.78,31.0725 C125.36,30.8975 124.9875,30.655 124.6625,30.345 C124.3375,30.035 124.0775,29.665 123.8825,29.235 C123.6875,28.805 123.59,28.335 123.59,27.825 C123.59,27.275 123.6875,26.7775 123.8825,26.3325 C124.0775,25.8875 124.3375,25.505 124.6625,25.185 C124.9875,24.865 125.36,24.6175 125.78,24.4425 C126.2,24.2675 126.64,24.18 127.1,24.18 C127.61,24.18 128.1275,24.3425 128.6525,24.6675 C129.1775,24.9925 129.625,25.465 129.995,26.085 L129.995,26.085 L131.75,25.38 C131.47,24.9 131.1475,24.4725 130.7825,24.0975 C130.4175,23.7225 130.0325,23.4075 129.6275,23.1525 C129.2225,22.8975 128.805,22.7025 128.375,22.5675 C127.945,22.4325 127.52,22.365 127.1,22.365 C126.41,22.365 125.7425,22.495 125.0975,22.755 C124.4525,23.015 123.8775,23.3825 123.3725,23.8575 C122.8675,24.3325 122.4625,24.905 122.1575,25.575 C121.8525,26.245 121.7,26.995 121.7,27.825 C121.7,28.665 121.86,29.415 122.18,30.075 C122.5,30.735 122.915,31.29 123.425,31.74 C123.935,32.19 124.5125,32.535 125.1575,32.775 C125.8025,33.015 126.45,33.135 127.1,33.135 Z M136.71,33 L136.71,22.5 L134.85,22.5 L134.85,33 L136.71,33 Z M141.91,33 L141.91,25.92 L148.315,33 L149.485,33 L149.485,22.5 L147.685,22.5 L147.685,29.625 L141.31,22.515 L140.11,22.5 L140.11,33 L141.91,33 Z M154.67,33 L154.67,26.715 L157.745,33 L158.63,33 L161.69,26.7 L161.69,33 L163.49,33 L163.49,22.5 L161.87,22.5 C161.54,23.11 161.225,23.73 160.925,24.36 C160.625,24.99 160.3275,25.62 160.0325,26.25 L159.588125,27.195 L159.588125,27.195 L159.14,28.14 C158.84,28.77 158.52,29.395 158.18,30.015 L158.18,30.015 L154.52,22.5 L152.885,22.5 L152.885,33 L154.67,33 Z M171.405,33.135 C172.015,33.135 172.6,33.0275 173.16,32.8125 C173.72,32.5975 174.2125,32.2875 174.6375,31.8825 C175.0625,31.4775 175.4,30.985 175.65,30.405 C175.9,29.825 176.025,29.175 176.025,28.455 L176.025,28.455 L176.025,22.5 L174.15,22.5 L174.15,28.455 C174.15,28.845 174.0825,29.215 173.9475,29.565 C173.8125,29.915 173.6225,30.22 173.3775,30.48 C173.1325,30.74 172.8425,30.945 172.5075,31.095 C172.1725,31.245 171.81,31.32 171.42,31.32 C171.06,31.32 170.7175,31.2575 170.3925,31.1325 C170.0675,31.0075 169.78,30.825 169.53,30.585 C169.28,30.345 169.08,30.0475 168.93,29.6925 C168.78,29.3375 168.705,28.93 168.705,28.47 L168.705,28.47 L168.705,22.5 L166.815,22.5 L166.815,28.44 C166.815,29.16 166.94,29.81 167.19,30.39 C167.44,30.97 167.775,31.4625 168.195,31.8675 C168.615,32.2725 169.1025,32.585 169.6575,32.805 C170.2125,33.025 170.795,33.135 171.405,33.135 Z M182.95,33.12 C183.62,33.12 184.225,33.0375 184.765,32.8725 C185.305,32.7075 185.765,32.4825 186.145,32.1975 C186.525,31.9125 186.8175,31.58 187.0225,31.2 C187.2275,30.82 187.33,30.41 187.33,29.97 C187.33,29.46 187.22,29.0325 187,28.6875 C186.78,28.3425 186.4875,28.045 186.1225,27.795 C185.7575,27.545 185.34,27.33 184.87,27.15 C184.4,26.97 183.91,26.795 183.4,26.625 C183.16,26.545 182.8975,26.4575 182.6125,26.3625 C182.3275,26.2675 182.06,26.1625 181.81,26.0475 C181.56,25.9325 181.35,25.8025 181.18,25.6575 C181.01,25.5125 180.925,25.35 180.925,25.17 C180.925,25.05 180.955,24.9275 181.015,24.8025 C181.075,24.6775 181.18,24.56 181.33,24.45 C181.48,24.34 181.685,24.25 181.945,24.18 C182.205,24.11 182.535,24.075 182.935,24.075 C183.215,24.075 183.4925,24.11 183.7675,24.18 C184.0425,24.25 184.3,24.3375 184.54,24.4425 C184.78,24.5475 185,24.6575 185.2,24.7725 C185.4,24.8875 185.57,24.995 185.71,25.095 L185.71,25.095 L186.865,23.85 C186.695,23.7 186.47,23.5375 186.19,23.3625 C185.91,23.1875 185.5925,23.025 185.2375,22.875 C184.8825,22.725 184.5075,22.6025 184.1125,22.5075 C183.7175,22.4125 183.325,22.365 182.935,22.365 C182.265,22.365 181.685,22.45 181.195,22.62 C180.705,22.79 180.3025,23.01 179.9875,23.28 C179.6725,23.55 179.4375,23.8525 179.2825,24.1875 C179.1275,24.5225 179.05,24.855 179.05,25.185 C179.05,25.635 179.155,26.025 179.365,26.355 C179.575,26.685 179.855,26.975 180.205,27.225 C180.555,27.475 180.955,27.69 181.405,27.87 C181.855,28.05 182.315,28.215 182.785,28.365 C183.045,28.455 183.33,28.545 183.64,28.635 C183.95,28.725 184.24,28.83 184.51,28.95 C184.78,29.07 185.005,29.21 185.185,29.37 C185.365,29.53 185.455,29.73 185.455,29.97 C185.455,30.12 185.4025,30.275 185.2975,30.435 C185.1925,30.595 185.0375,30.7425 184.8325,30.8775 C184.6275,31.0125 184.3675,31.1225 184.0525,31.2075 C183.7375,31.2925 183.37,31.335 182.95,31.335 C182.75,31.335 182.5175,31.3125 182.2525,31.2675 C181.9875,31.2225 181.705,31.1475 181.405,31.0425 C181.105,30.9375 180.8025,30.8025 180.4975,30.6375 C180.1925,30.4725 179.9,30.27 179.62,30.03 L179.62,30.03 L178.36,31.35 C179.1,31.99 179.875,32.445 180.685,32.715 C181.495,32.985 182.25,33.12 182.95,33.12 Z M196.865,33 L196.865,31.17 L191.99,31.17 L191.99,28.545 L195.035,28.545 L195.035,26.73 L191.99,26.73 L191.99,24.33 L196.73,24.33 L196.73,22.5 L190.115,22.5 L190.115,33 L196.865,33 Z M204.255,33.135 C204.925,33.135 205.58,33.01 206.22,32.76 C206.86,32.51 207.43,32.1525 207.93,31.6875 C208.43,31.2225 208.83,30.6525 209.13,29.9775 C209.43,29.3025 209.58,28.545 209.58,27.705 C209.58,26.875 209.43,26.13 209.13,25.47 C208.83,24.81 208.43,24.25 207.93,23.79 C207.43,23.33 206.86,22.9775 206.22,22.7325 C205.58,22.4875 204.925,22.365 204.255,22.365 C203.605,22.365 202.9625,22.4875 202.3275,22.7325 C201.6925,22.9775 201.1225,23.33 200.6175,23.79 C200.1125,24.25 199.7025,24.81 199.3875,25.47 C199.0725,26.13 198.915,26.875 198.915,27.705 C198.915,28.545 199.0725,29.3025 199.3875,29.9775 C199.7025,30.6525 200.1125,31.2225 200.6175,31.6875 C201.1225,32.1525 201.6925,32.51 202.3275,32.76 C202.9625,33.01 203.605,33.135 204.255,33.135 Z M204.255,31.32 C203.795,31.32 203.3575,31.2275 202.9425,31.0425 C202.5275,30.8575 202.16,30.605 201.84,30.285 C201.52,29.965 201.265,29.5825 201.075,29.1375 C200.885,28.6925 200.79,28.215 200.79,27.705 C200.79,27.165 200.885,26.6775 201.075,26.2425 C201.265,25.8075 201.52,25.4375 201.84,25.1325 C202.16,24.8275 202.5275,24.5925 202.9425,24.4275 C203.3575,24.2625 203.795,24.18 204.255,24.18 C204.695,24.18 205.1225,24.2625 205.5375,24.4275 C205.9525,24.5925 206.32,24.8275 206.64,25.1325 C206.96,25.4375 207.2175,25.8075 207.4125,26.2425 C207.6075,26.6775 207.705,27.165 207.705,27.705 C207.705,28.215 207.6075,28.6925 207.4125,29.1375 C207.2175,29.5825 206.96,29.965 206.64,30.285 C206.32,30.605 205.9525,30.8575 205.5375,31.0425 C205.1225,31.2275 204.695,31.32 204.255,31.32 Z" id="Helsinginkaupunginmuseo" fill="#00C77B" fill-rule="nonzero"></path>
                <mask id="mask-2" fill="white">
                    <use xlink:href="#path-1"></use>
                </mask>
                <g id="Clip-2"></g>
                <path d="M40,39 L40,0 L25.4067698,0 L25.4067698,12.5772593 C23.1807432,11.9037105 21.1061654,12.8193208 20,13.6473605 C18.8938346,12.8193208 16.8190975,11.9037105 14.5932302,12.5772593 L14.5932302,0 L0,0 L0,39 L14.5932302,39 L14.5932302,25.5617844 L19.9998407,28.9031332 L20,28.9031332 L20.0001593,28.9031332 L25.4067698,25.5617844 L25.4067698,39 L40,39 Z M38.1099955,37.1568238 L27.2967743,37.1568238 L27.2967743,22.0688948 L20.0001593,26.6758261 L20,26.6758261 L19.9998407,26.6758261 L12.7032257,22.0688948 L12.7032257,37.1568238 L1.89000454,37.1568238 L1.89000454,1.84348674 L12.7032257,1.84348674 L12.7032257,15.5694124 C13.5464658,14.7269329 14.7188801,14.2001115 16.0175814,14.2001115 C17.7175982,14.2001115 19.1911583,15.1067163 20,16.4413926 C20.8086824,15.1067163 22.2822426,14.2001115 23.9822593,14.2001115 C25.2811199,14.2001115 26.4535342,14.7269329 27.2967743,15.5694124 L27.2967743,1.84348674 L38.1099955,1.84348674 L38.1099955,37.1568238 Z" id="Fill-1" fill="#00C77B" mask="url(#mask-2)"></path>
            </g>
        </g>
    </g>
</svg>