<?xml version="1.0" encoding="utf-8"?>
<!-- Generator: Adobe Illustrator 24.0.1, SVG Export Plug-In . SVG Version: 6.00 Build 0)  -->
<svg version="1.1" id="Layer_1" xmlns="http://www.w3.org/2000/svg" xmlns:xlink="http://www.w3.org/1999/xlink" x="0px" y="0px"
	 viewBox="0 0 220 39" style="enable-background:new 0 0 220 39;" xml:space="preserve">
<style type="text/css">
	.st0{filter:url(#Adobe_OpacityMaskFilter);}
	.st1{fill-rule:evenodd;clip-rule:evenodd;fill:#FFFFFF;}
	.st2{mask:url(#mask-2_1_);fill-rule:evenodd;clip-rule:evenodd;fill:#00C77B;}
	.st3{fill:#00C77B;}
</style>
<title>Group 3</title>
<g id="Symbols">
	<g id="Group-3">
		<g id="Kaupunginmusero-Copy-3">
			<g id="Clip-2">
			</g>
			<defs>
				<filter id="Adobe_OpacityMaskFilter" filterUnits="userSpaceOnUse" x="0" y="0" width="40" height="39">
					<feColorMatrix  type="matrix" values="1 0 0 0 0  0 1 0 0 0  0 0 1 0 0  0 0 0 1 0"/>
				</filter>
			</defs>
			<mask maskUnits="userSpaceOnUse" x="0" y="0" width="40" height="39" id="mask-2_1_">
				<g class="st0">
					<polygon id="path-1_1_" class="st1" points="0,0 40,0 40,39 0,39 					"/>
				</g>
			</mask>
			<path id="Fill-1" class="st2" d="M40,39V0H25.4v12.6c-2.2-0.7-4.3,0.2-5.4,1.1c-1.1-0.8-3.2-1.7-5.4-1.1V0H0v39h14.6V25.6
				l5.4,3.3h0h0l5.4-3.3V39H40z M38.1,37.2H27.3V22.1L20,26.7h0h0l-7.3-4.6v15.1H1.9V1.8h10.8v13.7c0.8-0.8,2-1.4,3.3-1.4
				c1.7,0,3.2,0.9,4,2.2c0.8-1.3,2.3-2.2,4-2.2c1.3,0,2.5,0.5,3.3,1.4V1.8h10.8V37.2z"/>
		</g>
		<path id="HElsinkiPictures.fi" class="st3" d="M56.3,17v-4.7h6V17h2V5.8h-2v4.6h-6V5.8h-2V17H56.3z M74.4,17v-2h-5.2v-2.8h3.2
			v-1.9h-3.2V7.8h5.1v-2h-7.1V17H74.4z M83.4,17v-2h-4.8V5.8h-2V17H83.4z M89.2,17.1c0.7,0,1.4-0.1,1.9-0.3c0.6-0.2,1.1-0.4,1.5-0.7
			c0.4-0.3,0.7-0.7,0.9-1.1s0.3-0.8,0.3-1.3c0-0.5-0.1-1-0.4-1.4c-0.2-0.4-0.5-0.7-0.9-1s-0.8-0.5-1.3-0.7c-0.5-0.2-1-0.4-1.6-0.6
			c-0.3-0.1-0.5-0.2-0.8-0.3c-0.3-0.1-0.6-0.2-0.9-0.3c-0.3-0.1-0.5-0.3-0.7-0.4c-0.2-0.2-0.3-0.3-0.3-0.5c0-0.1,0-0.3,0.1-0.4
			c0.1-0.1,0.2-0.3,0.3-0.4s0.4-0.2,0.7-0.3c0.3-0.1,0.6-0.1,1.1-0.1c0.3,0,0.6,0,0.9,0.1s0.6,0.2,0.8,0.3c0.3,0.1,0.5,0.2,0.7,0.4
			s0.4,0.2,0.5,0.3l0,0l1.2-1.3c-0.2-0.2-0.4-0.3-0.7-0.5c-0.3-0.2-0.6-0.4-1-0.5c-0.4-0.2-0.8-0.3-1.2-0.4
			c-0.4-0.1-0.8-0.2-1.3-0.2c-0.7,0-1.3,0.1-1.9,0.3c-0.5,0.2-1,0.4-1.3,0.7s-0.6,0.6-0.8,1c-0.2,0.4-0.2,0.7-0.2,1.1
			c0,0.5,0.1,0.9,0.3,1.2c0.2,0.4,0.5,0.7,0.9,0.9c0.4,0.3,0.8,0.5,1.3,0.7c0.5,0.2,1,0.4,1.5,0.5c0.3,0.1,0.6,0.2,0.9,0.3
			c0.3,0.1,0.6,0.2,0.9,0.3c0.3,0.1,0.5,0.3,0.7,0.4s0.3,0.4,0.3,0.6c0,0.2-0.1,0.3-0.2,0.5s-0.3,0.3-0.5,0.5s-0.5,0.3-0.8,0.4
			s-0.7,0.1-1.2,0.1c-0.2,0-0.5,0-0.7-0.1c-0.3,0-0.6-0.1-0.9-0.2c-0.3-0.1-0.6-0.3-1-0.4c-0.3-0.2-0.6-0.4-0.9-0.6l0,0l-1.3,1.4
			c0.8,0.7,1.6,1.2,2.5,1.5C87.7,17,88.5,17.1,89.2,17.1z M98.1,17V5.8h-2V17H98.1z M102.9,17V9.4l6.8,7.6h1.2V5.8H109v7.6l-6.8-7.6
			l-1.3,0V17H102.9z M123.2,17l-5-6.2l3.7-5h-2.4l-3.7,5.2l4.9,6H123.2z M115.8,17V5.8h-2V17H115.8z M126.8,17V5.8h-2V17H126.8z"/>
	</g>
</g>
<g>
	<path class="st3" d="M59.5,21.8c0.6,0,1.2,0.1,1.7,0.3c0.5,0.2,0.9,0.5,1.3,0.8c0.3,0.4,0.6,0.8,0.8,1.2c0.2,0.5,0.3,1,0.3,1.5
		c0,0.5-0.1,1.1-0.3,1.5c-0.2,0.5-0.4,0.9-0.8,1.2c-0.3,0.4-0.8,0.6-1.2,0.8c-0.5,0.2-1,0.3-1.6,0.3h-3.2V33h-2V21.8H59.5z
		 M56.3,27.7h3.1c0.3,0,0.5,0,0.8-0.1c0.3-0.1,0.5-0.2,0.7-0.3s0.3-0.4,0.4-0.6c0.1-0.3,0.2-0.6,0.2-0.9c0-0.3,0-0.5-0.1-0.7
		c-0.1-0.2-0.2-0.4-0.4-0.6c-0.2-0.2-0.4-0.3-0.6-0.4c-0.3-0.1-0.5-0.2-0.8-0.2h-3.2V27.7z"/>
	<path class="st3" d="M73.5,28.3h-6V33h-2V21.8h2v4.6h6v-4.6h2V33h-2V28.3z"/>
	<path class="st3" d="M83.3,33.1c-0.7,0-1.4-0.1-2.1-0.4c-0.7-0.3-1.3-0.6-1.8-1.1s-1-1.1-1.3-1.8s-0.5-1.5-0.5-2.4
		c0-0.9,0.2-1.7,0.5-2.4c0.3-0.7,0.8-1.3,1.3-1.8c0.5-0.5,1.1-0.9,1.8-1.1c0.7-0.3,1.4-0.4,2.1-0.4c0.7,0,1.4,0.1,2.1,0.4
		c0.7,0.3,1.3,0.6,1.8,1.1c0.5,0.5,1,1.1,1.3,1.8c0.3,0.7,0.5,1.5,0.5,2.4c0,0.9-0.2,1.7-0.5,2.4s-0.7,1.3-1.3,1.8s-1.1,0.9-1.8,1.1
		C84.7,33,84,33.1,83.3,33.1z M83.3,23.6c-0.5,0-1,0.1-1.4,0.3c-0.4,0.2-0.8,0.4-1.2,0.8c-0.3,0.3-0.6,0.7-0.8,1.2
		c-0.2,0.5-0.3,1-0.3,1.6c0,0.5,0.1,1.1,0.3,1.5c0.2,0.5,0.5,0.9,0.8,1.2c0.3,0.3,0.7,0.6,1.2,0.8c0.4,0.2,0.9,0.3,1.4,0.3
		c0.5,0,0.9-0.1,1.4-0.3s0.8-0.5,1.2-0.8c0.3-0.3,0.6-0.7,0.8-1.2c0.2-0.5,0.3-1,0.3-1.5c0-0.6-0.1-1.1-0.3-1.6s-0.5-0.9-0.8-1.2
		c-0.3-0.3-0.7-0.6-1.2-0.8S83.8,23.6,83.3,23.6z"/>
	<path class="st3" d="M90.2,21.8h9.7v2h-3.8V33h-2v-9.2h-3.9V21.8z"/>
	<path class="st3" d="M106.8,33.1c-0.7,0-1.4-0.1-2.1-0.4c-0.7-0.3-1.3-0.6-1.8-1.1s-1-1.1-1.3-1.8s-0.5-1.5-0.5-2.4
		c0-0.9,0.2-1.7,0.5-2.4c0.3-0.7,0.8-1.3,1.3-1.8c0.5-0.5,1.1-0.9,1.8-1.1c0.7-0.3,1.4-0.4,2.1-0.4c0.7,0,1.4,0.1,2.1,0.4
		c0.7,0.3,1.3,0.6,1.8,1.1c0.5,0.5,1,1.1,1.3,1.8c0.3,0.7,0.5,1.5,0.5,2.4c0,0.9-0.2,1.7-0.5,2.4s-0.7,1.3-1.3,1.8s-1.1,0.9-1.8,1.1
		C108.2,33,107.5,33.1,106.8,33.1z M106.8,23.6c-0.5,0-1,0.1-1.4,0.3c-0.4,0.2-0.8,0.4-1.2,0.8c-0.3,0.3-0.6,0.7-0.8,1.2
		c-0.2,0.5-0.3,1-0.3,1.6c0,0.5,0.1,1.1,0.3,1.5c0.2,0.5,0.5,0.9,0.8,1.2c0.3,0.3,0.7,0.6,1.2,0.8c0.4,0.2,0.9,0.3,1.4,0.3
		c0.5,0,0.9-0.1,1.4-0.3s0.8-0.5,1.2-0.8c0.3-0.3,0.6-0.7,0.8-1.2c0.2-0.5,0.3-1,0.3-1.5c0-0.6-0.1-1.1-0.3-1.6s-0.5-0.9-0.8-1.2
		c-0.3-0.3-0.7-0.6-1.2-0.8S107.3,23.6,106.8,23.6z"/>
	<path class="st3" d="M118.5,33.1c-0.7,0-1.6-0.1-2.4-0.4s-1.7-0.8-2.5-1.5l1.3-1.4c0.3,0.3,0.6,0.5,0.9,0.6s0.6,0.3,1,0.4
		c0.3,0.1,0.6,0.2,0.9,0.2c0.3,0,0.5,0.1,0.7,0.1c0.4,0,0.8,0,1.2-0.1c0.3-0.1,0.6-0.2,0.8-0.4c0.2-0.1,0.4-0.3,0.5-0.5
		c0.1-0.2,0.2-0.3,0.2-0.5c0-0.3-0.1-0.5-0.3-0.6c-0.2-0.2-0.4-0.3-0.7-0.4c-0.3-0.1-0.6-0.2-0.9-0.3c-0.3-0.1-0.6-0.2-0.9-0.3
		c-0.5-0.2-1-0.3-1.5-0.5c-0.5-0.2-0.9-0.4-1.3-0.7c-0.4-0.3-0.7-0.6-0.9-0.9c-0.2-0.4-0.3-0.8-0.3-1.2c0-0.4,0.1-0.7,0.2-1.1
		s0.4-0.7,0.8-1c0.3-0.3,0.8-0.5,1.3-0.7c0.5-0.2,1.1-0.3,1.9-0.3c0.4,0,0.8,0.1,1.3,0.2c0.4,0.1,0.8,0.2,1.2,0.4
		c0.4,0.2,0.7,0.3,1,0.5c0.3,0.2,0.5,0.4,0.7,0.5l-1.2,1.3c-0.2-0.1-0.3-0.2-0.5-0.3c-0.2-0.1-0.4-0.2-0.7-0.4
		c-0.3-0.1-0.5-0.2-0.8-0.3c-0.3-0.1-0.6-0.1-0.9-0.1c-0.4,0-0.8,0-1.1,0.1c-0.3,0.1-0.5,0.2-0.7,0.3c-0.2,0.1-0.3,0.2-0.3,0.4
		c-0.1,0.1-0.1,0.3-0.1,0.4c0,0.2,0.1,0.4,0.3,0.5c0.2,0.2,0.4,0.3,0.7,0.4c0.3,0.1,0.6,0.2,0.9,0.3c0.3,0.1,0.6,0.2,0.8,0.3
		c0.5,0.2,1.1,0.4,1.6,0.6c0.5,0.2,0.9,0.4,1.3,0.7s0.7,0.6,0.9,1c0.2,0.4,0.4,0.8,0.4,1.4c0,0.5-0.1,0.9-0.3,1.3s-0.5,0.8-0.9,1.1
		c-0.4,0.3-0.9,0.5-1.5,0.7C119.8,33,119.2,33.1,118.5,33.1z"/>
	<path class="st3" d="M124.9,31.9c0-0.4,0.1-0.7,0.4-0.9s0.5-0.4,0.9-0.4c0.4,0,0.7,0.1,0.9,0.4s0.4,0.5,0.4,0.9
		c0,0.3-0.1,0.6-0.4,0.9s-0.5,0.4-0.9,0.4c-0.3,0-0.6-0.1-0.9-0.4S124.9,32.3,124.9,31.9z"/>
	<path class="st3" d="M130,21.8h7v2h-5v2.6h3.2v1.9H132V33h-2V21.8z"/>
	<path class="st3" d="M139,33V21.8h2V33H139z"/>
</g>
</svg>
