<?xml version="1.0" encoding="UTF-8"?>
<svg width="220px" height="39px" viewBox="0 0 220 39" version="1.1" xmlns="http://www.w3.org/2000/svg" xmlns:xlink="http://www.w3.org/1999/xlink">
    <title>Group</title>
    <defs>
        <polygon id="path-1" points="0 0 40 0 40 39 0 39"></polygon>
    </defs>
    <g id="Symbols" stroke="none" stroke-width="1" fill="none" fill-rule="evenodd">
        <g id="Group">
            <g id="Kaupunginmusero-Copy-5">
                <mask id="mask-2" fill="white">
                    <use xlink:href="#path-1"></use>
                </mask>
                <g id="Clip-2"></g>
                <path d="M40,39 L40,0 L25.4067698,0 L25.4067698,12.5772593 C23.1807432,11.9037105 21.1061654,12.8193208 20,13.6473605 C18.8938346,12.8193208 16.8190975,11.9037105 14.5932302,12.5772593 L14.5932302,0 L0,0 L0,39 L14.5932302,39 L14.5932302,25.5617844 L19.9998407,28.9031332 L20,28.9031332 L20.0001593,28.9031332 L25.4067698,25.5617844 L25.4067698,39 L40,39 Z M38.1099955,37.1568238 L27.2967743,37.1568238 L27.2967743,22.0688948 L20.0001593,26.6758261 L20,26.6758261 L19.9998407,26.6758261 L12.7032257,22.0688948 L12.7032257,37.1568238 L1.89000454,37.1568238 L1.89000454,1.84348674 L12.7032257,1.84348674 L12.7032257,15.5694124 C13.5464658,14.7269329 14.7188801,14.2001115 16.0175814,14.2001115 C17.7175982,14.2001115 19.1911583,15.1067163 20,16.4413926 C20.8086824,15.1067163 22.2822426,14.2001115 23.9822593,14.2001115 C25.2811199,14.2001115 26.4535342,14.7269329 27.2967743,15.5694124 L27.2967743,1.84348674 L38.1099955,1.84348674 L38.1099955,37.1568238 Z" id="Fill-1" fill="#00C77B" mask="url(#mask-2)"></path>
            </g>
            <path d="M56.28,17 L56.28,12.344 L62.312,12.344 L62.312,17 L64.312,17 L64.312,5.8 L62.312,5.8 L62.312,10.392 L56.28,10.392 L56.28,5.8 L54.28,5.8 L54.28,17 L56.28,17 Z M74.372,17 L74.372,15.048 L69.172,15.048 L69.172,12.248 L72.42,12.248 L72.42,10.312 L69.172,10.312 L69.172,7.752 L74.228,7.752 L74.228,5.8 L67.172,5.8 L67.172,17 L74.372,17 Z M83.408,17 L83.408,15.048 L78.592,15.048 L78.592,5.8 L76.592,5.8 L76.592,17 L83.408,17 Z M89.228,17.128 C89.9426667,17.128 90.588,17.04 91.164,16.864 C91.74,16.688 92.2306667,16.448 92.636,16.144 C93.0413333,15.84 93.3533333,15.4853333 93.572,15.08 C93.7906667,14.6746667 93.9,14.2373333 93.9,13.768 C93.9,13.224 93.7826667,12.768 93.548,12.4 C93.3133333,12.032 93.0013333,11.7146667 92.612,11.448 C92.2226667,11.1813333 91.7773333,10.952 91.276,10.76 C90.7746667,10.568 90.252,10.3813333 89.708,10.2 C89.452,10.1146667 89.172,10.0213333 88.868,9.92 C88.564,9.81866667 88.2786667,9.70666667 88.012,9.584 C87.7453333,9.46133333 87.5213333,9.32266667 87.34,9.168 C87.1586667,9.01333333 87.068,8.84 87.068,8.648 C87.068,8.52 87.1,8.38933333 87.164,8.256 C87.228,8.12266667 87.34,7.99733333 87.5,7.88 C87.66,7.76266667 87.8786667,7.66666667 88.156,7.592 C88.4333333,7.51733333 88.7853333,7.48 89.212,7.48 C89.5106667,7.48 89.8066667,7.51733333 90.1,7.592 C90.3933333,7.66666667 90.668,7.76 90.924,7.872 C91.18,7.984 91.4146667,8.10133333 91.628,8.224 C91.8413333,8.34666667 92.0226667,8.46133333 92.172,8.568 L92.172,8.568 L93.404,7.24 C93.2226667,7.08 92.9826667,6.90666667 92.684,6.72 C92.3853333,6.53333333 92.0466667,6.36 91.668,6.2 C91.2893333,6.04 90.8893333,5.90933333 90.468,5.808 C90.0466667,5.70666667 89.628,5.656 89.212,5.656 C88.4973333,5.656 87.8786667,5.74666667 87.356,5.928 C86.8333333,6.10933333 86.404,6.344 86.068,6.632 C85.732,6.92 85.4813333,7.24266667 85.316,7.6 C85.1506667,7.95733333 85.068,8.312 85.068,8.664 C85.068,9.144 85.18,9.56 85.404,9.912 C85.628,10.264 85.9266667,10.5733333 86.3,10.84 C86.6733333,11.1066667 87.1,11.336 87.58,11.528 C88.06,11.72 88.5506667,11.896 89.052,12.056 C89.3293333,12.152 89.6333333,12.248 89.964,12.344 C90.2946667,12.44 90.604,12.552 90.892,12.68 C91.18,12.808 91.42,12.9573333 91.612,13.128 C91.804,13.2986667 91.9,13.512 91.9,13.768 C91.9,13.928 91.844,14.0933333 91.732,14.264 C91.62,14.4346667 91.4546667,14.592 91.236,14.736 C91.0173333,14.88 90.74,14.9973333 90.404,15.088 C90.068,15.1786667 89.676,15.224 89.228,15.224 C89.0146667,15.224 88.7666667,15.2 88.484,15.152 C88.2013333,15.104 87.9,15.024 87.58,14.912 C87.26,14.8 86.9373333,14.656 86.612,14.48 C86.2866667,14.304 85.9746667,14.088 85.676,13.832 L85.676,13.832 L84.332,15.24 C85.1213333,15.9226667 85.948,16.408 86.812,16.696 C87.676,16.984 88.4813333,17.128 89.228,17.128 Z M98.088,17 L98.088,5.8 L96.104,5.8 L96.104,17 L98.088,17 Z M102.868,17 L102.868,9.448 L109.7,17 L110.948,17 L110.948,5.8 L109.028,5.8 L109.028,13.4 L102.228,5.816 L100.948,5.8 L100.948,17 L102.868,17 Z M123.232,17 L118.224,10.808 L121.952,5.8 L119.504,5.8 L115.824,10.968 L120.736,17 L123.232,17 Z M115.808,17 L115.808,5.8 L113.808,5.8 L113.808,17 L115.808,17 Z M126.796,17 L126.796,5.8 L124.812,5.8 L124.812,17 L126.796,17 Z M63.704,33 L58.696,26.808 L62.424,21.8 L59.976,21.8 L56.296,26.968 L61.208,33 L63.704,33 Z M56.28,33 L56.28,21.8 L54.28,21.8 L54.28,33 L56.28,33 Z M70.1,33.144 C70.7506667,33.144 71.3746667,33.0293333 71.972,32.8 C72.5693333,32.5706667 73.0946667,32.24 73.548,31.808 C74.0013333,31.376 74.3613333,30.8506667 74.628,30.232 C74.8946667,29.6133333 75.028,28.92 75.028,28.152 L75.028,28.152 L75.028,21.8 L73.028,21.8 L73.028,28.152 C73.028,28.568 72.956,28.9626667 72.812,29.336 C72.668,29.7093333 72.4653333,30.0346667 72.204,30.312 C71.9426667,30.5893333 71.6333333,30.808 71.276,30.968 C70.9186667,31.128 70.532,31.208 70.116,31.208 C69.732,31.208 69.3666667,31.1413333 69.02,31.008 C68.6733333,30.8746667 68.3666667,30.68 68.1,30.424 C67.8333333,30.168 67.62,29.8506667 67.46,29.472 C67.3,29.0933333 67.22,28.6586667 67.22,28.168 L67.22,28.168 L67.22,21.8 L65.204,21.8 L65.204,28.136 C65.204,28.904 65.3373333,29.5973333 65.604,30.216 C65.8706667,30.8346667 66.228,31.36 66.676,31.792 C67.124,32.224 67.644,32.5573333 68.236,32.792 C68.828,33.0266667 69.4493333,33.144 70.1,33.144 Z M82.8,33 L87.824,21.8 L85.696,21.8 L82.256,29.528 L78.784,21.8 L76.688,21.8 L81.696,33 L82.8,33 Z M91.548,33 L91.548,21.8 L89.564,21.8 L89.564,33 L91.548,33 Z M95.224,33 L96.28,30.552 L101.096,30.552 L102.152,33 L104.248,33 L99.448,21.8 L95.8,21.8 L95.8,23.752 L97.08,23.752 L93.128,33 L95.224,33 Z M100.264,28.6 L97.096,28.6 L98.68,24.712 L100.264,28.6 Z M106.58,33.144 C106.932,33.144 107.230667,33.024 107.476,32.784 C107.721333,32.544 107.844,32.2586667 107.844,31.928 C107.844,31.576 107.721333,31.2773333 107.476,31.032 C107.230667,30.7866667 106.932,30.664 106.58,30.664 C106.238667,30.664 105.948,30.7866667 105.708,31.032 C105.468,31.2773333 105.348,31.576 105.348,31.928 C105.348,32.2586667 105.468,32.544 105.708,32.784 C105.948,33.024 106.238667,33.144 106.58,33.144 Z M112.368,33 L112.368,28.248 L115.6,28.248 L115.6,26.312 L112.368,26.312 L112.368,23.752 L117.392,23.752 L117.392,21.8 L110.368,21.8 L110.368,33 L112.368,33 Z M121.276,33 L121.276,21.8 L119.292,21.8 L119.292,33 L121.276,33 Z" id="HelsinkiKuvia.fi" fill="#00C77B" fill-rule="nonzero"></path>
        </g>
    </g>
</svg>