<?xml version="1.0" encoding="UTF-8"?>
<svg width="220px" height="39px" viewBox="0 0 220 39" version="1.1" xmlns="http://www.w3.org/2000/svg" xmlns:xlink="http://www.w3.org/1999/xlink">
    <title>Group 3</title>
    <defs>
        <polygon id="path-1" points="0 0 40 0 40 39 0 39"></polygon>
    </defs>
    <g id="Symbols" stroke="none" stroke-width="1" fill="none" fill-rule="evenodd">
        <g id="Group-3">
            <g id="Kaupunginmusero-Copy-3">
                <mask id="mask-2" fill="white">
                    <use xlink:href="#path-1"></use>
                </mask>
                <g id="Clip-2"></g>
                <path d="M40,39 L40,0 L25.4067698,0 L25.4067698,12.5772593 C23.1807432,11.9037105 21.1061654,12.8193208 20,13.6473605 C18.8938346,12.8193208 16.8190975,11.9037105 14.5932302,12.5772593 L14.5932302,0 L0,0 L0,39 L14.5932302,39 L14.5932302,25.5617844 L19.9998407,28.9031332 L20,28.9031332 L20.0001593,28.9031332 L25.4067698,25.5617844 L25.4067698,39 L40,39 Z M38.1099955,37.1568238 L27.2967743,37.1568238 L27.2967743,22.0688948 L20.0001593,26.6758261 L20,26.6758261 L19.9998407,26.6758261 L12.7032257,22.0688948 L12.7032257,37.1568238 L1.89000454,37.1568238 L1.89000454,1.84348674 L12.7032257,1.84348674 L12.7032257,15.5694124 C13.5464658,14.7269329 14.7188801,14.2001115 16.0175814,14.2001115 C17.7175982,14.2001115 19.1911583,15.1067163 20,16.4413926 C20.8086824,15.1067163 22.2822426,14.2001115 23.9822593,14.2001115 C25.2811199,14.2001115 26.4535342,14.7269329 27.2967743,15.5694124 L27.2967743,1.84348674 L38.1099955,1.84348674 L38.1099955,37.1568238 Z" id="Fill-1" fill="#00C77B" mask="url(#mask-2)"></path>
            </g>
            <path d="M56.28,17 L56.28,12.344 L62.312,12.344 L62.312,17 L64.312,17 L64.312,5.8 L62.312,5.8 L62.312,10.392 L56.28,10.392 L56.28,5.8 L54.28,5.8 L54.28,17 L56.28,17 Z M74.372,17 L74.372,15.048 L69.172,15.048 L69.172,12.248 L72.42,12.248 L72.42,10.312 L69.172,10.312 L69.172,7.752 L74.228,7.752 L74.228,5.8 L67.172,5.8 L67.172,17 L74.372,17 Z M83.408,17 L83.408,15.048 L78.592,15.048 L78.592,5.8 L76.592,5.8 L76.592,17 L83.408,17 Z M89.228,17.128 C89.9426667,17.128 90.588,17.04 91.164,16.864 C91.74,16.688 92.2306667,16.448 92.636,16.144 C93.0413333,15.84 93.3533333,15.4853333 93.572,15.08 C93.7906667,14.6746667 93.9,14.2373333 93.9,13.768 C93.9,13.224 93.7826667,12.768 93.548,12.4 C93.3133333,12.032 93.0013333,11.7146667 92.612,11.448 C92.2226667,11.1813333 91.7773333,10.952 91.276,10.76 C90.7746667,10.568 90.252,10.3813333 89.708,10.2 C89.452,10.1146667 89.172,10.0213333 88.868,9.92 C88.564,9.81866667 88.2786667,9.70666667 88.012,9.584 C87.7453333,9.46133333 87.5213333,9.32266667 87.34,9.168 C87.1586667,9.01333333 87.068,8.84 87.068,8.648 C87.068,8.52 87.1,8.38933333 87.164,8.256 C87.228,8.12266667 87.34,7.99733333 87.5,7.88 C87.66,7.76266667 87.8786667,7.66666667 88.156,7.592 C88.4333333,7.51733333 88.7853333,7.48 89.212,7.48 C89.5106667,7.48 89.8066667,7.51733333 90.1,7.592 C90.3933333,7.66666667 90.668,7.76 90.924,7.872 C91.18,7.984 91.4146667,8.10133333 91.628,8.224 C91.8413333,8.34666667 92.0226667,8.46133333 92.172,8.568 L92.172,8.568 L93.404,7.24 C93.2226667,7.08 92.9826667,6.90666667 92.684,6.72 C92.3853333,6.53333333 92.0466667,6.36 91.668,6.2 C91.2893333,6.04 90.8893333,5.90933333 90.468,5.808 C90.0466667,5.70666667 89.628,5.656 89.212,5.656 C88.4973333,5.656 87.8786667,5.74666667 87.356,5.928 C86.8333333,6.10933333 86.404,6.344 86.068,6.632 C85.732,6.92 85.4813333,7.24266667 85.316,7.6 C85.1506667,7.95733333 85.068,8.312 85.068,8.664 C85.068,9.144 85.18,9.56 85.404,9.912 C85.628,10.264 85.9266667,10.5733333 86.3,10.84 C86.6733333,11.1066667 87.1,11.336 87.58,11.528 C88.06,11.72 88.5506667,11.896 89.052,12.056 C89.3293333,12.152 89.6333333,12.248 89.964,12.344 C90.2946667,12.44 90.604,12.552 90.892,12.68 C91.18,12.808 91.42,12.9573333 91.612,13.128 C91.804,13.2986667 91.9,13.512 91.9,13.768 C91.9,13.928 91.844,14.0933333 91.732,14.264 C91.62,14.4346667 91.4546667,14.592 91.236,14.736 C91.0173333,14.88 90.74,14.9973333 90.404,15.088 C90.068,15.1786667 89.676,15.224 89.228,15.224 C89.0146667,15.224 88.7666667,15.2 88.484,15.152 C88.2013333,15.104 87.9,15.024 87.58,14.912 C87.26,14.8 86.9373333,14.656 86.612,14.48 C86.2866667,14.304 85.9746667,14.088 85.676,13.832 L85.676,13.832 L84.332,15.24 C85.1213333,15.9226667 85.948,16.408 86.812,16.696 C87.676,16.984 88.4813333,17.128 89.228,17.128 Z M98.088,17 L98.088,5.8 L96.104,5.8 L96.104,17 L98.088,17 Z M102.868,17 L102.868,9.448 L109.7,17 L110.948,17 L110.948,5.8 L109.028,5.8 L109.028,13.4 L102.228,5.816 L100.948,5.8 L100.948,17 L102.868,17 Z M123.232,17 L118.224,10.808 L121.952,5.8 L119.504,5.8 L115.824,10.968 L120.736,17 L123.232,17 Z M115.808,17 L115.808,5.8 L113.808,5.8 L113.808,17 L115.808,17 Z M126.796,17 L126.796,5.8 L124.812,5.8 L124.812,17 L126.796,17 Z M56.28,33 L56.28,29.624 L59.512,29.624 C60.12,29.6346667 60.6666667,29.5386667 61.152,29.336 C61.6373333,29.1333333 62.0506667,28.856 62.392,28.504 C62.7333333,28.152 62.9946667,27.736 63.176,27.256 C63.3573333,26.776 63.448,26.264 63.448,25.72 C63.448,25.1653333 63.3573333,24.6506667 63.176,24.176 C62.9946667,23.7013333 62.7306667,23.288 62.384,22.936 C62.0373333,22.584 61.616,22.3066667 61.12,22.104 C60.624,21.9013333 60.0666667,21.8 59.448,21.8 L59.448,21.8 L54.28,21.8 L54.28,33 L56.28,33 Z M59.416,27.688 L56.28,27.688 L56.28,23.752 L59.448,23.752 C59.7573333,23.752 60.0373333,23.8053333 60.288,23.912 C60.5386667,24.0186667 60.752,24.1653333 60.928,24.352 C61.104,24.5386667 61.2373333,24.7493333 61.328,24.984 C61.4186667,25.2186667 61.464,25.464 61.464,25.72 C61.464,26.0933333 61.4106667,26.408 61.304,26.664 C61.1973333,26.92 61.0506667,27.1226667 60.864,27.272 C60.6773333,27.4213333 60.4586667,27.528 60.208,27.592 C59.9573333,27.656 59.6933333,27.688 59.416,27.688 L59.416,27.688 Z M67.332,33 L67.332,21.8 L65.348,21.8 L65.348,33 L67.332,33 Z M75.136,33.144 C75.6266667,33.144 76.12,33.0773333 76.616,32.944 C77.112,32.8106667 77.5866667,32.6133333 78.04,32.352 C78.4933333,32.0906667 78.9173333,31.7653333 79.312,31.376 C79.7066667,30.9866667 80.0533333,30.5306667 80.352,30.008 L80.352,30.008 L78.416,29.304 C78.0213333,29.9226667 77.528,30.3946667 76.936,30.72 C76.344,31.0453333 75.744,31.208 75.136,31.208 C74.656,31.208 74.192,31.1146667 73.744,30.928 C73.296,30.7413333 72.896,30.4853333 72.544,30.16 C72.192,29.8346667 71.9093333,29.4426667 71.696,28.984 C71.4826667,28.5253333 71.376,28.024 71.376,27.48 C71.376,26.8933333 71.48,26.3626667 71.688,25.888 C71.896,25.4133333 72.1733333,25.0053333 72.52,24.664 C72.8666667,24.3226667 73.2666667,24.0586667 73.72,23.872 C74.1733333,23.6853333 74.6453333,23.592 75.136,23.592 C75.68,23.592 76.2266667,23.7653333 76.776,24.112 C77.3253333,24.4586667 77.7973333,24.9626667 78.192,25.624 L78.192,25.624 L80.064,24.872 C79.7653333,24.36 79.424,23.904 79.04,23.504 C78.656,23.104 78.2506667,22.768 77.824,22.496 C77.3973333,22.224 76.9546667,22.016 76.496,21.872 C76.0373333,21.728 75.584,21.656 75.136,21.656 C74.4106667,21.656 73.7013333,21.7946667 73.008,22.072 C72.3146667,22.3493333 71.7013333,22.7413333 71.168,23.248 C70.6346667,23.7546667 70.2053333,24.3653333 69.88,25.08 C69.5546667,25.7946667 69.392,26.5946667 69.392,27.48 C69.392,28.376 69.5626667,29.176 69.904,29.88 C70.2453333,30.584 70.688,31.176 71.232,31.656 C71.776,32.136 72.3893333,32.504 73.072,32.76 C73.7546667,33.016 74.4426667,33.144 75.136,33.144 Z M87.228,33 L87.228,23.752 L91.052,23.752 L91.052,21.8 L81.372,21.8 L81.372,23.752 L85.228,23.752 L85.228,33 L87.228,33 Z M97.848,33.144 C98.4986667,33.144 99.1226667,33.0293333 99.72,32.8 C100.317333,32.5706667 100.842667,32.24 101.296,31.808 C101.749333,31.376 102.109333,30.8506667 102.376,30.232 C102.642667,29.6133333 102.776,28.92 102.776,28.152 L102.776,28.152 L102.776,21.8 L100.776,21.8 L100.776,28.152 C100.776,28.568 100.704,28.9626667 100.56,29.336 C100.416,29.7093333 100.213333,30.0346667 99.952,30.312 C99.6906667,30.5893333 99.3813333,30.808 99.024,30.968 C98.6666667,31.128 98.28,31.208 97.864,31.208 C97.48,31.208 97.1146667,31.1413333 96.768,31.008 C96.4213333,30.8746667 96.1146667,30.68 95.848,30.424 C95.5813333,30.168 95.368,29.8506667 95.208,29.472 C95.048,29.0933333 94.968,28.6586667 94.968,28.168 L94.968,28.168 L94.968,21.8 L92.952,21.8 L92.952,28.136 C92.952,28.904 93.0853333,29.5973333 93.352,30.216 C93.6186667,30.8346667 93.976,31.36 94.424,31.792 C94.872,32.224 95.392,32.5573333 95.984,32.792 C96.576,33.0266667 97.1973333,33.144 97.848,33.144 Z M107.556,33 L107.556,29.32 L109.172,29.32 L113.156,33 L115.764,33 L111.78,29.304 C112.196,29.2613333 112.582667,29.1466667 112.94,28.96 C113.297333,28.7733333 113.609333,28.5253333 113.876,28.216 C114.142667,27.9066667 114.350667,27.5413333 114.5,27.12 C114.649333,26.6986667 114.724,26.232 114.724,25.72 C114.724,25.1653333 114.633333,24.6506667 114.452,24.176 C114.270667,23.7013333 114.006667,23.288 113.66,22.936 C113.313333,22.584 112.892,22.3066667 112.396,22.104 C111.9,21.9013333 111.342667,21.8 110.724,21.8 L110.724,21.8 L105.556,21.8 L105.556,33 L107.556,33 Z M110.692,27.528 L107.556,27.528 L107.556,23.752 L110.724,23.752 C111.033333,23.752 111.313333,23.8053333 111.564,23.912 C111.814667,24.0186667 112.028,24.1653333 112.204,24.352 C112.38,24.5386667 112.513333,24.7493333 112.604,24.984 C112.694667,25.2186667 112.74,25.464 112.74,25.72 C112.74,26.0933333 112.686667,26.3946667 112.58,26.624 C112.473333,26.8533333 112.326667,27.0373333 112.14,27.176 C111.953333,27.3146667 111.734667,27.408 111.484,27.456 C111.233333,27.504 110.969333,27.528 110.692,27.528 L110.692,27.528 Z M124.384,33 L124.384,31.048 L119.184,31.048 L119.184,28.248 L122.432,28.248 L122.432,26.312 L119.184,26.312 L119.184,23.752 L124.24,23.752 L124.24,21.8 L117.184,21.8 L117.184,33 L124.384,33 Z M130.444,33.128 C131.158667,33.128 131.804,33.04 132.38,32.864 C132.956,32.688 133.446667,32.448 133.852,32.144 C134.257333,31.84 134.569333,31.4853333 134.788,31.08 C135.006667,30.6746667 135.116,30.2373333 135.116,29.768 C135.116,29.224 134.998667,28.768 134.764,28.4 C134.529333,28.032 134.217333,27.7146667 133.828,27.448 C133.438667,27.1813333 132.993333,26.952 132.492,26.76 C131.990667,26.568 131.468,26.3813333 130.924,26.2 C130.668,26.1146667 130.388,26.0213333 130.084,25.92 C129.78,25.8186667 129.494667,25.7066667 129.228,25.584 C128.961333,25.4613333 128.737333,25.3226667 128.556,25.168 C128.374667,25.0133333 128.284,24.84 128.284,24.648 C128.284,24.52 128.316,24.3893333 128.38,24.256 C128.444,24.1226667 128.556,23.9973333 128.716,23.88 C128.876,23.7626667 129.094667,23.6666667 129.372,23.592 C129.649333,23.5173333 130.001333,23.48 130.428,23.48 C130.726667,23.48 131.022667,23.5173333 131.316,23.592 C131.609333,23.6666667 131.884,23.76 132.14,23.872 C132.396,23.984 132.630667,24.1013333 132.844,24.224 C133.057333,24.3466667 133.238667,24.4613333 133.388,24.568 L133.388,24.568 L134.62,23.24 C134.438667,23.08 134.198667,22.9066667 133.9,22.72 C133.601333,22.5333333 133.262667,22.36 132.884,22.2 C132.505333,22.04 132.105333,21.9093333 131.684,21.808 C131.262667,21.7066667 130.844,21.656 130.428,21.656 C129.713333,21.656 129.094667,21.7466667 128.572,21.928 C128.049333,22.1093333 127.62,22.344 127.284,22.632 C126.948,22.92 126.697333,23.2426667 126.532,23.6 C126.366667,23.9573333 126.284,24.312 126.284,24.664 C126.284,25.144 126.396,25.56 126.62,25.912 C126.844,26.264 127.142667,26.5733333 127.516,26.84 C127.889333,27.1066667 128.316,27.336 128.796,27.528 C129.276,27.72 129.766667,27.896 130.268,28.056 C130.545333,28.152 130.849333,28.248 131.18,28.344 C131.510667,28.44 131.82,28.552 132.108,28.68 C132.396,28.808 132.636,28.9573333 132.828,29.128 C133.02,29.2986667 133.116,29.512 133.116,29.768 C133.116,29.928 133.06,30.0933333 132.948,30.264 C132.836,30.4346667 132.670667,30.592 132.452,30.736 C132.233333,30.88 131.956,30.9973333 131.62,31.088 C131.284,31.1786667 130.892,31.224 130.444,31.224 C130.230667,31.224 129.982667,31.2 129.7,31.152 C129.417333,31.104 129.116,31.024 128.796,30.912 C128.476,30.8 128.153333,30.656 127.828,30.48 C127.502667,30.304 127.190667,30.088 126.892,29.832 L126.892,29.832 L125.548,31.24 C126.337333,31.9226667 127.164,32.408 128.028,32.696 C128.892,32.984 129.697333,33.128 130.444,33.128 Z M138.072,33.144 C138.424,33.144 138.722667,33.024 138.968,32.784 C139.213333,32.544 139.336,32.2586667 139.336,31.928 C139.336,31.576 139.213333,31.2773333 138.968,31.032 C138.722667,30.7866667 138.424,30.664 138.072,30.664 C137.730667,30.664 137.44,30.7866667 137.2,31.032 C136.96,31.2773333 136.84,31.576 136.84,31.928 C136.84,32.2586667 136.96,32.544 137.2,32.784 C137.44,33.024 137.730667,33.144 138.072,33.144 Z M143.86,33 L143.86,28.248 L147.092,28.248 L147.092,26.312 L143.86,26.312 L143.86,23.752 L148.884,23.752 L148.884,21.8 L141.86,21.8 L141.86,33 L143.86,33 Z M152.768,33 L152.768,21.8 L150.784,21.8 L150.784,33 L152.768,33 Z" id="HElsinkiPictures.fi" fill="#00C77B" fill-rule="nonzero"></path>
        </g>
    </g>
</svg>