<?xml version="1.0" encoding="UTF-8"?>
<svg width="27px" height="24px" viewBox="0 0 27 24" version="1.1" xmlns="http://www.w3.org/2000/svg" xmlns:xlink="http://www.w3.org/1999/xlink">
    <title>Icons/Like/24</title>
    <defs>
        <filter id="filter-1">
            <feColorMatrix in="SourceGraphic" type="matrix" values="0 0 0 0 0.000000 0 0 0 0 0.000000 0 0 0 0 0.000000 0 0 0 1.000000 0"></feColorMatrix>
        </filter>
        <polygon id="path-2" points="4.60526316e-05 4.60526316e-05 26.1086184 4.60526316e-05 26.1086184 23.2459868 4.60526316e-05 23.2459868"></polygon>
    </defs>
    <g id="Symbols" stroke="none" stroke-width="1" fill="none" fill-rule="evenodd">
        <g id="Image-wide" transform="translate(-292.000000, -301.000000)">
            <g id="Icons/Like/24" transform="translate(291.000000, 299.000000)" filter="url(#filter-1)">
                <g id="Group-3" transform="translate(1.166667, 2.333333)">
                    <mask id="mask-3" fill="white">
                        <use xlink:href="#path-2"></use>
                    </mask>
                    <g id="Clip-2"></g>
                    <path d="M22.5814934,11.0913158 C21.121625,12.5511842 19.7695197,13.7430263 18.4611645,14.8957237 C16.6273487,16.5117105 14.8930066,18.0401974 13.0545855,20.11625 C11.2161645,18.0406579 9.48090132,16.5117105 7.646625,14.8948026 C6.33826974,13.7425658 4.98616447,12.5507237 3.52721711,11.0913158 C2.51958553,10.0836842 1.96419079,8.74078947 1.96419079,7.31085526 C1.96419079,5.88092105 2.51958553,4.53802632 3.52721711,3.53039474 C4.53669079,2.52046053 5.88050658,1.96460526 7.31136184,1.96460526 C11.0978092,1.96460526 12.3614934,5.24355263 13.0559671,6.47177632 C13.7513618,5.24355263 15.014125,1.96460526 18.8010329,1.96460526 C20.2295855,1.96460526 21.5720197,2.52046053 22.5814934,3.53039474 C23.589125,4.53802632 24.1445197,5.88092105 24.1445197,7.31085526 C24.1445197,8.74078947 23.589125,10.0836842 22.5814934,11.0913158 M23.9704408,2.14144737 C22.5902434,0.760328947 20.754125,0 18.8010329,0 C15.3475461,0 13.6076776,2.09907895 13.0559671,2.92618421 C12.5047171,2.09907895 10.7653092,0 7.31136184,0 L7.30721711,0 C5.35458553,0 3.51846711,0.760328947 2.13780921,2.14098684 C0.759453947,3.52026316 4.60526316e-05,5.35592105 4.60526316e-05,7.31085526 C4.60526316e-05,9.26578947 0.759453947,11.1014474 2.13780921,12.4807237 C3.64004605,13.9825 5.01655921,15.1955263 6.34794079,16.3689474 C8.22458553,18.0226974 9.99715132,19.5848026 11.855375,21.7290132 C12.0685987,21.9749342 12.8722171,23.0111184 12.8805066,23.0217105 L13.054125,23.2459868 L13.2277434,23.0217105 C13.2360329,23.0111184 14.0396513,21.9749342 14.252875,21.7290132 C16.1115592,19.5848026 17.884125,18.0226974 19.7607697,16.3689474 C21.0921513,15.1955263 22.4686645,13.9825 23.9704408,12.4802632 C25.3492566,11.1014474 26.1086645,9.26578947 26.1086645,7.31085526 C26.1086645,5.35592105 25.3492566,3.52026316 23.9704408,2.14144737" id="Fill-1" fill="#000000" mask="url(#mask-3)"></path>
                </g>
            </g>
        </g>
    </g>
</svg>