<?xml version="1.0" encoding="UTF-8"?>
<svg width="220px" height="39px" viewBox="0 0 220 39" version="1.1" xmlns="http://www.w3.org/2000/svg" xmlns:xlink="http://www.w3.org/1999/xlink">
    <title>Group 6</title>
    <defs>
        <polygon id="path-1" points="0 0 40 0 40 39 0 39"></polygon>
    </defs>
    <g id="Symbols" stroke="none" stroke-width="1" fill="none" fill-rule="evenodd">
        <g id="Group-6">
            <g id="Kaupunginmusero">
                <mask id="mask-2" fill="white">
                    <use xlink:href="#path-1"></use>
                </mask>
                <g id="Clip-2"></g>
                <path d="M40,39 L40,0 L25.4067698,0 L25.4067698,12.5772593 C23.1807432,11.9037105 21.1061654,12.8193208 20,13.6473605 C18.8938346,12.8193208 16.8190975,11.9037105 14.5932302,12.5772593 L14.5932302,0 L0,0 L0,39 L14.5932302,39 L14.5932302,25.5617844 L19.9998407,28.9031332 L20,28.9031332 L20.0001593,28.9031332 L25.4067698,25.5617844 L25.4067698,39 L40,39 Z M38.1099955,37.1568238 L27.2967743,37.1568238 L27.2967743,22.0688948 L20.0001593,26.6758261 L20,26.6758261 L19.9998407,26.6758261 L12.7032257,22.0688948 L12.7032257,37.1568238 L1.89000454,37.1568238 L1.89000454,1.84348674 L12.7032257,1.84348674 L12.7032257,15.5694124 C13.5464658,14.7269329 14.7188801,14.2001115 16.0175814,14.2001115 C17.7175982,14.2001115 19.1911583,15.1067163 20,16.4413926 C20.8086824,15.1067163 22.2822426,14.2001115 23.9822593,14.2001115 C25.2811199,14.2001115 26.4535342,14.7269329 27.2967743,15.5694124 L27.2967743,1.84348674 L38.1099955,1.84348674 L38.1099955,37.1568238 Z" id="Fill-1" fill="#00C77B" mask="url(#mask-2)"></path>
            </g>
            <path d="M56.28,17 L56.28,12.344 L62.312,12.344 L62.312,17 L64.312,17 L64.312,5.8 L62.312,5.8 L62.312,10.392 L56.28,10.392 L56.28,5.8 L54.28,5.8 L54.28,17 L56.28,17 Z M74.372,17 L74.372,15.048 L69.172,15.048 L69.172,12.248 L72.42,12.248 L72.42,10.312 L69.172,10.312 L69.172,7.752 L74.228,7.752 L74.228,5.8 L67.172,5.8 L67.172,17 L74.372,17 Z M83.408,17 L83.408,15.048 L78.592,15.048 L78.592,5.8 L76.592,5.8 L76.592,17 L83.408,17 Z M89.228,17.128 C89.9426667,17.128 90.588,17.04 91.164,16.864 C91.74,16.688 92.2306667,16.448 92.636,16.144 C93.0413333,15.84 93.3533333,15.4853333 93.572,15.08 C93.7906667,14.6746667 93.9,14.2373333 93.9,13.768 C93.9,13.224 93.7826667,12.768 93.548,12.4 C93.3133333,12.032 93.0013333,11.7146667 92.612,11.448 C92.2226667,11.1813333 91.7773333,10.952 91.276,10.76 C90.7746667,10.568 90.252,10.3813333 89.708,10.2 C89.452,10.1146667 89.172,10.0213333 88.868,9.92 C88.564,9.81866667 88.2786667,9.70666667 88.012,9.584 C87.7453333,9.46133333 87.5213333,9.32266667 87.34,9.168 C87.1586667,9.01333333 87.068,8.84 87.068,8.648 C87.068,8.52 87.1,8.38933333 87.164,8.256 C87.228,8.12266667 87.34,7.99733333 87.5,7.88 C87.66,7.76266667 87.8786667,7.66666667 88.156,7.592 C88.4333333,7.51733333 88.7853333,7.48 89.212,7.48 C89.5106667,7.48 89.8066667,7.51733333 90.1,7.592 C90.3933333,7.66666667 90.668,7.76 90.924,7.872 C91.18,7.984 91.4146667,8.10133333 91.628,8.224 C91.8413333,8.34666667 92.0226667,8.46133333 92.172,8.568 L92.172,8.568 L93.404,7.24 C93.2226667,7.08 92.9826667,6.90666667 92.684,6.72 C92.3853333,6.53333333 92.0466667,6.36 91.668,6.2 C91.2893333,6.04 90.8893333,5.90933333 90.468,5.808 C90.0466667,5.70666667 89.628,5.656 89.212,5.656 C88.4973333,5.656 87.8786667,5.74666667 87.356,5.928 C86.8333333,6.10933333 86.404,6.344 86.068,6.632 C85.732,6.92 85.4813333,7.24266667 85.316,7.6 C85.1506667,7.95733333 85.068,8.312 85.068,8.664 C85.068,9.144 85.18,9.56 85.404,9.912 C85.628,10.264 85.9266667,10.5733333 86.3,10.84 C86.6733333,11.1066667 87.1,11.336 87.58,11.528 C88.06,11.72 88.5506667,11.896 89.052,12.056 C89.3293333,12.152 89.6333333,12.248 89.964,12.344 C90.2946667,12.44 90.604,12.552 90.892,12.68 C91.18,12.808 91.42,12.9573333 91.612,13.128 C91.804,13.2986667 91.9,13.512 91.9,13.768 C91.9,13.928 91.844,14.0933333 91.732,14.264 C91.62,14.4346667 91.4546667,14.592 91.236,14.736 C91.0173333,14.88 90.74,14.9973333 90.404,15.088 C90.068,15.1786667 89.676,15.224 89.228,15.224 C89.0146667,15.224 88.7666667,15.2 88.484,15.152 C88.2013333,15.104 87.9,15.024 87.58,14.912 C87.26,14.8 86.9373333,14.656 86.612,14.48 C86.2866667,14.304 85.9746667,14.088 85.676,13.832 L85.676,13.832 L84.332,15.24 C85.1213333,15.9226667 85.948,16.408 86.812,16.696 C87.676,16.984 88.4813333,17.128 89.228,17.128 Z M98.088,17 L98.088,5.8 L96.104,5.8 L96.104,17 L98.088,17 Z M102.868,17 L102.868,9.448 L109.7,17 L110.948,17 L110.948,5.8 L109.028,5.8 L109.028,13.4 L102.228,5.816 L100.948,5.8 L100.948,17 L102.868,17 Z M118.768,17.144 C119.258667,17.144 119.741333,17.0826667 120.216,16.96 C120.690667,16.8373333 121.141333,16.6586667 121.568,16.424 C121.994667,16.1893333 122.389333,15.896 122.752,15.544 C123.114667,15.192 123.424,14.7813333 123.68,14.312 L123.68,14.312 L123.68,10.776 L120.384,10.776 L120.384,12.728 L121.728,12.728 L121.728,13.688 C121.386667,14.1786667 120.952,14.5573333 120.424,14.824 C119.896,15.0906667 119.344,15.224 118.768,15.224 C118.277333,15.224 117.808,15.1306667 117.36,14.944 C116.912,14.7573333 116.514667,14.4986667 116.168,14.168 C115.821333,13.8373333 115.544,13.4426667 115.336,12.984 C115.128,12.5253333 115.024,12.024 115.024,11.48 C115.024,10.8933333 115.128,10.3626667 115.336,9.888 C115.544,9.41333333 115.821333,9.00533333 116.168,8.664 C116.514667,8.32266667 116.912,8.05866667 117.36,7.872 C117.808,7.68533333 118.277333,7.592 118.768,7.592 C119.312,7.592 119.864,7.76533333 120.424,8.112 C120.984,8.45866667 121.461333,8.96266667 121.856,9.624 L121.856,9.624 L123.728,8.872 C123.429333,8.36 123.085333,7.904 122.696,7.504 C122.306667,7.104 121.896,6.768 121.464,6.496 C121.032,6.224 120.586667,6.016 120.128,5.872 C119.669333,5.728 119.216,5.656 118.768,5.656 C118.032,5.656 117.32,5.79466667 116.632,6.072 C115.944,6.34933333 115.330667,6.74133333 114.792,7.248 C114.253333,7.75466667 113.821333,8.36533333 113.496,9.08 C113.170667,9.79466667 113.008,10.5946667 113.008,11.48 C113.008,12.376 113.178667,13.176 113.52,13.88 C113.861333,14.584 114.304,15.176 114.848,15.656 C115.392,16.136 116.008,16.504 116.696,16.76 C117.384,17.016 118.074667,17.144 118.768,17.144 Z M128.252,17 L128.252,5.8 L126.268,5.8 L126.268,17 L128.252,17 Z M133.032,17 L133.032,9.448 L139.864,17 L141.112,17 L141.112,5.8 L139.192,5.8 L139.192,13.4 L132.392,5.816 L131.112,5.8 L131.112,17 L133.032,17 Z M63.704,33 L58.696,26.808 L62.424,21.8 L59.976,21.8 L56.296,26.968 L61.208,33 L63.704,33 Z M56.28,33 L56.28,21.8 L54.28,21.8 L54.28,33 L56.28,33 Z M66.1,33 L67.156,30.552 L71.972,30.552 L73.028,33 L75.124,33 L70.324,21.8 L66.676,21.8 L66.676,23.752 L67.956,23.752 L64.004,33 L66.1,33 Z M71.14,28.6 L67.972,28.6 L69.556,24.712 L71.14,28.6 Z M81.52,33.144 C82.1706667,33.144 82.7946667,33.0293333 83.392,32.8 C83.9893333,32.5706667 84.5146667,32.24 84.968,31.808 C85.4213333,31.376 85.7813333,30.8506667 86.048,30.232 C86.3146667,29.6133333 86.448,28.92 86.448,28.152 L86.448,28.152 L86.448,21.8 L84.448,21.8 L84.448,28.152 C84.448,28.568 84.376,28.9626667 84.232,29.336 C84.088,29.7093333 83.8853333,30.0346667 83.624,30.312 C83.3626667,30.5893333 83.0533333,30.808 82.696,30.968 C82.3386667,31.128 81.952,31.208 81.536,31.208 C81.152,31.208 80.7866667,31.1413333 80.44,31.008 C80.0933333,30.8746667 79.7866667,30.68 79.52,30.424 C79.2533333,30.168 79.04,29.8506667 78.88,29.472 C78.72,29.0933333 78.64,28.6586667 78.64,28.168 L78.64,28.168 L78.64,21.8 L76.624,21.8 L76.624,28.136 C76.624,28.904 76.7573333,29.5973333 77.024,30.216 C77.2906667,30.8346667 77.648,31.36 78.096,31.792 C78.544,32.224 79.064,32.5573333 79.656,32.792 C80.248,33.0266667 80.8693333,33.144 81.52,33.144 Z M91.228,33 L91.228,29.624 L94.46,29.624 C95.068,29.6346667 95.6146667,29.5386667 96.1,29.336 C96.5853333,29.1333333 96.9986667,28.856 97.34,28.504 C97.6813333,28.152 97.9426667,27.736 98.124,27.256 C98.3053333,26.776 98.396,26.264 98.396,25.72 C98.396,25.1653333 98.3053333,24.6506667 98.124,24.176 C97.9426667,23.7013333 97.6786667,23.288 97.332,22.936 C96.9853333,22.584 96.564,22.3066667 96.068,22.104 C95.572,21.9013333 95.0146667,21.8 94.396,21.8 L94.396,21.8 L89.228,21.8 L89.228,33 L91.228,33 Z M94.364,27.688 L91.228,27.688 L91.228,23.752 L94.396,23.752 C94.7053333,23.752 94.9853333,23.8053333 95.236,23.912 C95.4866667,24.0186667 95.7,24.1653333 95.876,24.352 C96.052,24.5386667 96.1853333,24.7493333 96.276,24.984 C96.3666667,25.2186667 96.412,25.464 96.412,25.72 C96.412,26.0933333 96.3586667,26.408 96.252,26.664 C96.1453333,26.92 95.9986667,27.1226667 95.812,27.272 C95.6253333,27.4213333 95.4066667,27.528 95.156,27.592 C94.9053333,27.656 94.6413333,27.688 94.364,27.688 L94.364,27.688 Z M105.112,33.144 C105.762667,33.144 106.386667,33.0293333 106.984,32.8 C107.581333,32.5706667 108.106667,32.24 108.56,31.808 C109.013333,31.376 109.373333,30.8506667 109.64,30.232 C109.906667,29.6133333 110.04,28.92 110.04,28.152 L110.04,28.152 L110.04,21.8 L108.04,21.8 L108.04,28.152 C108.04,28.568 107.968,28.9626667 107.824,29.336 C107.68,29.7093333 107.477333,30.0346667 107.216,30.312 C106.954667,30.5893333 106.645333,30.808 106.288,30.968 C105.930667,31.128 105.544,31.208 105.128,31.208 C104.744,31.208 104.378667,31.1413333 104.032,31.008 C103.685333,30.8746667 103.378667,30.68 103.112,30.424 C102.845333,30.168 102.632,29.8506667 102.472,29.472 C102.312,29.0933333 102.232,28.6586667 102.232,28.168 L102.232,28.168 L102.232,21.8 L100.216,21.8 L100.216,28.136 C100.216,28.904 100.349333,29.5973333 100.616,30.216 C100.882667,30.8346667 101.24,31.36 101.688,31.792 C102.136,32.224 102.656,32.5573333 103.248,32.792 C103.84,33.0266667 104.461333,33.144 105.112,33.144 Z M114.74,33 L114.74,25.448 L121.572,33 L122.82,33 L122.82,21.8 L120.9,21.8 L120.9,29.4 L114.1,21.816 L112.82,21.8 L112.82,33 L114.74,33 Z M130.64,33.144 C131.130667,33.144 131.613333,33.0826667 132.088,32.96 C132.562667,32.8373333 133.013333,32.6586667 133.44,32.424 C133.866667,32.1893333 134.261333,31.896 134.624,31.544 C134.986667,31.192 135.296,30.7813333 135.552,30.312 L135.552,30.312 L135.552,26.776 L132.256,26.776 L132.256,28.728 L133.6,28.728 L133.6,29.688 C133.258667,30.1786667 132.824,30.5573333 132.296,30.824 C131.768,31.0906667 131.216,31.224 130.64,31.224 C130.149333,31.224 129.68,31.1306667 129.232,30.944 C128.784,30.7573333 128.386667,30.4986667 128.04,30.168 C127.693333,29.8373333 127.416,29.4426667 127.208,28.984 C127,28.5253333 126.896,28.024 126.896,27.48 C126.896,26.8933333 127,26.3626667 127.208,25.888 C127.416,25.4133333 127.693333,25.0053333 128.04,24.664 C128.386667,24.3226667 128.784,24.0586667 129.232,23.872 C129.68,23.6853333 130.149333,23.592 130.64,23.592 C131.184,23.592 131.736,23.7653333 132.296,24.112 C132.856,24.4586667 133.333333,24.9626667 133.728,25.624 L133.728,25.624 L135.6,24.872 C135.301333,24.36 134.957333,23.904 134.568,23.504 C134.178667,23.104 133.768,22.768 133.336,22.496 C132.904,22.224 132.458667,22.016 132,21.872 C131.541333,21.728 131.088,21.656 130.64,21.656 C129.904,21.656 129.192,21.7946667 128.504,22.072 C127.816,22.3493333 127.202667,22.7413333 126.664,23.248 C126.125333,23.7546667 125.693333,24.3653333 125.368,25.08 C125.042667,25.7946667 124.88,26.5946667 124.88,27.48 C124.88,28.376 125.050667,29.176 125.392,29.88 C125.733333,30.584 126.176,31.176 126.72,31.656 C127.264,32.136 127.88,32.504 128.568,32.76 C129.256,33.016 129.946667,33.144 130.64,33.144 Z M140.124,33 L140.124,21.8 L138.14,21.8 L138.14,33 L140.124,33 Z M144.904,33 L144.904,25.448 L151.736,33 L152.984,33 L152.984,21.8 L151.064,21.8 L151.064,29.4 L144.264,21.816 L142.984,21.8 L142.984,33 L144.904,33 Z M157.748,33 L157.748,26.296 L161.028,33 L161.972,33 L165.236,26.28 L165.236,33 L167.156,33 L167.156,21.8 L165.428,21.8 C165.076,22.4506667 164.74,23.112 164.42,23.784 C164.1,24.456 163.782667,25.128 163.468,25.8 L162.994,26.808 L162.994,26.808 L162.516,27.816 C162.196,28.488 161.854667,29.1546667 161.492,29.816 L161.492,29.816 L157.588,21.8 L155.844,21.8 L155.844,33 L157.748,33 Z M174.832,33.144 C175.482667,33.144 176.106667,33.0293333 176.704,32.8 C177.301333,32.5706667 177.826667,32.24 178.28,31.808 C178.733333,31.376 179.093333,30.8506667 179.36,30.232 C179.626667,29.6133333 179.76,28.92 179.76,28.152 L179.76,28.152 L179.76,21.8 L177.76,21.8 L177.76,28.152 C177.76,28.568 177.688,28.9626667 177.544,29.336 C177.4,29.7093333 177.197333,30.0346667 176.936,30.312 C176.674667,30.5893333 176.365333,30.808 176.008,30.968 C175.650667,31.128 175.264,31.208 174.848,31.208 C174.464,31.208 174.098667,31.1413333 173.752,31.008 C173.405333,30.8746667 173.098667,30.68 172.832,30.424 C172.565333,30.168 172.352,29.8506667 172.192,29.472 C172.032,29.0933333 171.952,28.6586667 171.952,28.168 L171.952,28.168 L171.952,21.8 L169.936,21.8 L169.936,28.136 C169.936,28.904 170.069333,29.5973333 170.336,30.216 C170.602667,30.8346667 170.96,31.36 171.408,31.792 C171.856,32.224 172.376,32.5573333 172.968,32.792 C173.56,33.0266667 174.181333,33.144 174.832,33.144 Z M186.38,33.128 C187.094667,33.128 187.74,33.04 188.316,32.864 C188.892,32.688 189.382667,32.448 189.788,32.144 C190.193333,31.84 190.505333,31.4853333 190.724,31.08 C190.942667,30.6746667 191.052,30.2373333 191.052,29.768 C191.052,29.224 190.934667,28.768 190.7,28.4 C190.465333,28.032 190.153333,27.7146667 189.764,27.448 C189.374667,27.1813333 188.929333,26.952 188.428,26.76 C187.926667,26.568 187.404,26.3813333 186.86,26.2 C186.604,26.1146667 186.324,26.0213333 186.02,25.92 C185.716,25.8186667 185.430667,25.7066667 185.164,25.584 C184.897333,25.4613333 184.673333,25.3226667 184.492,25.168 C184.310667,25.0133333 184.22,24.84 184.22,24.648 C184.22,24.52 184.252,24.3893333 184.316,24.256 C184.38,24.1226667 184.492,23.9973333 184.652,23.88 C184.812,23.7626667 185.030667,23.6666667 185.308,23.592 C185.585333,23.5173333 185.937333,23.48 186.364,23.48 C186.662667,23.48 186.958667,23.5173333 187.252,23.592 C187.545333,23.6666667 187.82,23.76 188.076,23.872 C188.332,23.984 188.566667,24.1013333 188.78,24.224 C188.993333,24.3466667 189.174667,24.4613333 189.324,24.568 L189.324,24.568 L190.556,23.24 C190.374667,23.08 190.134667,22.9066667 189.836,22.72 C189.537333,22.5333333 189.198667,22.36 188.82,22.2 C188.441333,22.04 188.041333,21.9093333 187.62,21.808 C187.198667,21.7066667 186.78,21.656 186.364,21.656 C185.649333,21.656 185.030667,21.7466667 184.508,21.928 C183.985333,22.1093333 183.556,22.344 183.22,22.632 C182.884,22.92 182.633333,23.2426667 182.468,23.6 C182.302667,23.9573333 182.22,24.312 182.22,24.664 C182.22,25.144 182.332,25.56 182.556,25.912 C182.78,26.264 183.078667,26.5733333 183.452,26.84 C183.825333,27.1066667 184.252,27.336 184.732,27.528 C185.212,27.72 185.702667,27.896 186.204,28.056 C186.481333,28.152 186.785333,28.248 187.116,28.344 C187.446667,28.44 187.756,28.552 188.044,28.68 C188.332,28.808 188.572,28.9573333 188.764,29.128 C188.956,29.2986667 189.052,29.512 189.052,29.768 C189.052,29.928 188.996,30.0933333 188.884,30.264 C188.772,30.4346667 188.606667,30.592 188.388,30.736 C188.169333,30.88 187.892,30.9973333 187.556,31.088 C187.22,31.1786667 186.828,31.224 186.38,31.224 C186.166667,31.224 185.918667,31.2 185.636,31.152 C185.353333,31.104 185.052,31.024 184.732,30.912 C184.412,30.8 184.089333,30.656 183.764,30.48 C183.438667,30.304 183.126667,30.088 182.828,29.832 L182.828,29.832 L181.484,31.24 C182.273333,31.9226667 183.1,32.408 183.964,32.696 C184.828,32.984 185.633333,33.128 186.38,33.128 Z M200.456,33 L200.456,31.048 L195.256,31.048 L195.256,28.248 L198.504,28.248 L198.504,26.312 L195.256,26.312 L195.256,23.752 L200.312,23.752 L200.312,21.8 L193.256,21.8 L193.256,33 L200.456,33 Z M207.572,33.144 C208.286667,33.144 208.985333,33.0106667 209.668,32.744 C210.350667,32.4773333 210.958667,32.096 211.492,31.6 C212.025333,31.104 212.452,30.496 212.772,29.776 C213.092,29.056 213.252,28.248 213.252,27.352 C213.252,26.4666667 213.092,25.672 212.772,24.968 C212.452,24.264 212.025333,23.6666667 211.492,23.176 C210.958667,22.6853333 210.350667,22.3093333 209.668,22.048 C208.985333,21.7866667 208.286667,21.656 207.572,21.656 C206.878667,21.656 206.193333,21.7866667 205.516,22.048 C204.838667,22.3093333 204.230667,22.6853333 203.692,23.176 C203.153333,23.6666667 202.716,24.264 202.38,24.968 C202.044,25.672 201.876,26.4666667 201.876,27.352 C201.876,28.248 202.044,29.056 202.38,29.776 C202.716,30.496 203.153333,31.104 203.692,31.6 C204.230667,32.096 204.838667,32.4773333 205.516,32.744 C206.193333,33.0106667 206.878667,33.144 207.572,33.144 Z M207.572,31.208 C207.081333,31.208 206.614667,31.1093333 206.172,30.912 C205.729333,30.7146667 205.337333,30.4453333 204.996,30.104 C204.654667,29.7626667 204.382667,29.3546667 204.18,28.88 C203.977333,28.4053333 203.876,27.896 203.876,27.352 C203.876,26.776 203.977333,26.256 204.18,25.792 C204.382667,25.328 204.654667,24.9333333 204.996,24.608 C205.337333,24.2826667 205.729333,24.032 206.172,23.856 C206.614667,23.68 207.081333,23.592 207.572,23.592 C208.041333,23.592 208.497333,23.68 208.94,23.856 C209.382667,24.032 209.774667,24.2826667 210.116,24.608 C210.457333,24.9333333 210.732,25.328 210.94,25.792 C211.148,26.256 211.252,26.776 211.252,27.352 C211.252,27.896 211.148,28.4053333 210.94,28.88 C210.732,29.3546667 210.457333,29.7626667 210.116,30.104 C209.774667,30.4453333 209.382667,30.7146667 208.94,30.912 C208.497333,31.1093333 208.041333,31.208 207.572,31.208 Z" id="HelsinginKaupunginmuseo" fill="#00C77B" fill-rule="nonzero"></path>
        </g>
    </g>
</svg>