<?xml version="1.0" encoding="utf-8"?>
<!-- Generator: Adobe Illustrator 24.0.1, SVG Export Plug-In . SVG Version: 6.00 Build 0)  -->
<svg version="1.1" id="Layer_1" xmlns="http://www.w3.org/2000/svg" xmlns:xlink="http://www.w3.org/1999/xlink" x="0px" y="0px"
	 viewBox="0 0 220 39" style="enable-background:new 0 0 220 39;" xml:space="preserve">
<style type="text/css">
	.st0{filter:url(#Adobe_OpacityMaskFilter);}
	.st1{fill-rule:evenodd;clip-rule:evenodd;fill:#FFFFFF;}
	.st2{mask:url(#mask-2_1_);fill:#00C77B;}
	.st3{fill:#00C77B;}
</style>
<title>Logo_sv</title>
<g id="Page-1">
	<g id="Logo_sv">
		<g id="Fill-1-Clipped">
			<g id="path-1_1_">
			</g>
			<defs>
				<filter id="Adobe_OpacityMaskFilter" filterUnits="userSpaceOnUse" x="0" y="0" width="40" height="39">
					<feColorMatrix  type="matrix" values="1 0 0 0 0  0 1 0 0 0  0 0 1 0 0  0 0 0 1 0"/>
				</filter>
			</defs>
			<mask maskUnits="userSpaceOnUse" x="0" y="0" width="40" height="39" id="mask-2_1_">
				<g class="st0">
					<polygon id="path-1_2_" class="st1" points="0,0 40,0 40,39 0,39 					"/>
				</g>
			</mask>
			<path id="Fill-1" class="st2" d="M40,39V0H25.4v12.6c-2.2-0.7-4.3,0.2-5.4,1.1c-1.1-0.8-3.2-1.7-5.4-1.1V0H0v39h14.6V25.6
				l5.4,3.3h0h0l5.4-3.3V39H40z M38.1,37.2H27.3V22.1L20,26.7h0h0l-7.3-4.6v15.1H1.9V1.8h10.8v13.7c0.8-0.8,2-1.4,3.3-1.4
				c1.7,0,3.2,0.9,4,2.2c0.8-1.3,2.3-2.2,4-2.2c1.3,0,2.5,0.5,3.3,1.4V1.8h10.8V37.2z"/>
		</g>
		<path id="HelsinkiStadsmuseum" class="st3" d="M58.1,33.1c0.7,0,1.4-0.1,1.9-0.3c0.6-0.2,1.1-0.4,1.5-0.7s0.7-0.7,0.9-1.1
			s0.3-0.8,0.3-1.3c0-0.5-0.1-1-0.4-1.4c-0.2-0.4-0.5-0.7-0.9-1c-0.4-0.3-0.8-0.5-1.3-0.7c-0.5-0.2-1-0.4-1.6-0.6
			c-0.3-0.1-0.5-0.2-0.8-0.3c-0.3-0.1-0.6-0.2-0.9-0.3c-0.3-0.1-0.5-0.3-0.7-0.4C56.1,25,56,24.8,56,24.6c0-0.1,0-0.3,0.1-0.4
			s0.2-0.3,0.3-0.4c0.2-0.1,0.4-0.2,0.7-0.3c0.3-0.1,0.6-0.1,1.1-0.1c0.3,0,0.6,0,0.9,0.1c0.3,0.1,0.6,0.2,0.8,0.3
			c0.3,0.1,0.5,0.2,0.7,0.4c0.2,0.1,0.4,0.2,0.5,0.3l0,0l1.2-1.3c-0.2-0.2-0.4-0.3-0.7-0.5s-0.6-0.4-1-0.5c-0.4-0.2-0.8-0.3-1.2-0.4
			s-0.8-0.2-1.3-0.2c-0.7,0-1.3,0.1-1.9,0.3s-1,0.4-1.3,0.7c-0.3,0.3-0.6,0.6-0.8,1C54,24,54,24.3,54,24.7c0,0.5,0.1,0.9,0.3,1.2
			c0.2,0.4,0.5,0.7,0.9,0.9s0.8,0.5,1.3,0.7s1,0.4,1.5,0.5c0.3,0.1,0.6,0.2,0.9,0.3c0.3,0.1,0.6,0.2,0.9,0.3
			c0.3,0.1,0.5,0.3,0.7,0.4c0.2,0.2,0.3,0.4,0.3,0.6c0,0.2-0.1,0.3-0.2,0.5c-0.1,0.2-0.3,0.3-0.5,0.5c-0.2,0.1-0.5,0.3-0.8,0.4
			c-0.3,0.1-0.7,0.1-1.2,0.1c-0.2,0-0.5,0-0.7-0.1c-0.3,0-0.6-0.1-0.9-0.2c-0.3-0.1-0.6-0.3-1-0.4c-0.3-0.2-0.6-0.4-0.9-0.6l0,0
			l-1.3,1.4c0.8,0.7,1.6,1.2,2.5,1.5C56.6,33,57.4,33.1,58.1,33.1z M70,33v-9.2h3.8v-2h-9.7v2H68V33H70z M75,33l1.1-2.4h4.8L82,33
			H84l-4.8-11.2h-3.6v2h1.3l-4,9.2H75z M80.1,28.6h-3.2l1.6-3.9L80.1,28.6z M90.1,33c0.7,0,1.4-0.1,2.1-0.3c0.7-0.2,1.3-0.6,1.8-1
			c0.5-0.5,0.9-1,1.3-1.7c0.3-0.7,0.5-1.5,0.5-2.4c0-0.9-0.2-1.7-0.5-2.5s-0.7-1.3-1.3-1.8s-1.1-0.8-1.8-1.1
			c-0.7-0.2-1.4-0.4-2.1-0.4l0,0h-4.5V33H90.1z M90.1,31.1c-0.4,0-0.8,0-1.2,0c-0.4,0-0.8,0-1.2,0l0,0v-7.3h2.5
			c0.5,0,0.9,0.1,1.4,0.2c0.4,0.2,0.8,0.4,1.2,0.7c0.3,0.3,0.6,0.7,0.8,1.2s0.3,1,0.3,1.6c0,0.6-0.1,1.1-0.3,1.5s-0.5,0.8-0.8,1.1
			c-0.3,0.3-0.7,0.5-1.2,0.7C91,31,90.6,31.1,90.1,31.1z M101.5,33.1c0.7,0,1.4-0.1,1.9-0.3c0.6-0.2,1.1-0.4,1.5-0.7
			s0.7-0.7,0.9-1.1c0.2-0.4,0.3-0.8,0.3-1.3c0-0.5-0.1-1-0.4-1.4s-0.5-0.7-0.9-1c-0.4-0.3-0.8-0.5-1.3-0.7c-0.5-0.2-1-0.4-1.6-0.6
			c-0.3-0.1-0.5-0.2-0.8-0.3s-0.6-0.2-0.9-0.3c-0.3-0.1-0.5-0.3-0.7-0.4s-0.3-0.3-0.3-0.5c0-0.1,0-0.3,0.1-0.4
			c0.1-0.1,0.2-0.3,0.3-0.4c0.2-0.1,0.4-0.2,0.7-0.3c0.3-0.1,0.6-0.1,1.1-0.1c0.3,0,0.6,0,0.9,0.1c0.3,0.1,0.6,0.2,0.8,0.3
			s0.5,0.2,0.7,0.4c0.2,0.1,0.4,0.2,0.5,0.3l0,0l1.2-1.3c-0.2-0.2-0.4-0.3-0.7-0.5s-0.6-0.4-1-0.5c-0.4-0.2-0.8-0.3-1.2-0.4
			s-0.8-0.2-1.3-0.2c-0.7,0-1.3,0.1-1.9,0.3s-1,0.4-1.3,0.7c-0.3,0.3-0.6,0.6-0.8,1c-0.2,0.4-0.2,0.7-0.2,1.1c0,0.5,0.1,0.9,0.3,1.2
			c0.2,0.4,0.5,0.7,0.9,0.9c0.4,0.3,0.8,0.5,1.3,0.7c0.5,0.2,1,0.4,1.5,0.5c0.3,0.1,0.6,0.2,0.9,0.3s0.6,0.2,0.9,0.3
			c0.3,0.1,0.5,0.3,0.7,0.4c0.2,0.2,0.3,0.4,0.3,0.6c0,0.2-0.1,0.3-0.2,0.5c-0.1,0.2-0.3,0.3-0.5,0.5c-0.2,0.1-0.5,0.3-0.8,0.4
			c-0.3,0.1-0.7,0.1-1.2,0.1c-0.2,0-0.5,0-0.7-0.1c-0.3,0-0.6-0.1-0.9-0.2c-0.3-0.1-0.6-0.3-1-0.4c-0.3-0.2-0.6-0.4-0.9-0.6l0,0
			l-1.3,1.4c0.8,0.7,1.6,1.2,2.5,1.5C99.9,33,100.7,33.1,101.5,33.1z M110.3,33v-6.7l3.3,6.7h0.9l3.3-6.7V33h1.9V21.8h-1.7
			c-0.4,0.7-0.7,1.3-1,2c-0.3,0.7-0.6,1.3-1,2l-0.5,1l0,0l-0.5,1c-0.3,0.7-0.7,1.3-1,2l0,0l-3.9-8h-1.7V33H110.3z M127.3,33.1
			c0.7,0,1.3-0.1,1.9-0.3c0.6-0.2,1.1-0.6,1.6-1c0.5-0.4,0.8-1,1.1-1.6c0.3-0.6,0.4-1.3,0.4-2.1l0,0v-6.4h-2v6.4
			c0,0.4-0.1,0.8-0.2,1.2s-0.3,0.7-0.6,1c-0.3,0.3-0.6,0.5-0.9,0.7s-0.7,0.2-1.2,0.2c-0.4,0-0.7-0.1-1.1-0.2
			c-0.3-0.1-0.7-0.3-0.9-0.6c-0.3-0.3-0.5-0.6-0.6-1c-0.2-0.4-0.2-0.8-0.2-1.3l0,0v-6.4h-2v6.3c0,0.8,0.1,1.5,0.4,2.1
			c0.3,0.6,0.6,1.1,1.1,1.6s1,0.8,1.6,1C126.1,33,126.7,33.1,127.3,33.1z M138.9,33.1c0.7,0,1.4-0.1,1.9-0.3
			c0.6-0.2,1.1-0.4,1.5-0.7s0.7-0.7,0.9-1.1c0.2-0.4,0.3-0.8,0.3-1.3c0-0.5-0.1-1-0.4-1.4s-0.5-0.7-0.9-1s-0.8-0.5-1.3-0.7
			s-1-0.4-1.6-0.6c-0.3-0.1-0.5-0.2-0.8-0.3s-0.6-0.2-0.9-0.3c-0.3-0.1-0.5-0.3-0.7-0.4s-0.3-0.3-0.3-0.5c0-0.1,0-0.3,0.1-0.4
			s0.2-0.3,0.3-0.4c0.2-0.1,0.4-0.2,0.7-0.3c0.3-0.1,0.6-0.1,1.1-0.1c0.3,0,0.6,0,0.9,0.1c0.3,0.1,0.6,0.2,0.8,0.3
			c0.3,0.1,0.5,0.2,0.7,0.4c0.2,0.1,0.4,0.2,0.5,0.3l0,0l1.2-1.3c-0.2-0.2-0.4-0.3-0.7-0.5c-0.3-0.2-0.6-0.4-1-0.5s-0.8-0.3-1.2-0.4
			c-0.4-0.1-0.8-0.2-1.3-0.2c-0.7,0-1.3,0.1-1.9,0.3c-0.5,0.2-1,0.4-1.3,0.7c-0.3,0.3-0.6,0.6-0.8,1c-0.2,0.4-0.2,0.7-0.2,1.1
			c0,0.5,0.1,0.9,0.3,1.2c0.2,0.4,0.5,0.7,0.9,0.9s0.8,0.5,1.3,0.7s1,0.4,1.5,0.5c0.3,0.1,0.6,0.2,0.9,0.3c0.3,0.1,0.6,0.2,0.9,0.3
			c0.3,0.1,0.5,0.3,0.7,0.4c0.2,0.2,0.3,0.4,0.3,0.6c0,0.2-0.1,0.3-0.2,0.5c-0.1,0.2-0.3,0.3-0.5,0.5c-0.2,0.1-0.5,0.3-0.8,0.4
			c-0.3,0.1-0.7,0.1-1.2,0.1c-0.2,0-0.5,0-0.7-0.1c-0.3,0-0.6-0.1-0.9-0.2c-0.3-0.1-0.6-0.3-1-0.4c-0.3-0.2-0.6-0.4-0.9-0.6l0,0
			l-1.3,1.4c0.8,0.7,1.6,1.2,2.5,1.5C137.3,33,138.1,33.1,138.9,33.1z M153,33v-2h-5.2v-2.8h3.2v-1.9h-3.2v-2.6h5.1v-2h-7.1V33H153z
			 M160,33.1c0.7,0,1.3-0.1,1.9-0.3c0.6-0.2,1.1-0.6,1.6-1c0.5-0.4,0.8-1,1.1-1.6c0.3-0.6,0.4-1.3,0.4-2.1l0,0v-6.4h-2v6.4
			c0,0.4-0.1,0.8-0.2,1.2s-0.3,0.7-0.6,1c-0.3,0.3-0.6,0.5-0.9,0.7c-0.4,0.2-0.7,0.2-1.2,0.2c-0.4,0-0.7-0.1-1.1-0.2
			c-0.3-0.1-0.7-0.3-0.9-0.6c-0.3-0.3-0.5-0.6-0.6-1s-0.2-0.8-0.2-1.3l0,0v-6.4h-2v6.3c0,0.8,0.1,1.5,0.4,2.1
			c0.3,0.6,0.6,1.1,1.1,1.6s1,0.8,1.6,1C158.7,33,159.4,33.1,160,33.1z M169.6,33v-6.7l3.3,6.7h0.9l3.3-6.7V33h1.9V21.8h-1.7
			c-0.4,0.7-0.7,1.3-1,2c-0.3,0.7-0.6,1.3-1,2l-0.5,1l0,0l-0.5,1c-0.3,0.7-0.7,1.3-1,2l0,0l-3.9-8h-1.7V33H169.6z"/>
		<path id="HELSINGFORS" class="st3" d="M56.3,17v-4.7h6V17h2V5.8h-2v4.6h-6V5.8h-2V17H56.3z M74.5,17v-2h-5.2v-2.8h3.2v-1.9h-3.2
			V7.8h5.1v-2h-7.1V17H74.5z M83.6,17v-2h-4.8V5.8h-2V17H83.6z M89.5,17.1c0.7,0,1.4-0.1,1.9-0.3c0.6-0.2,1.1-0.4,1.5-0.7
			c0.4-0.3,0.7-0.7,0.9-1.1s0.3-0.8,0.3-1.3c0-0.5-0.1-1-0.4-1.4s-0.5-0.7-0.9-1c-0.4-0.3-0.8-0.5-1.3-0.7c-0.5-0.2-1-0.4-1.6-0.6
			c-0.3-0.1-0.5-0.2-0.8-0.3s-0.6-0.2-0.9-0.3c-0.3-0.1-0.5-0.3-0.7-0.4s-0.3-0.3-0.3-0.5c0-0.1,0-0.3,0.1-0.4
			c0.1-0.1,0.2-0.3,0.3-0.4c0.2-0.1,0.4-0.2,0.7-0.3c0.3-0.1,0.6-0.1,1.1-0.1c0.3,0,0.6,0,0.9,0.1s0.6,0.2,0.8,0.3
			c0.3,0.1,0.5,0.2,0.7,0.4s0.4,0.2,0.5,0.3l0,0l1.2-1.3c-0.2-0.2-0.4-0.3-0.7-0.5c-0.3-0.2-0.6-0.4-1-0.5c-0.4-0.2-0.8-0.3-1.2-0.4
			c-0.4-0.1-0.8-0.2-1.3-0.2c-0.7,0-1.3,0.1-1.9,0.3c-0.5,0.2-1,0.4-1.3,0.7c-0.3,0.3-0.6,0.6-0.8,1c-0.2,0.4-0.2,0.7-0.2,1.1
			c0,0.5,0.1,0.9,0.3,1.2c0.2,0.4,0.5,0.7,0.9,0.9c0.4,0.3,0.8,0.5,1.3,0.7c0.5,0.2,1,0.4,1.5,0.5c0.3,0.1,0.6,0.2,0.9,0.3
			s0.6,0.2,0.9,0.3c0.3,0.1,0.5,0.3,0.7,0.4c0.2,0.2,0.3,0.4,0.3,0.6c0,0.2-0.1,0.3-0.2,0.5s-0.3,0.3-0.5,0.5S91,15,90.7,15.1
			c-0.3,0.1-0.7,0.1-1.2,0.1c-0.2,0-0.5,0-0.7-0.1c-0.3,0-0.6-0.1-0.9-0.2c-0.3-0.1-0.6-0.3-1-0.4c-0.3-0.2-0.6-0.4-0.9-0.6l0,0
			l-1.3,1.4c0.8,0.7,1.6,1.2,2.5,1.5C88,17,88.8,17.1,89.5,17.1z M98.5,17V5.8h-2V17H98.5z M103.4,17V9.4l6.8,7.6h1.2V5.8h-1.9v7.6
			l-6.8-7.6l-1.3,0V17H103.4z M119.4,17.1c0.5,0,1-0.1,1.4-0.2c0.5-0.1,0.9-0.3,1.4-0.5s0.8-0.5,1.2-0.9c0.4-0.4,0.7-0.8,0.9-1.2
			l0,0v-3.5H121v2h1.3v1c-0.3,0.5-0.8,0.9-1.3,1.1c-0.5,0.3-1.1,0.4-1.7,0.4c-0.5,0-1-0.1-1.4-0.3s-0.8-0.4-1.2-0.8
			c-0.3-0.3-0.6-0.7-0.8-1.2s-0.3-1-0.3-1.5c0-0.6,0.1-1.1,0.3-1.6c0.2-0.5,0.5-0.9,0.8-1.2c0.3-0.3,0.7-0.6,1.2-0.8
			c0.4-0.2,0.9-0.3,1.4-0.3c0.5,0,1.1,0.2,1.7,0.5c0.6,0.3,1,0.9,1.4,1.5l0,0l1.9-0.8c-0.3-0.5-0.6-1-1-1.4c-0.4-0.4-0.8-0.7-1.2-1
			c-0.4-0.3-0.9-0.5-1.3-0.6c-0.5-0.1-0.9-0.2-1.4-0.2c-0.7,0-1.4,0.1-2.1,0.4c-0.7,0.3-1.3,0.7-1.8,1.2s-1,1.1-1.3,1.8
			s-0.5,1.5-0.5,2.4c0,0.9,0.2,1.7,0.5,2.4c0.3,0.7,0.8,1.3,1.3,1.8c0.5,0.5,1.2,0.8,1.8,1.1C118,17,118.7,17.1,119.4,17.1z M129,17
			v-4.8h3.2v-1.9H129V7.8h5v-2h-7V17H129z M140.9,17.1c0.7,0,1.4-0.1,2.1-0.4c0.7-0.3,1.3-0.6,1.8-1.1c0.5-0.5,1-1.1,1.3-1.8
			c0.3-0.7,0.5-1.5,0.5-2.4c0-0.9-0.2-1.7-0.5-2.4c-0.3-0.7-0.7-1.3-1.3-1.8c-0.5-0.5-1.1-0.9-1.8-1.1c-0.7-0.3-1.4-0.4-2.1-0.4
			c-0.7,0-1.4,0.1-2.1,0.4c-0.7,0.3-1.3,0.6-1.8,1.1s-1,1.1-1.3,1.8c-0.3,0.7-0.5,1.5-0.5,2.4c0,0.9,0.2,1.7,0.5,2.4
			s0.8,1.3,1.3,1.8s1.1,0.9,1.8,1.1S140.2,17.1,140.9,17.1z M140.9,15.2c-0.5,0-1-0.1-1.4-0.3c-0.4-0.2-0.8-0.5-1.2-0.8
			c-0.3-0.3-0.6-0.7-0.8-1.2s-0.3-1-0.3-1.5c0-0.6,0.1-1.1,0.3-1.6s0.5-0.9,0.8-1.2c0.3-0.3,0.7-0.6,1.2-0.8
			c0.4-0.2,0.9-0.3,1.4-0.3c0.5,0,0.9,0.1,1.4,0.3c0.4,0.2,0.8,0.4,1.2,0.8c0.3,0.3,0.6,0.7,0.8,1.2c0.2,0.5,0.3,1,0.3,1.6
			c0,0.5-0.1,1.1-0.3,1.5c-0.2,0.5-0.5,0.9-0.8,1.2c-0.3,0.3-0.7,0.6-1.2,0.8C141.8,15.1,141.4,15.2,140.9,15.2z M150.7,17v-3.7h1.6
			l4,3.7h2.6l-4-3.7c0.4,0,0.8-0.2,1.2-0.3s0.7-0.4,0.9-0.7c0.3-0.3,0.5-0.7,0.6-1.1c0.1-0.4,0.2-0.9,0.2-1.4c0-0.6-0.1-1.1-0.3-1.5
			c-0.2-0.5-0.4-0.9-0.8-1.2c-0.3-0.4-0.8-0.6-1.3-0.8c-0.5-0.2-1.1-0.3-1.7-0.3l0,0h-5.2V17H150.7z M153.9,11.5h-3.1V7.8h3.2
			c0.3,0,0.6,0.1,0.8,0.2c0.3,0.1,0.5,0.3,0.6,0.4c0.2,0.2,0.3,0.4,0.4,0.6s0.1,0.5,0.1,0.7c0,0.4-0.1,0.7-0.2,0.9
			c-0.1,0.2-0.3,0.4-0.4,0.6c-0.2,0.1-0.4,0.2-0.7,0.3C154.4,11.5,154.1,11.5,153.9,11.5L153.9,11.5z M164.3,17.1
			c0.7,0,1.4-0.1,1.9-0.3c0.6-0.2,1.1-0.4,1.5-0.7c0.4-0.3,0.7-0.7,0.9-1.1s0.3-0.8,0.3-1.3c0-0.5-0.1-1-0.4-1.4s-0.5-0.7-0.9-1
			c-0.4-0.3-0.8-0.5-1.3-0.7c-0.5-0.2-1-0.4-1.6-0.6c-0.3-0.1-0.5-0.2-0.8-0.3s-0.6-0.2-0.9-0.3c-0.3-0.1-0.5-0.3-0.7-0.4
			s-0.3-0.3-0.3-0.5c0-0.1,0-0.3,0.1-0.4c0.1-0.1,0.2-0.3,0.3-0.4c0.2-0.1,0.4-0.2,0.7-0.3s0.6-0.1,1.1-0.1c0.3,0,0.6,0,0.9,0.1
			s0.6,0.2,0.8,0.3c0.3,0.1,0.5,0.2,0.7,0.4s0.4,0.2,0.5,0.3l0,0l1.2-1.3c-0.2-0.2-0.4-0.3-0.7-0.5c-0.3-0.2-0.6-0.4-1-0.5
			c-0.4-0.2-0.8-0.3-1.2-0.4c-0.4-0.1-0.8-0.2-1.3-0.2c-0.7,0-1.3,0.1-1.9,0.3c-0.5,0.2-1,0.4-1.3,0.7s-0.6,0.6-0.8,1
			c-0.2,0.4-0.2,0.7-0.2,1.1c0,0.5,0.1,0.9,0.3,1.2c0.2,0.4,0.5,0.7,0.9,0.9s0.8,0.5,1.3,0.7c0.5,0.2,1,0.4,1.5,0.5
			c0.3,0.1,0.6,0.2,0.9,0.3c0.3,0.1,0.6,0.2,0.9,0.3c0.3,0.1,0.5,0.3,0.7,0.4c0.2,0.2,0.3,0.4,0.3,0.6c0,0.2-0.1,0.3-0.2,0.5
			s-0.3,0.3-0.5,0.5s-0.5,0.3-0.8,0.4s-0.7,0.1-1.2,0.1c-0.2,0-0.5,0-0.7-0.1c-0.3,0-0.6-0.1-0.9-0.2c-0.3-0.1-0.6-0.3-1-0.4
			c-0.3-0.2-0.6-0.4-0.9-0.6l0,0l-1.3,1.4c0.8,0.7,1.6,1.2,2.5,1.5C162.7,17,163.5,17.1,164.3,17.1z"/>
	</g>
</g>
</svg>
