<?xml version="1.0" encoding="UTF-8"?>
<svg width="220px" height="39px" viewBox="0 0 220 39" version="1.1" xmlns="http://www.w3.org/2000/svg" xmlns:xlink="http://www.w3.org/1999/xlink">
    <title>Group 5</title>
    <defs>
        <polygon id="path-1" points="0 0 40 0 40 39 0 39"></polygon>
    </defs>
    <g id="Symbols" stroke="none" stroke-width="1" fill="none" fill-rule="evenodd">
        <g id="Group-5">
            <g id="Kaupunginmusero-Copy">
                <mask id="mask-2" fill="white">
                    <use xlink:href="#path-1"></use>
                </mask>
                <g id="Clip-2"></g>
                <path d="M40,39 L40,0 L25.4067698,0 L25.4067698,12.5772593 C23.1807432,11.9037105 21.1061654,12.8193208 20,13.6473605 C18.8938346,12.8193208 16.8190975,11.9037105 14.5932302,12.5772593 L14.5932302,0 L0,0 L0,39 L14.5932302,39 L14.5932302,25.5617844 L19.9998407,28.9031332 L20,28.9031332 L20.0001593,28.9031332 L25.4067698,25.5617844 L25.4067698,39 L40,39 Z M38.1099955,37.1568238 L27.2967743,37.1568238 L27.2967743,22.0688948 L20.0001593,26.6758261 L20,26.6758261 L19.9998407,26.6758261 L12.7032257,22.0688948 L12.7032257,37.1568238 L1.89000454,37.1568238 L1.89000454,1.84348674 L12.7032257,1.84348674 L12.7032257,15.5694124 C13.5464658,14.7269329 14.7188801,14.2001115 16.0175814,14.2001115 C17.7175982,14.2001115 19.1911583,15.1067163 20,16.4413926 C20.8086824,15.1067163 22.2822426,14.2001115 23.9822593,14.2001115 C25.2811199,14.2001115 26.4535342,14.7269329 27.2967743,15.5694124 L27.2967743,1.84348674 L38.1099955,1.84348674 L38.1099955,37.1568238 Z" id="Fill-1" fill="#00C77B" mask="url(#mask-2)"></path>
            </g>
            <path d="M56.28,17 L56.28,12.344 L62.312,12.344 L62.312,17 L64.312,17 L64.312,5.8 L62.312,5.8 L62.312,10.392 L56.28,10.392 L56.28,5.8 L54.28,5.8 L54.28,17 L56.28,17 Z M74.372,17 L74.372,15.048 L69.172,15.048 L69.172,12.248 L72.42,12.248 L72.42,10.312 L69.172,10.312 L69.172,7.752 L74.228,7.752 L74.228,5.8 L67.172,5.8 L67.172,17 L74.372,17 Z M83.408,17 L83.408,15.048 L78.592,15.048 L78.592,5.8 L76.592,5.8 L76.592,17 L83.408,17 Z M89.228,17.128 C89.9426667,17.128 90.588,17.04 91.164,16.864 C91.74,16.688 92.2306667,16.448 92.636,16.144 C93.0413333,15.84 93.3533333,15.4853333 93.572,15.08 C93.7906667,14.6746667 93.9,14.2373333 93.9,13.768 C93.9,13.224 93.7826667,12.768 93.548,12.4 C93.3133333,12.032 93.0013333,11.7146667 92.612,11.448 C92.2226667,11.1813333 91.7773333,10.952 91.276,10.76 C90.7746667,10.568 90.252,10.3813333 89.708,10.2 C89.452,10.1146667 89.172,10.0213333 88.868,9.92 C88.564,9.81866667 88.2786667,9.70666667 88.012,9.584 C87.7453333,9.46133333 87.5213333,9.32266667 87.34,9.168 C87.1586667,9.01333333 87.068,8.84 87.068,8.648 C87.068,8.52 87.1,8.38933333 87.164,8.256 C87.228,8.12266667 87.34,7.99733333 87.5,7.88 C87.66,7.76266667 87.8786667,7.66666667 88.156,7.592 C88.4333333,7.51733333 88.7853333,7.48 89.212,7.48 C89.5106667,7.48 89.8066667,7.51733333 90.1,7.592 C90.3933333,7.66666667 90.668,7.76 90.924,7.872 C91.18,7.984 91.4146667,8.10133333 91.628,8.224 C91.8413333,8.34666667 92.0226667,8.46133333 92.172,8.568 L92.172,8.568 L93.404,7.24 C93.2226667,7.08 92.9826667,6.90666667 92.684,6.72 C92.3853333,6.53333333 92.0466667,6.36 91.668,6.2 C91.2893333,6.04 90.8893333,5.90933333 90.468,5.808 C90.0466667,5.70666667 89.628,5.656 89.212,5.656 C88.4973333,5.656 87.8786667,5.74666667 87.356,5.928 C86.8333333,6.10933333 86.404,6.344 86.068,6.632 C85.732,6.92 85.4813333,7.24266667 85.316,7.6 C85.1506667,7.95733333 85.068,8.312 85.068,8.664 C85.068,9.144 85.18,9.56 85.404,9.912 C85.628,10.264 85.9266667,10.5733333 86.3,10.84 C86.6733333,11.1066667 87.1,11.336 87.58,11.528 C88.06,11.72 88.5506667,11.896 89.052,12.056 C89.3293333,12.152 89.6333333,12.248 89.964,12.344 C90.2946667,12.44 90.604,12.552 90.892,12.68 C91.18,12.808 91.42,12.9573333 91.612,13.128 C91.804,13.2986667 91.9,13.512 91.9,13.768 C91.9,13.928 91.844,14.0933333 91.732,14.264 C91.62,14.4346667 91.4546667,14.592 91.236,14.736 C91.0173333,14.88 90.74,14.9973333 90.404,15.088 C90.068,15.1786667 89.676,15.224 89.228,15.224 C89.0146667,15.224 88.7666667,15.2 88.484,15.152 C88.2013333,15.104 87.9,15.024 87.58,14.912 C87.26,14.8 86.9373333,14.656 86.612,14.48 C86.2866667,14.304 85.9746667,14.088 85.676,13.832 L85.676,13.832 L84.332,15.24 C85.1213333,15.9226667 85.948,16.408 86.812,16.696 C87.676,16.984 88.4813333,17.128 89.228,17.128 Z M98.088,17 L98.088,5.8 L96.104,5.8 L96.104,17 L98.088,17 Z M102.868,17 L102.868,9.448 L109.7,17 L110.948,17 L110.948,5.8 L109.028,5.8 L109.028,13.4 L102.228,5.816 L100.948,5.8 L100.948,17 L102.868,17 Z M123.232,17 L118.224,10.808 L121.952,5.8 L119.504,5.8 L115.824,10.968 L120.736,17 L123.232,17 Z M115.808,17 L115.808,5.8 L113.808,5.8 L113.808,17 L115.808,17 Z M126.796,17 L126.796,5.8 L124.812,5.8 L124.812,17 L126.796,17 Z M140.228,17.144 C140.718667,17.144 141.212,17.0773333 141.708,16.944 C142.204,16.8106667 142.678667,16.6133333 143.132,16.352 C143.585333,16.0906667 144.009333,15.7653333 144.404,15.376 C144.798667,14.9866667 145.145333,14.5306667 145.444,14.008 L145.444,14.008 L143.508,13.304 C143.113333,13.9226667 142.62,14.3946667 142.028,14.72 C141.436,15.0453333 140.836,15.208 140.228,15.208 C139.748,15.208 139.284,15.1146667 138.836,14.928 C138.388,14.7413333 137.988,14.4853333 137.636,14.16 C137.284,13.8346667 137.001333,13.4426667 136.788,12.984 C136.574667,12.5253333 136.468,12.024 136.468,11.48 C136.468,10.8933333 136.572,10.3626667 136.78,9.888 C136.988,9.41333333 137.265333,9.00533333 137.612,8.664 C137.958667,8.32266667 138.358667,8.05866667 138.812,7.872 C139.265333,7.68533333 139.737333,7.592 140.228,7.592 C140.772,7.592 141.318667,7.76533333 141.868,8.112 C142.417333,8.45866667 142.889333,8.96266667 143.284,9.624 L143.284,9.624 L145.156,8.872 C144.857333,8.36 144.516,7.904 144.132,7.504 C143.748,7.104 143.342667,6.768 142.916,6.496 C142.489333,6.224 142.046667,6.016 141.588,5.872 C141.129333,5.728 140.676,5.656 140.228,5.656 C139.502667,5.656 138.793333,5.79466667 138.1,6.072 C137.406667,6.34933333 136.793333,6.74133333 136.26,7.248 C135.726667,7.75466667 135.297333,8.36533333 134.972,9.08 C134.646667,9.79466667 134.484,10.5946667 134.484,11.48 C134.484,12.376 134.654667,13.176 134.996,13.88 C135.337333,14.584 135.78,15.176 136.324,15.656 C136.868,16.136 137.481333,16.504 138.164,16.76 C138.846667,17.016 139.534667,17.144 140.228,17.144 Z M149.328,17 L149.328,5.8 L147.344,5.8 L147.344,17 L149.328,17 Z M157.164,17 L157.164,7.752 L160.988,7.752 L160.988,5.8 L151.308,5.8 L151.308,7.752 L155.164,7.752 L155.164,17 L157.164,17 Z M167.832,17 L167.832,11.8 L171.896,5.8 L169.56,5.8 L166.824,9.864 L164.12,5.8 L161.768,5.8 L165.816,11.736 L165.816,17 L167.832,17 Z M56.184,33 L56.184,26.296 L59.464,33 L60.408,33 L63.672,26.28 L63.672,33 L65.592,33 L65.592,21.8 L63.864,21.8 C63.512,22.4506667 63.176,23.112 62.856,23.784 C62.536,24.456 62.2186667,25.128 61.904,25.8 L61.43,26.808 L61.43,26.808 L60.952,27.816 C60.632,28.488 60.2906667,29.1546667 59.928,29.816 L59.928,29.816 L56.024,21.8 L54.28,21.8 L54.28,33 L56.184,33 Z M73.268,33.144 C73.9186667,33.144 74.5426667,33.0293333 75.14,32.8 C75.7373333,32.5706667 76.2626667,32.24 76.716,31.808 C77.1693333,31.376 77.5293333,30.8506667 77.796,30.232 C78.0626667,29.6133333 78.196,28.92 78.196,28.152 L78.196,28.152 L78.196,21.8 L76.196,21.8 L76.196,28.152 C76.196,28.568 76.124,28.9626667 75.98,29.336 C75.836,29.7093333 75.6333333,30.0346667 75.372,30.312 C75.1106667,30.5893333 74.8013333,30.808 74.444,30.968 C74.0866667,31.128 73.7,31.208 73.284,31.208 C72.9,31.208 72.5346667,31.1413333 72.188,31.008 C71.8413333,30.8746667 71.5346667,30.68 71.268,30.424 C71.0013333,30.168 70.788,29.8506667 70.628,29.472 C70.468,29.0933333 70.388,28.6586667 70.388,28.168 L70.388,28.168 L70.388,21.8 L68.372,21.8 L68.372,28.136 C68.372,28.904 68.5053333,29.5973333 68.772,30.216 C69.0386667,30.8346667 69.396,31.36 69.844,31.792 C70.292,32.224 70.812,32.5573333 71.404,32.792 C71.996,33.0266667 72.6173333,33.144 73.268,33.144 Z M84.816,33.128 C85.5306667,33.128 86.176,33.04 86.752,32.864 C87.328,32.688 87.8186667,32.448 88.224,32.144 C88.6293333,31.84 88.9413333,31.4853333 89.16,31.08 C89.3786667,30.6746667 89.488,30.2373333 89.488,29.768 C89.488,29.224 89.3706667,28.768 89.136,28.4 C88.9013333,28.032 88.5893333,27.7146667 88.2,27.448 C87.8106667,27.1813333 87.3653333,26.952 86.864,26.76 C86.3626667,26.568 85.84,26.3813333 85.296,26.2 C85.04,26.1146667 84.76,26.0213333 84.456,25.92 C84.152,25.8186667 83.8666667,25.7066667 83.6,25.584 C83.3333333,25.4613333 83.1093333,25.3226667 82.928,25.168 C82.7466667,25.0133333 82.656,24.84 82.656,24.648 C82.656,24.52 82.688,24.3893333 82.752,24.256 C82.816,24.1226667 82.928,23.9973333 83.088,23.88 C83.248,23.7626667 83.4666667,23.6666667 83.744,23.592 C84.0213333,23.5173333 84.3733333,23.48 84.8,23.48 C85.0986667,23.48 85.3946667,23.5173333 85.688,23.592 C85.9813333,23.6666667 86.256,23.76 86.512,23.872 C86.768,23.984 87.0026667,24.1013333 87.216,24.224 C87.4293333,24.3466667 87.6106667,24.4613333 87.76,24.568 L87.76,24.568 L88.992,23.24 C88.8106667,23.08 88.5706667,22.9066667 88.272,22.72 C87.9733333,22.5333333 87.6346667,22.36 87.256,22.2 C86.8773333,22.04 86.4773333,21.9093333 86.056,21.808 C85.6346667,21.7066667 85.216,21.656 84.8,21.656 C84.0853333,21.656 83.4666667,21.7466667 82.944,21.928 C82.4213333,22.1093333 81.992,22.344 81.656,22.632 C81.32,22.92 81.0693333,23.2426667 80.904,23.6 C80.7386667,23.9573333 80.656,24.312 80.656,24.664 C80.656,25.144 80.768,25.56 80.992,25.912 C81.216,26.264 81.5146667,26.5733333 81.888,26.84 C82.2613333,27.1066667 82.688,27.336 83.168,27.528 C83.648,27.72 84.1386667,27.896 84.64,28.056 C84.9173333,28.152 85.2213333,28.248 85.552,28.344 C85.8826667,28.44 86.192,28.552 86.48,28.68 C86.768,28.808 87.008,28.9573333 87.2,29.128 C87.392,29.2986667 87.488,29.512 87.488,29.768 C87.488,29.928 87.432,30.0933333 87.32,30.264 C87.208,30.4346667 87.0426667,30.592 86.824,30.736 C86.6053333,30.88 86.328,30.9973333 85.992,31.088 C85.656,31.1786667 85.264,31.224 84.816,31.224 C84.6026667,31.224 84.3546667,31.2 84.072,31.152 C83.7893333,31.104 83.488,31.024 83.168,30.912 C82.848,30.8 82.5253333,30.656 82.2,30.48 C81.8746667,30.304 81.5626667,30.088 81.264,29.832 L81.264,29.832 L79.92,31.24 C80.7093333,31.9226667 81.536,32.408 82.4,32.696 C83.264,32.984 84.0693333,33.128 84.816,33.128 Z M98.892,33 L98.892,31.048 L93.692,31.048 L93.692,28.248 L96.94,28.248 L96.94,26.312 L93.692,26.312 L93.692,23.752 L98.748,23.752 L98.748,21.8 L91.692,21.8 L91.692,33 L98.892,33 Z M105.928,33.144 C106.578667,33.144 107.202667,33.0293333 107.8,32.8 C108.397333,32.5706667 108.922667,32.24 109.376,31.808 C109.829333,31.376 110.189333,30.8506667 110.456,30.232 C110.722667,29.6133333 110.856,28.92 110.856,28.152 L110.856,28.152 L110.856,21.8 L108.856,21.8 L108.856,28.152 C108.856,28.568 108.784,28.9626667 108.64,29.336 C108.496,29.7093333 108.293333,30.0346667 108.032,30.312 C107.770667,30.5893333 107.461333,30.808 107.104,30.968 C106.746667,31.128 106.36,31.208 105.944,31.208 C105.56,31.208 105.194667,31.1413333 104.848,31.008 C104.501333,30.8746667 104.194667,30.68 103.928,30.424 C103.661333,30.168 103.448,29.8506667 103.288,29.472 C103.128,29.0933333 103.048,28.6586667 103.048,28.168 L103.048,28.168 L103.048,21.8 L101.032,21.8 L101.032,28.136 C101.032,28.904 101.165333,29.5973333 101.432,30.216 C101.698667,30.8346667 102.056,31.36 102.504,31.792 C102.952,32.224 103.472,32.5573333 104.064,32.792 C104.656,33.0266667 105.277333,33.144 105.928,33.144 Z M115.54,33 L115.54,26.296 L118.82,33 L119.764,33 L123.028,26.28 L123.028,33 L124.948,33 L124.948,21.8 L123.22,21.8 C122.868,22.4506667 122.532,23.112 122.212,23.784 C121.892,24.456 121.574667,25.128 121.26,25.8 L120.786,26.808 L120.786,26.808 L120.308,27.816 C119.988,28.488 119.646667,29.1546667 119.284,29.816 L119.284,29.816 L115.38,21.8 L113.636,21.8 L113.636,33 L115.54,33 Z" id="HelsinkiCitymuseum" fill="#00C77B" fill-rule="nonzero"></path>
        </g>
    </g>
</svg>