<?xml version="1.0" encoding="UTF-8"?>
<svg width="24px" height="24px" viewBox="0 0 24 24" version="1.1" xmlns="http://www.w3.org/2000/svg" xmlns:xlink="http://www.w3.org/1999/xlink">
    <title>profiili</title>
    <g id="profiili" stroke="none" stroke-width="1" fill="none" fill-rule="evenodd">
        <rect id="Boundingbox" x="0" y="0" width="24" height="24"></rect>
        <g id="Group">
            <rect id="Bounding-box" x="0" y="0" width="24" height="24"></rect>
            <path d="M16.2666667,13 C18.8081993,13 20.8818856,15.0030882 20.9951293,17.5166682 L21,17.7333333 L21,22 L3,22 L3,17.7333333 C3,15.1918007 5.00308816,13.1181144 7.51666824,13.0048707 L7.73333333,13 L16.2666667,13 Z M7.73333333,15 C6.27966533,15 5.0910406,16.1347852 5.00498838,17.5668263 L5,17.7333333 L5,20 L19,20 L19,17.7333333 C19,16.3172186 17.892575,15.0972811 16.5400271,15.0074641 L16.3765999,15.0021704 L7.73333333,15 Z M12,2 C14.7614237,2 17,4.23857625 17,7 C17,9.76142375 14.7614237,12 12,12 C9.23857625,12 7,9.76142375 7,7 C7,4.23857625 9.23857625,2 12,2 Z M12,4 C10.3431458,4 9,5.34314575 9,7 C9,8.65685425 10.3431458,10 12,10 C13.6568542,10 15,8.65685425 15,7 C15,5.34314575 13.6568542,4 12,4 Z" id="Color" fill="#000000"></path>
        </g>
    </g>
</svg>