<?xml version="1.0" encoding="UTF-8"?>
<svg width="24px" height="24px" viewBox="0 0 24 24" version="1.1" xmlns="http://www.w3.org/2000/svg" xmlns:xlink="http://www.w3.org/1999/xlink">
    <title>SoMe/X</title>
    <g id="Page-1" stroke="none" stroke-width="1" fill="none" fill-rule="evenodd">
        <g id="Share-image-1" transform="translate(-1294, -1251)">
            <g id="SoMe/X" transform="translate(1294, 1251)">
                <rect id="Bounding-box" x="0" y="0" width="24" height="24"></rect>
                <path d="M19.0714286,3 C20.0854592,3 20.9172741,3.7835277 20.9941951,4.77790504 L21,4.92857143 L21,19.0714286 C21,20.0854592 20.2164723,20.9172741 19.222095,20.9941951 L19.0714286,21 L4.92857143,21 C3.91454082,21 3.08272595,20.2164723 3.00580487,19.222095 L3,19.0714286 L3,4.92857143 C3,3.91454082 3.7835277,3.08272595 4.77790504,3.00580487 L4.92857143,3 L19.0714286,3 Z M9.94077632,5.75 L6.06444358,5.75 L10.5157963,12.654 L6,18.25 L7.61855135,18.25 L11.232942,13.766 L14.1236644,18.25 L18,18.25 L13.3883856,11.098 L17.7053348,5.75 L16.0884583,5.75 L12.6712399,9.985 L9.94077632,5.75 Z" id="Combined-Shape" fill="#000000"></path>
                <polygon id="Path" fill="#000000" fill-rule="nonzero" points="11.7173458 12.7303799 11.2822225 12.0660388 7.82010083 6.77980773 9.3106375 6.77980773 12.10461 11.0459649 12.5397333 11.710306 16.1715667 17.2556569 14.68103 17.2556569 11.7173458 12.7306343"></polygon>
            </g>
        </g>
    </g>
</svg>